<?xml version="1.0" encoding="UTF-8" standalone="no"?>
<!-- Created with Inkscape (http://www.inkscape.org/) -->

<svg
   xmlns:dc="http://purl.org/dc/elements/1.1/"
   xmlns:cc="http://creativecommons.org/ns#"
   xmlns:rdf="http://www.w3.org/1999/02/22-rdf-syntax-ns#"
   xmlns:svg="http://www.w3.org/2000/svg"
   xmlns="http://www.w3.org/2000/svg"
   xmlns:sodipodi="http://sodipodi.sourceforge.net/DTD/sodipodi-0.dtd"
   xmlns:inkscape="http://www.inkscape.org/namespaces/inkscape"
   width="1000"
   height="1000"
   id="svg3093"
   version="1.1"
   inkscape:version="0.48.2 r9819"
   sodipodi:docname="E.svg">
  <defs
     id="defs3095">
    <filter
       inkscape:collect="always"
       id="filter4175-3"
       color-interpolation-filters="sRGB">
      <feBlend
         inkscape:collect="always"
         mode="lighten"
         in2="BackgroundImage"
         id="feBlend4177-8" />
    </filter>
  </defs>
  <sodipodi:namedview
     id="base"
     pagecolor="#ffffff"
     bordercolor="#666666"
     borderopacity="1.0"
     inkscape:pageopacity="0.0"
     inkscape:pageshadow="2"
     inkscape:zoom="0.15722809"
     inkscape:cx="675.83612"
     inkscape:cy="445.00506"
     inkscape:document-units="px"
     inkscape:current-layer="layer1"
     showgrid="true"
     showborder="true"
     inkscape:showpageshadow="false"
     inkscape:window-width="1253"
     inkscape:window-height="765"
     inkscape:window-x="141"
     inkscape:window-y="29"
     inkscape:window-maximized="0"
     showguides="true"
     inkscape:guide-bbox="true">
    <sodipodi:guide
       orientation="0,1"
       position="114.53282,200.26098"
       id="guide3344" />
  </sodipodi:namedview>
  <metadata
     id="metadata3098">
    <rdf:RDF>
      <cc:Work
         rdf:about="">
        <dc:format>image/svg+xml</dc:format>
        <dc:type
           rdf:resource="http://purl.org/dc/dcmitype/StillImage" />
        <dc:title></dc:title>
      </cc:Work>
    </rdf:RDF>
  </metadata>
  <g
     inkscape:label="Layer 1"
     inkscape:groupmode="layer"
     id="layer1"
     transform="translate(0,-52.362183)">
    <path
       style="fill:#000000;display:inline;filter:url(#filter4175);enable-background:new"
       d="m 489.14418,80.454733 c -43.67305,-0.006 -58.72109,12.57344 -75.17135,57.795767 -5.56951,15.31136 -21.59835,55.45468 -35.48167,89.25422 -13.88443,33.79957 -33.82304,87.79106 -44.26197,119.9811 -10.43836,32.19007 -23.79252,69.0623 -29.81198,81.93831 -6.01955,12.87603 -11.94021,28.67841 -13.16864,35.11643 -1.22862,6.438 -13.40512,43.31025 -26.88577,81.93831 -31.05702,88.9891 -58.52737,197.01187 -58.52737,229.90307 -5.6e-4,28.42031 6.41511,43.81183 27.80044,66.75751 12.84926,13.78736 20.47526,12.54657 29.99535,8.96175 20.95163,-8.90087 35.78472,-21.98355 39.13947,-35.29905 8.62415,-24.72793 15.21914,-81.7809 28.16701,-134.97878 18.03871,-55.08593 70.97738,-61.50345 94.82252,-70.34929 71.34312,-26.10962 163.39724,-54.90332 179.88959,-57.49611 11.52,-1.81317 15.61296,4.36849 47.55356,71.51283 11.49876,24.17122 20.87443,50.71513 25.78881,67.30645 4.91401,16.59192 24.31874,68.30962 24.32586,77.73194 5.5e-4,4.16014 2.75659,10.74389 6.03534,14.63187 3.27883,3.88621 10.99201,13.32142 17.19245,20.84973 11.20678,13.60943 11.30457,13.62759 30.361,2.92639 24.0396,-13.4975 36.6989,-24.97946 44.80989,-40.60276 7.35438,-14.16479 5.76894,-39.21918 -3.10905,-50.29722 -3.37705,-4.21397 -7.98953,-14.27308 -19.57038,-36.03064 -11.57972,-21.7587 -18.00425,-35.50854 -37.67647,-85.96261 -19.67398,-50.45177 -26.33785,-66.76862 -26.33729,-69.86645 0,-3.10021 11.8511,-12.54477 26.33729,-21.03358 29.97895,-17.56934 33.29912,-30.7813 13.16874,-52.49203 -10.33246,-11.14125 -19.71673,-14.33746 -43.5303,-15.18023 -37.52848,-1.32799 -39.30539,-2.52958 -48.28522,-31.45849 -3.99619,-12.876 -20.67988,-58.96629 -36.94483,-102.42287 -16.26585,-43.45657 -34.34787,-92.04247 -40.2375,-107.90983 -5.89085,-15.86735 -12.45341,-25.70989 -24.32577,-55.23519 -11.87159,-29.52471 -16.33086,-35.64199 -18.28976,-38.40858 -3.97275,-5.610427 -6.01891,-4.966617 -10.79063,-9.510687 -4.33507,-4.12559 -4.69851,-2.3212 -7.86489,-5.48695 -3.16647,-3.16633 -14.81324,-6.0336 -25.97155,-6.40112 -3.17395,-0.10539 -6.23321,-0.18145 -9.14493,-0.18145 z m 12.07134,189.482337 c 5.57477,-0.65551 13.53622,12.3007 25.23987,45.54189 17.02459,48.34945 34.25656,90.26501 41.15173,110.65302 8.31797,24.59554 6.08631,26.44089 -42.43233,34.9338 -19.47674,3.40863 -57.21049,14.00034 -83.7667,23.41094 -26.55863,9.40947 -48.28569,15.82816 -48.28504,14.26548 -6.5e-4,-1.56212 7.74318,-17.74961 17.1918,-36.03064 20.15201,-38.98858 80.06848,-169.14759 84.68204,-183.9954 1.66933,-5.37046 3.68438,-8.4812 6.21863,-8.77909 z"
       id="path4094"
       inkscape:connector-curvature="0"
       sodipodi:nodetypes="ccccsscccccccccccccccscccccscccsccccccccscccccc" />
  </g>
</svg>
