<?xml version="1.0" encoding="UTF-8" standalone="no"?>
<!-- Created with Inkscape (http://www.inkscape.org/) -->

<svg
   xmlns:dc="http://purl.org/dc/elements/1.1/"
   xmlns:cc="http://creativecommons.org/ns#"
   xmlns:rdf="http://www.w3.org/1999/02/22-rdf-syntax-ns#"
   xmlns:svg="http://www.w3.org/2000/svg"
   xmlns="http://www.w3.org/2000/svg"
   xmlns:sodipodi="http://sodipodi.sourceforge.net/DTD/sodipodi-0.dtd"
   xmlns:inkscape="http://www.inkscape.org/namespaces/inkscape"
   width="1000"
   height="1000"
   id="svg3093"
   version="1.1"
   inkscape:version="0.48.2 r9819"
   sodipodi:docname="A.svg">
  <defs
     id="defs3095">
    <filter
       inkscape:collect="always"
       id="filter4175"
       color-interpolation-filters="sRGB">
      <feBlend
         inkscape:collect="always"
         mode="lighten"
         in2="BackgroundImage"
         id="feBlend4177" />
    </filter>
  </defs>
  <sodipodi:namedview
     id="base"
     pagecolor="#ffffff"
     bordercolor="#666666"
     borderopacity="1.0"
     inkscape:pageopacity="0.0"
     inkscape:pageshadow="2"
     inkscape:zoom="0.15722809"
     inkscape:cx="675.83612"
     inkscape:cy="445.00506"
     inkscape:document-units="px"
     inkscape:current-layer="layer1"
     showgrid="true"
     showborder="true"
     inkscape:showpageshadow="false"
     inkscape:window-width="1253"
     inkscape:window-height="765"
     inkscape:window-x="141"
     inkscape:window-y="29"
     inkscape:window-maximized="0"
     showguides="true"
     inkscape:guide-bbox="true">
    <sodipodi:guide
       orientation="0,1"
       position="114.53282,200.26098"
       id="guide3344" />
  </sodipodi:namedview>
  <metadata
     id="metadata3098">
    <rdf:RDF>
      <cc:Work
         rdf:about="">
        <dc:format>image/svg+xml</dc:format>
        <dc:type
           rdf:resource="http://purl.org/dc/dcmitype/StillImage" />
        <dc:title></dc:title>
      </cc:Work>
    </rdf:RDF>
  </metadata>
  <g
     inkscape:label="Layer 1"
     inkscape:groupmode="layer"
     id="layer1"
     transform="translate(0,-52.362183)">
    <path
       style="fill:#000000;display:inline;filter:url(#filter4175);enable-background:new"
       d="m 553.70667,82.671483 c -6.5913,0.13944 -13.3096,0.43737 -20.4024,1.18785 -28.3725,2.99116 -49.9553,5.30979 -69.1294,7.32925 -19.176,2.01947 -51.2046,7.688646 -95.6725,20.006327 -44.4688,12.31516 -47.9904,11.86068 -61.2062,-8.71549 -13.2184,-20.577417 -51.1312,-13.348967 -57.047,-5.150681 -13.1132,21.905991 -15.0268,45.432731 -28.9202,66.554631 -7.5264,9.42796 -9.5249,19.81364 -13.0727,71.11081 -2.2875,33.07639 -1.2112,36.11254 15.8465,47.53904 l 18.2233,12.28091 0.5957,85.57027 c 0.2981,47.06365 -0.1899,102.68434 -0.9906,123.60151 -1.9156,50.07192 3.2403,188.36616 9.5079,255.12616 2.5137,26.75116 2.2982,26.77208 -28.7214,41.0021 -23.18441,10.63797 -31.30221,18.08196 -31.89031,28.72183 -0.4373,7.86423 -1.2633,23.53181 -1.7831,34.86196 -1.0275,22.27299 24.14231,65.59375 40.60661,69.92235 5.2293,1.3716 20.9158,1.2829 34.862,-0.1965 13.9446,-1.4851 32.485,-3.4152 41.2004,-4.3577 8.7156,-0.9426 22.9772,-3.54835 31.6928,-5.74404 17.3784,-4.37928 46.8171,-10.2887 146.3803,-37.23891 99.5625,-26.95146 121.8014,-35.98768 146.9748,-43.57746 25.173,-7.59103 63.5053,-21.8236 104.1898,-42.1912 40.6839,-20.36826 57.0315,-31.18562 74.2794,-39.81427 41.7247,-20.86774 68.0943,-49.82788 78.1535,-83.89753 10.9353,-37.03354 0.4374,-135.25742 -36.9022,-160.57861 -37.8172,-25.64636 -56.4212,-45.08097 -157.4228,-57.42844 -20.5888,-2.51704 -53.1651,-0.43737 -38.9707,-9.44061 2.0025,-1.26962 18.0219,-10.66586 36.5899,-27.6861 44.3989,-37.74221 72.34,-95.46094 83.8887,-131.60519 13.1404,-41.12317 5.3213,-87.47374 -20.6002,-121.42232 -39.8592,-52.20293 -82.3536,-75.938867 -147.1726,-82.598777 -15.6879,-1.61442 -33.3168,-3.58253 -53.0852,-3.16926 z m 30.5037,112.904577 c 30.7058,0.17116 55.2131,6.49701 69.7119,20.99705 8.4359,8.43722 22.4651,34.29023 13.8781,58.43307 -15.8831,44.64804 -58.9134,95.31958 -102.8034,127.95927 -11.8297,8.79726 -26.8855,12.39058 -41.0028,16.63868 -47.0204,14.14824 -115.2195,31.61153 -144.3996,29.11796 -29.1799,-2.49675 -22.1625,-26.40001 -25.9486,-77.44934 -2.055,-28.11903 -3.1331,-68.12406 -2.1785,-88.93732 l 1.7829,-37.83345 31.6927,-11.88475 c 36.3009,-13.53976 108.2326,-28.68506 167.5746,-35.25813 10.8396,-1.20052 21.4597,-1.84071 31.6927,-1.78304 z m -5.5461,349.80876 c 108.6265,0.19647 172.4613,9.45837 189.4789,71.1748 0.9972,37.73396 -29.8976,52.49579 -70.2347,72.43239 -22.221,10.98215 -56.096,24.9865 -75.2701,31.09812 -19.176,6.11416 -43.419,14.67119 -53.8776,19.01561 -26.8125,11.13808 -114.6395,38.15674 -150.5403,46.3512 -16.6101,3.78916 -34.005,6.93247 -38.6259,6.93247 -9.9755,0 -21.6415,-61.3824 -25.9486,-136.47697 -3.2612,-56.88015 -13.8542,-79.37625 119.0461,-102.20893 33.2252,-5.7066 69.7639,-8.3859 105.9722,-8.31869 z"
       id="path4112"
       inkscape:connector-curvature="0"
       sodipodi:nodetypes="cccccccsccccccccccsccccccsssccsccccccsccccccccccccscsccc"
       transform="matrix(0.91119613,0,0,0.91119613,8.276422,9.102964)" />
  </g>
</svg>
