<?xml version="1.0" encoding="UTF-8" standalone="no"?>
<!-- Created with Inkscape (http://www.inkscape.org/) -->

<svg
   xmlns:dc="http://purl.org/dc/elements/1.1/"
   xmlns:cc="http://creativecommons.org/ns#"
   xmlns:rdf="http://www.w3.org/1999/02/22-rdf-syntax-ns#"
   xmlns:svg="http://www.w3.org/2000/svg"
   xmlns="http://www.w3.org/2000/svg"
   xmlns:sodipodi="http://sodipodi.sourceforge.net/DTD/sodipodi-0.dtd"
   xmlns:inkscape="http://www.inkscape.org/namespaces/inkscape"
   width="1000"
   height="1000"
   id="svg3093"
   version="1.1"
   inkscape:version="0.48.2 r9819"
   sodipodi:docname="C.svg">
  <defs
     id="defs3095">
    <filter
       inkscape:collect="always"
       id="filter4175-4"
       color-interpolation-filters="sRGB">
      <feBlend
         inkscape:collect="always"
         mode="lighten"
         in2="BackgroundImage"
         id="feBlend4177-4" />
    </filter>
    <filter
       inkscape:collect="always"
       id="filter4175"
       color-interpolation-filters="sRGB">
      <feBlend
         inkscape:collect="always"
         mode="lighten"
         in2="BackgroundImage"
         id="feBlend4177" />
    </filter>
  </defs>
  <sodipodi:namedview
     id="base"
     pagecolor="#ffffff"
     bordercolor="#666666"
     borderopacity="1.0"
     inkscape:pageopacity="0.0"
     inkscape:pageshadow="2"
     inkscape:zoom="0.55130618"
     inkscape:cx="254.40747"
     inkscape:cy="651.08778"
     inkscape:document-units="px"
     inkscape:current-layer="layer1"
     showgrid="true"
     showborder="true"
     inkscape:showpageshadow="false"
     inkscape:window-width="1253"
     inkscape:window-height="765"
     inkscape:window-x="141"
     inkscape:window-y="29"
     inkscape:window-maximized="0"
     showguides="true"
     inkscape:guide-bbox="true"
     inkscape:snap-global="false">
    <sodipodi:guide
       orientation="0,1"
       position="114.53282,200.26098"
       id="guide3344" />
  </sodipodi:namedview>
  <metadata
     id="metadata3098">
    <rdf:RDF>
      <cc:Work
         rdf:about="">
        <dc:format>image/svg+xml</dc:format>
        <dc:type
           rdf:resource="http://purl.org/dc/dcmitype/StillImage" />
        <dc:title></dc:title>
      </cc:Work>
    </rdf:RDF>
  </metadata>
  <g
     inkscape:label="Layer 1"
     inkscape:groupmode="layer"
     id="layer1"
     transform="translate(0,-52.362183)">
    <path
       style="fill:#000000;display:inline;filter:url(#filter4175);enable-background:new"
       d="m 353.125,43.5 c -3.43085,0.0077 -6.79861,0.02666 -10.03125,0.0625 -17.25164,0.188234 -31.01842,0.865648 -38.6875,2.03125 -16.22214,2.458624 -100.98567,18.606417 -157.6875,30.09375 -5.84248,1.183701 -10.88662,3.528256 -14.6875,7.6875 -3.80015,4.159244 -6.03166,9.614042 -7.46875,16.0625 -2.62369,11.77403 -4.04575,20.52669 0.90625,52.03125 4.89842,31.15704 6.24384,42.90459 4.0625,51.59375 -1.72234,6.86257 -2.47872,12.2081 -0.90625,17.40625 0.78624,2.59908 2.52171,5.24871 4.96875,6.8125 2.44704,1.56379 5.15588,2.03125 7.71875,2.03125 -0.34751,0 4.47248,1.16659 9.25,4.0625 4.7768,2.89663 10.32082,7.04912 15.15625,11.53125 7.91524,7.33389 11.63689,12.08084 14.9375,23.53125 3.30061,11.45041 5.624,29.72386 8.59375,61.09375 3.68142,38.89202 6.92938,103.45786 7.46875,143 2.12125,156.05456 12.37272,235.50424 48.65625,381.65625 6.37895,25.69609 13.36597,58.36717 15.375,71.71875 2.29935,15.27735 8.58015,32.25002 17.1875,41.1875 9.74979,10.12916 27.41323,14.40732 48.4375,14.6875 19.24112,0.26063 35.29117,-2.62872 62.21875,-16.71875 26.92685,-14.09075 65.42444,-39.30541 132.34375,-84.40625 50.8702,-34.28462 99.10691,-66.14289 149.3125,-104.28125 50.24035,-38.16586 80.63713,-67.0533 109.28125,-92.78125 72.21809,-64.87045 106.04414,-110.98724 133.9375,-183.6875 30.68574,-79.97984 37.07988,-147.94681 9.5,-207.03125 C 890.7337,223.35444 830.05187,186.28204 784.5,152.84375 747.30861,125.54332 703.38046,110.03899 656.90625,86.78125 654.75749,85.706145 650.21479,82.992472 640.625,79.3125 c -9.58907,-3.679972 -24.56515,-8.496173 -49.78125,-14.71875 -25.5332,-6.302939 -52.30972,-9.620786 -73.0625,-11.75 -10.37603,-1.06497 -19.18439,-1.915751 -25.59375,-2.5 -3.20432,-0.289591 -5.93259,-0.463067 -7.6875,-0.6875 -0.87819,-0.108597 -1.47948,-0.153592 -1.8125,-0.21875 -1.08018,-0.499543 -2.07018,-0.718016 -2.9375,-0.90625 -1.1504,-0.246152 -2.34729,-0.492026 -3.84375,-0.6875 -2.99219,-0.390947 -6.92676,-0.781835 -11.53125,-1.125 -9.20898,-0.687778 -21.39672,-1.315128 -35.0625,-1.8125 C 405.39612,44.035849 377.14094,43.445838 353.125,43.5 z m 69.6875,142.78125 c 1.84518,0.003 3.71001,0.005 5.59375,0.0312 30.14493,0.41991 65.16458,3.81806 103.84375,10.40625 31.60519,5.37987 73.0753,17.8111 109.5,30.5625 36.4247,12.7514 68.47938,26.25099 79.625,32.78125 a 6.4571264,6.4571264 0 0 0 0.46875,0.25 c 54.28954,23.90643 78.02823,58.73382 82.5625,81.875 4.99543,25.47528 3.11892,52.21982 -11.96875,84.625 C 777.34983,459.21769 748.77582,497.37375 700.78125,544 618.94658,623.49623 564.34482,664.47278 408.9375,762.09375 c -11.77765,7.39904 -23.21864,14.19871 -32.125,19.03125 -4.4539,2.41664 -8.30644,4.37626 -11.09375,5.65625 -1.28559,0.58769 -2.4048,0.9799 -3.15625,1.25 0.21559,0.15072 0.16928,0.0937 -0.21875,0.0937 0.057,-0.0204 0.15558,-0.071 0.21875,-0.0937 -0.18263,-0.12768 -0.54727,-0.39309 -1.125,-1.03125 -1.26044,-1.39293 -2.98856,-4.00535 -4.75,-7.6875 -3.52214,-7.36501 -7.22387,-18.62535 -10.65625,-32.59375 -6.86619,-27.93681 -12.84119,-66.65502 -15.59375,-108.15625 -4.02748,-60.71845 -7.30156,-172.13213 -8.8125,-268.09375 -0.75583,-47.98153 -0.94885,-92.22756 -0.6875,-124.1875 0.13032,-15.98033 0.47911,-28.78936 0.90625,-37.5625 0.16652,-3.46568 0.24203,-5.67847 0.4375,-7.6875 l 0.21875,0 c 2.51365,-0.25339 5.51925,-0.74152 8.84375,-1.375 6.649,-1.27275 14.68091,-3.25627 22.84375,-5.65625 17.63946,-5.18887 40.94732,-7.76331 68.625,-7.71875 z"
       id="path3258"
       inkscape:connector-curvature="0"
       transform="matrix(0.8221264,0,0,0.8221264,79.202806,52.242027)" />
  </g>
</svg>
