<?xml version="1.0" encoding="UTF-8" standalone="no"?>
<!-- Created with Inkscape (http://www.inkscape.org/) -->

<svg
   xmlns:dc="http://purl.org/dc/elements/1.1/"
   xmlns:cc="http://creativecommons.org/ns#"
   xmlns:rdf="http://www.w3.org/1999/02/22-rdf-syntax-ns#"
   xmlns:svg="http://www.w3.org/2000/svg"
   xmlns="http://www.w3.org/2000/svg"
   xmlns:sodipodi="http://sodipodi.sourceforge.net/DTD/sodipodi-0.dtd"
   xmlns:inkscape="http://www.inkscape.org/namespaces/inkscape"
   width="1000"
   height="1000"
   id="svg3093"
   version="1.1"
   inkscape:version="0.48.2 r9819"
   sodipodi:docname="E.svg">
  <defs
     id="defs3095">
    <filter
       inkscape:collect="always"
       id="filter4175-4"
       color-interpolation-filters="sRGB">
      <feBlend
         inkscape:collect="always"
         mode="lighten"
         in2="BackgroundImage"
         id="feBlend4177-6" />
    </filter>
    <filter
       inkscape:collect="always"
       id="filter4175"
       color-interpolation-filters="sRGB">
      <feBlend
         inkscape:collect="always"
         mode="lighten"
         in2="BackgroundImage"
         id="feBlend4177" />
    </filter>
  </defs>
  <sodipodi:namedview
     id="base"
     pagecolor="#ffffff"
     bordercolor="#666666"
     borderopacity="1.0"
     inkscape:pageopacity="0.0"
     inkscape:pageshadow="2"
     inkscape:zoom="0.55130618"
     inkscape:cx="254.40747"
     inkscape:cy="578.53282"
     inkscape:document-units="px"
     inkscape:current-layer="layer1"
     showgrid="true"
     showborder="true"
     inkscape:showpageshadow="false"
     inkscape:window-width="1253"
     inkscape:window-height="765"
     inkscape:window-x="141"
     inkscape:window-y="29"
     inkscape:window-maximized="0"
     showguides="true"
     inkscape:guide-bbox="true"
     inkscape:snap-global="false">
    <sodipodi:guide
       orientation="0,1"
       position="114.53282,200.26098"
       id="guide3344" />
  </sodipodi:namedview>
  <metadata
     id="metadata3098">
    <rdf:RDF>
      <cc:Work
         rdf:about="">
        <dc:format>image/svg+xml</dc:format>
        <dc:type
           rdf:resource="http://purl.org/dc/dcmitype/StillImage" />
        <dc:title></dc:title>
      </cc:Work>
    </rdf:RDF>
  </metadata>
  <g
     inkscape:label="Layer 1"
     inkscape:groupmode="layer"
     id="layer1"
     transform="translate(0,-52.362183)">
    <path
       style="fill:#000000;display:inline;filter:url(#filter4175);enable-background:new"
       d="m 647.64483,47.058649 c -44.2159,-0.62752 -96.0661,2.21406 -129.0655,8.898036 -28.8011,5.83273 -60.862,11.81631 -100.5985,16.69572 -39.7365,4.87939 -99.2641,22.19249 -142.3529,33.494725 -24.3598,6.71884 -21.603,3.47668 -40.5187,-11.558325 -28.6471,-22.76993 -45.7673,-16.05868 -55.652,21.919925 -3.4504,13.25643 -11.3526,19.8092 -27.234,23.00447 -32.2967,6.50144 -36.795,15.61499 -35.5225,69.66877 1.3207,56.12206 9.9954,73.85222 37.417,76.61264 34.8991,3.51028 36.4556,7.35273 32.6807,78.56557 -1.9566,36.91502 -3.954,75.65806 -4.2626,86.16228 -0.4175,14.21229 -0.5622,18.70504 -15.3931,19.09864 -39.4758,1.04905 -39.4199,32.13451 -35.2857,64.24174 5.0252,39.02956 15.337,79.65135 21.0767,79.65071 13.3674,0 26.7673,-10.89974 29.1285,3.90772 0.9981,6.25866 11.5078,77.96021 18.2348,124.79311 6.7272,46.83356 13.8208,96.63229 15.6301,110.68675 1.809,14.05443 10.2709,32.96227 18.9452,42.10437 11.8798,12.5218 21.5197,15.9712 38.6013,13.6729 29.542,-3.9737 82.2241,-33.44851 76.5723,-56.86179 -9.5107,-39.40036 -45.6517,-135.06602 -48.4506,-211.70212 l -1.142,-59.16898 8.0694,-4.10991 c 11.676,-2.36935 43.4797,-10.87188 70.5714,-18.88252 27.0917,-8.00809 54.373,-15.38171 60.6253,-16.49412 142.5309,-25.33831 144.7531,-25.82764 242.2639,-38.19795 66.7376,-8.46637 83.5961,-16.27989 83.5961,-39.28309 0,-13.20443 -29.4256,-36.15882 -60.3882,-58.59851 -30.9628,-22.44033 -197.98,-12.13704 -282.0492,7.59609 -78.0467,18.31964 -120.3419,29.63964 -126.8531,29.64472 -3.0662,0.002 0.88,-34.3739 1.8049,-75.43876 0.9248,-41.06487 6.6053,-86.34232 6.7219,-100.48549 0.2791,-33.66524 -4.6953,-38.36146 165.216,-74.65911 72.9399,-15.58266 68.60357,-21.14468 143.18397,-30.45029 10.4198,-2.93791 62.14763,-8.4189 98.62683,-5.7041 144.2239,28.18622 131.6138,-9.32462 126.6768,-53.48077 -4.7088,-42.117055 -80.0971,-45.206465 -100.388,-48.276845 -20.291,-3.071026 -46.271,-6.443756 -90.4865,-7.066206 z"
       id="path4118"
       inkscape:connector-curvature="0"
       sodipodi:nodetypes="ccsccccscscsscsssccscccccsscccscsccscc"
       transform="matrix(0.94565552,0,0,0.93013813,40.59059,19.913546)" />
  </g>
</svg>
