<?xml version="1.0" encoding="UTF-8" standalone="no"?>
<!-- Created with Inkscape (http://www.inkscape.org/) -->

<svg
   xmlns:dc="http://purl.org/dc/elements/1.1/"
   xmlns:cc="http://creativecommons.org/ns#"
   xmlns:rdf="http://www.w3.org/1999/02/22-rdf-syntax-ns#"
   xmlns:svg="http://www.w3.org/2000/svg"
   xmlns="http://www.w3.org/2000/svg"
   xmlns:sodipodi="http://sodipodi.sourceforge.net/DTD/sodipodi-0.dtd"
   xmlns:inkscape="http://www.inkscape.org/namespaces/inkscape"
   width="1000"
   height="1000"
   id="svg3093"
   version="1.1"
   inkscape:version="0.48.2 r9819"
   sodipodi:docname="G.svg">
  <defs
     id="defs3095">
    <filter
       inkscape:collect="always"
       id="filter4175-9"
       color-interpolation-filters="sRGB">
      <feBlend
         inkscape:collect="always"
         mode="lighten"
         in2="BackgroundImage"
         id="feBlend4177-8" />
    </filter>
    <filter
       inkscape:collect="always"
       id="filter4175"
       color-interpolation-filters="sRGB">
      <feBlend
         inkscape:collect="always"
         mode="lighten"
         in2="BackgroundImage"
         id="feBlend4177" />
    </filter>
  </defs>
  <sodipodi:namedview
     id="base"
     pagecolor="#ffffff"
     bordercolor="#666666"
     borderopacity="1.0"
     inkscape:pageopacity="0.0"
     inkscape:pageshadow="2"
     inkscape:zoom="0.55130618"
     inkscape:cx="254.40747"
     inkscape:cy="651.08778"
     inkscape:document-units="px"
     inkscape:current-layer="layer1"
     showgrid="true"
     showborder="true"
     inkscape:showpageshadow="false"
     inkscape:window-width="1253"
     inkscape:window-height="765"
     inkscape:window-x="141"
     inkscape:window-y="29"
     inkscape:window-maximized="0"
     showguides="true"
     inkscape:guide-bbox="true"
     inkscape:snap-global="false">
    <sodipodi:guide
       orientation="0,1"
       position="114.53282,200.26098"
       id="guide3344" />
  </sodipodi:namedview>
  <metadata
     id="metadata3098">
    <rdf:RDF>
      <cc:Work
         rdf:about="">
        <dc:format>image/svg+xml</dc:format>
        <dc:type
           rdf:resource="http://purl.org/dc/dcmitype/StillImage" />
        <dc:title></dc:title>
      </cc:Work>
    </rdf:RDF>
  </metadata>
  <g
     inkscape:label="Layer 1"
     inkscape:groupmode="layer"
     id="layer1"
     transform="translate(0,-52.362183)">
    <path
       style="fill:#000000;display:inline;filter:url(#filter4175);enable-background:new"
       d="m 629.17045,13.523118 c -10.7626,0.93989 -21.2823,5.93528 -29.1265,14.89011 -7.7599,8.85691 -12.288,20.47685 -14.7387,32.63657 -1.2922,6.407884 -5.2038,25.139264 -8.5975,41.204312 -2.9466,13.94694 -4.4021,26.73848 -2.9828,41.40732 1.39,14.37384 4.9686,29.65492 11.2293,52.83013 7.2271,26.7561 18.8185,82.97852 25.091,121.36763 5.2136,31.9075 8.9519,53.8562 11.5806,69.14908 -9.229,0.69775 -57.1471,12.01027 -89.3601,11.92798 -161.5188,31.48517 -103.1053,18.30001 -256.2956,47.47121 l -30.3123,-2.27147 -2.6763,-3.05936 c -0.4202,-13.85813 -2.2276,-110.25418 -3.8601,-183.8014 -0.8228,-37.06601 -2.1055,-72.47991 -3.6847,-100.15378 -0.7891,-13.82683 -1.7547,-25.79076 -2.6318,-35.08432 -0.8199,-8.68463 -0.9219,-15.1493 -3.6848,-23.049288 -1.8352,-5.24532 -3.5734,-9.81054 -5.9655,-14.07485 1.0207,1.81916 -4.2754,-6.99533 -9.475,-9.9953 5e-4,-0.0652 5e-4,-0.13687 0,-0.20218 -0.4988,-0.28714 -2.5772,-0.39173 -3.6846,-0.8159 -1.1928,-1.23045 -2.1705,-2.2872 -3.6847,-4.28327 -9.8998,-13.050034 -23.2952,-24.351464 -39.6541,-26.313564 -15.0015,-1.80153 -28.3928,7.96597 -37.1976,21.41811 -8.3689,12.785714 -14.6402,29.296544 -21.4063,51.402572 -2.697,8.81189 -3.2849,17.47953 -3.6845,26.92522 -0.4106,9.70608 -0.3175,20.49966 0.174,31.41202 0.9758,21.59496 2.7468,42.69912 8.2467,59.1545 -0.8937,-2.67426 -0.4621,-1.42492 -0.3512,-0.81598 0.1113,0.60724 0.3391,1.78267 0.526,3.05936 0.3747,2.55419 0.8476,6.12525 1.2285,10.19896 0.7865,8.41633 1.4286,19.72552 2.1054,32.84023 1.354,26.23976 2.4245,59.54086 2.9828,92.19835 0.5585,32.67307 0.668,64.85991 0.1759,88.73099 -0.2454,11.90517 -0.7322,21.9063 -1.2281,28.35335 -0.1227,1.57246 -0.049,1.97319 -0.1741,3.05939 -2.4819,3.97639 -4.3182,8.04814 -5.2639,11.42279 -1.8476,6.59062 -2.302,12.89537 -2.2809,18.76599 0.038,11.59516 1.8214,26.59164 11.756,38.14369 0.372,0.43101 -1.4094,-2.63569 -0.8775,-1.01956 0.2308,0.70105 1.1599,3.93205 1.9302,9.9946 1.5858,12.48611 3.3234,36.51968 6.1412,79.55233 1.9004,29.02499 5.0052,67.04988 6.6673,85.46668 1.5941,17.66033 3.8137,47.1547 5.0884,64.86519 1.6507,22.93247 6.261,46.40598 12.2822,66.497 5.8708,19.58719 11.8229,37.37939 25.4418,48.95489 6.0544,5.1481 14.5656,10.2551 24.74,9.1794 9.3504,-0.9889 16.3405,-5.8354 23.3363,-10.6069 5.0967,-3.4771 10.1491,-7.4692 14.7388,-11.4228 4.2862,-3.6931 8.5336,-7.1911 12.4576,-12.6473 3.8884,-5.4027 5.3056,-11.6434 5.9656,-14.4822 0.8812,-3.7858 1.5837,-7.89739 2.1054,-12.44299 0.9901,-8.62326 1.5851,-18.6818 1.7548,-29.37291 0.338,-21.28951 -0.6474,-44.72256 -3.8602,-63.23275 -0.2185,-1.26237 -1.3815,-12.28503 -2.4565,-25.08966 -1.0749,-12.80466 -2.1976,-28.52437 -2.9828,-43.44712 -1.6196,-30.79002 -4.1212,-67.91083 -5.6148,-84.24347 -0.5537,-6.0639 -0.2845,-9.16109 -0.1759,-11.01485 0.5343,-0.16287 1.4831,-1.04111 6.1411,-2.24411 5.9838,-1.54502 14.9299,-3.17225 26.67,-4.69116 36.1746,-4.68209 74.4006,-12.19236 131.0692,-26.31359 17.2996,-4.31194 44.2104,-8.73877 54.3926,-9.17873 15.1074,-0.65465 32.1735,-3.22709 60.4476,-10.49459 28.2742,-7.26689 54.5741,-14.55004 75.5338,-19.69486 11.6748,-2.86483 23.1268,-6.82172 32.8115,-10.81056 2.2571,-0.93074 4.3336,-1.92685 6.4918,-2.85634 1.328,8.26291 2.1133,11.01158 4.3865,29.5772 5.7399,46.87268 20.8709,115.15944 37.0221,175.8296 8.0721,30.32002 16.3389,58.65246 24.038,81.38778 7.6021,22.44939 13.0251,38.80484 22.8101,50.99402 9.6649,12.0409 20.09945,22.97679 34.74135,24.47739 15.2423,1.5626 27.3223,-8.9672 36.3199,-20.19359 10.8071,-13.4867 17.8441,-30.86828 18.9497,-50.79095 1.087,-19.5859 -2.4574,-40.8375 -8.7724,-68.74051 -5.6483,-24.9526 -18.103,-94.55008 -27.1969,-151.5564 -9.2056,-57.70794 -20.8069,-124.39365 -25.7928,-149.92394 -4.5282,-23.18764 -9.5002,-58.7628 -10.8783,-75.26843 -1.68835,-20.21704 -5.69065,-47.08806 -9.47465,-63.84499 -3.0584,-13.54091 -6.4811,-32.70385 -6.843,-36.10389 -1.2452,-11.68522 -5.7859,-34.41074 -10.879,-57.52261 -2.3598,-10.70809 -4.3995,-22.39457 -5.9652,-32.22798 -1.5517,-9.74462 -2.457,-20.01014 -2.457,-19.37831 0,-18.08848 -5.2955,-38.62409 -11.5803,-59.153788 -6.2455,-20.40044 -12.6144,-39.453024 -23.1603,-53.034414 -2.3028,-2.96473 -4.3491,-5.82435 -5.2642,-7.34326 l 0,-0.2022 c 0.065,0.0652 0.1077,0.15665 -0.7018,-1.63179 0.3868,0.85893 0.374,1.2989 0.5263,1.83608 l -0.3488,0.2022 c -0.1575,-0.63969 0,-1.44448 -0.1776,-2.04044 l -0.1778,0 c 0,-0.0652 0,-0.14383 0,-0.2022 0,-0.002 0.1778,0 0.1778,0 0,0 -0.1338,-0.32643 -0.1778,-0.40439 -1.1022,-3.15211 -2.7084,-5.86158 -4.2105,-7.75123 -1.9827,-2.49731 -4.2907,-4.52601 -5.7904,-5.50774 -2.5361,-1.65859 -5.3788,-2.84523 -7.8959,-3.67095 -5.0613,-1.65664 -10.1784,-2.38963 -15.4405,-2.85634 -1.8713,-0.16362 -5.0874,-0.56159 -9.1237,-0.20221 z m -428.8257,59.561734 0,0.40502 c -1.9657,0.85704 -4.5418,1.88052 -4.7373,2.03976 -0.3057,0.24784 0.8743,-1.45951 4.7373,-2.44769 z m 326.5319,475.678118 c -0.1136,0.13686 -0.7015,0.54194 -0.8772,0.61356 0.298,-0.18947 0.5896,-0.39806 0.8772,-0.61356 z m -8.773,1.8355 c 0.5197,0.14328 0.9209,0.30678 1.4039,0.41138 -0.065,-0.004 -1.4039,-0.2022 -1.4039,-0.2022 0,0 0,-0.20221 0,-0.20221 z"
       id="path4158"
       inkscape:connector-curvature="0"
       sodipodi:nodetypes="cccsccscccccssccccccsccsccccccssccccccscssscccccccsscssccccccccccssccccscssccccccccccccccccccccccccccccccccccccc"
       transform="matrix(0.86546239,0.03519999,-0.03519999,0.86546239,127.79084,44.185652)" />
  </g>
</svg>
