<?xml version="1.0" encoding="UTF-8" standalone="no"?>
<!-- Created with Inkscape (http://www.inkscape.org/) -->

<svg
   xmlns:dc="http://purl.org/dc/elements/1.1/"
   xmlns:cc="http://creativecommons.org/ns#"
   xmlns:rdf="http://www.w3.org/1999/02/22-rdf-syntax-ns#"
   xmlns:svg="http://www.w3.org/2000/svg"
   xmlns="http://www.w3.org/2000/svg"
   xmlns:sodipodi="http://sodipodi.sourceforge.net/DTD/sodipodi-0.dtd"
   xmlns:inkscape="http://www.inkscape.org/namespaces/inkscape"
   width="1000"
   height="1000"
   id="svg3093"
   version="1.1"
   inkscape:version="0.48.2 r9819"
   sodipodi:docname="H.svg">
  <defs
     id="defs3095">
    <filter
       inkscape:collect="always"
       id="filter4175"
       color-interpolation-filters="sRGB">
      <feBlend
         inkscape:collect="always"
         mode="lighten"
         in2="BackgroundImage"
         id="feBlend4177" />
    </filter>
    <filter
       inkscape:collect="always"
       id="filter4175-4"
       color-interpolation-filters="sRGB">
      <feBlend
         inkscape:collect="always"
         mode="lighten"
         in2="BackgroundImage"
         id="feBlend4177-4" />
    </filter>
  </defs>
  <sodipodi:namedview
     id="base"
     pagecolor="#ffffff"
     bordercolor="#666666"
     borderopacity="1.0"
     inkscape:pageopacity="0.0"
     inkscape:pageshadow="2"
     inkscape:zoom="0.55130618"
     inkscape:cx="254.40747"
     inkscape:cy="651.08778"
     inkscape:document-units="px"
     inkscape:current-layer="layer1"
     showgrid="true"
     showborder="true"
     inkscape:showpageshadow="false"
     inkscape:window-width="1253"
     inkscape:window-height="765"
     inkscape:window-x="141"
     inkscape:window-y="29"
     inkscape:window-maximized="0"
     showguides="true"
     inkscape:guide-bbox="true"
     inkscape:snap-global="false">
    <sodipodi:guide
       orientation="0,1"
       position="114.53282,200.26098"
       id="guide3344" />
  </sodipodi:namedview>
  <metadata
     id="metadata3098">
    <rdf:RDF>
      <cc:Work
         rdf:about="">
        <dc:format>image/svg+xml</dc:format>
        <dc:type
           rdf:resource="http://purl.org/dc/dcmitype/StillImage" />
        <dc:title></dc:title>
      </cc:Work>
    </rdf:RDF>
  </metadata>
  <g
     inkscape:label="Layer 1"
     inkscape:groupmode="layer"
     id="layer1"
     transform="translate(0,-52.362183)">
    <path
       style="fill:#000000;display:inline;filter:url(#filter4175-4);enable-background:new"
       d="m 682.62187,190.92823 c 52.1927,-7.05796 114.9817,-14.68387 143.131,-65.85996 -3.9553,-37.513992 -49.6029,-63.919092 -86.3835,-49.059012 -63.1431,5.19823 -126.5241,10.23483 -189.1038,19.40544 -96.1964,21.134572 -195.4946,18.029972 -292.8863,30.544132 -38.4133,3.8665 -77.2831,7.60815 -115.4324,0.0951 -54.428999,-3.08749 -47.060299,62.26221 -43.831399,98.44196 -12.0174,44.80205 27.509199,77.61478 66.430299,48.37699 41.3075,-18.14154 87.445,-14.1603 129.5413,-27.67848 31.817,1.3038 70.8021,-19.72365 96.1975,-12.54144 17.609,33.7058 12.9174,74.23949 20.7079,110.93011 12.6474,104.96937 21.4725,210.38942 34.6796,315.2846 7.1136,40.2865 3.7168,91.7174 -50.8974,79.32743 -77.1419,4.04907 -156.1255,18.21826 -232.2046,-1.35199 -46.6624,8.92594 -33.7672,67.93645 -35.3614,102.66593 -10.0759,55.2379 52.4411,50.6113 88.342,46.0806 74.6338,-3.3037 148.9233,-11.1603 223.0201,-20.31125 28.3803,4.49212 42.8385,64.74185 82.6116,31.36945 26.542,-26.144 41.303,-65.00301 86.1293,-64.16567 74.7498,-19.7338 155.185,-12.74935 227.622,-41.37548 37.8033,-11.53042 79.8302,-60.26554 33.015,-89.86526 -40.0584,-13.20188 -85.6629,2.27999 -128.0019,-1.00591 -61.5571,0.67824 -122.9429,8.66541 -184.4323,8.14122 -28.6744,-23.52866 -12.3382,-79.0669 -20.9629,-115.27265 -6.7137,-109.31063 -15.4876,-218.50403 -28.6496,-327.21756 -10.182,-51.75289 49.5102,-57.33081 86.0908,-62.02702 30.1403,-4.77737 60.3826,-8.88727 90.6291,-12.93443 z"
       id="path4074"
       inkscape:connector-curvature="0"
       transform="matrix(0.94335717,0,0,0.94335717,35.344586,12.187034)" />
  </g>
</svg>
