<?xml version="1.0" encoding="UTF-8" standalone="no"?>
<!-- Created with Inkscape (http://www.inkscape.org/) -->

<svg
   xmlns:dc="http://purl.org/dc/elements/1.1/"
   xmlns:cc="http://creativecommons.org/ns#"
   xmlns:rdf="http://www.w3.org/1999/02/22-rdf-syntax-ns#"
   xmlns:svg="http://www.w3.org/2000/svg"
   xmlns="http://www.w3.org/2000/svg"
   xmlns:sodipodi="http://sodipodi.sourceforge.net/DTD/sodipodi-0.dtd"
   xmlns:inkscape="http://www.inkscape.org/namespaces/inkscape"
   width="1000"
   height="1000"
   id="svg3093"
   version="1.1"
   inkscape:version="0.48.2 r9819"
   sodipodi:docname="I.svg">
  <defs
     id="defs3095">
    <filter
       inkscape:collect="always"
       id="filter4175-4"
       color-interpolation-filters="sRGB">
      <feBlend
         inkscape:collect="always"
         mode="lighten"
         in2="BackgroundImage"
         id="feBlend4177-4" />
    </filter>
    <filter
       inkscape:collect="always"
       id="filter4175"
       color-interpolation-filters="sRGB">
      <feBlend
         inkscape:collect="always"
         mode="lighten"
         in2="BackgroundImage"
         id="feBlend4177" />
    </filter>
  </defs>
  <sodipodi:namedview
     id="base"
     pagecolor="#ffffff"
     bordercolor="#666666"
     borderopacity="1.0"
     inkscape:pageopacity="0.0"
     inkscape:pageshadow="2"
     inkscape:zoom="0.55130618"
     inkscape:cx="254.40747"
     inkscape:cy="651.08778"
     inkscape:document-units="px"
     inkscape:current-layer="layer1"
     showgrid="true"
     showborder="true"
     inkscape:showpageshadow="false"
     inkscape:window-width="1253"
     inkscape:window-height="765"
     inkscape:window-x="141"
     inkscape:window-y="29"
     inkscape:window-maximized="0"
     showguides="true"
     inkscape:guide-bbox="true"
     inkscape:snap-global="false">
    <sodipodi:guide
       orientation="0,1"
       position="114.53282,200.26098"
       id="guide3344" />
  </sodipodi:namedview>
  <metadata
     id="metadata3098">
    <rdf:RDF>
      <cc:Work
         rdf:about="">
        <dc:format>image/svg+xml</dc:format>
        <dc:type
           rdf:resource="http://purl.org/dc/dcmitype/StillImage" />
        <dc:title></dc:title>
      </cc:Work>
    </rdf:RDF>
  </metadata>
  <g
     inkscape:label="Layer 1"
     inkscape:groupmode="layer"
     id="layer1"
     transform="translate(0,-52.362183)">
    <path
       style="fill:#000000;display:inline;filter:url(#filter4175);enable-background:new"
       d="m 796.448,-114.34186 c -4.833,-0.22096 -9.67636,0.30385 -14.67486,1.07865 l 0,-0.21406 c -101.32298,2.35409 -200.72091,21.717799 -299.74211,37.764129 -0.0654,-0.001 -0.14599,-0.001 -0.21375,0 -61.91897,12.64535 -125.86072,16.01524 -189.03735,26.11178 l 0,-0.21406 c -64.19069,2.64202 -128.31372,7.27081 -191.84388,3.23661 -8.630393,-8.53384 -19.887763,-12.49346 -31.074753,-13.81103 -12.36621,-1.45637 -24.79637,-0.75822 -34.74368,-2.15727 -1.47631,-0.29003 -3.06462,0 -4.31585,0.86318 -10.87476,7.89714 -23.4352204,12.01421 -32.3695604,19.85333 -4.46706,3.91888 -8.051236,9.64009 -8.200382,16.40058 -0.137706,6.35444 2.502572,13.1688 7.337212,21.3635703 -0.53862,18.9928897 3.75587,43.0309697 14.0263104,63.0127297 10.36054,20.15511 27.83539,36.26841 51.79223,35.17455 21.2584,9.405311 43.138433,8.145771 64.522763,4.96371 83.88757,-8.75756 168.72111,-11.96244 255.07204,-18.55855 15.05943,4.39604 20.74744,13.93116 25.033,28.053621 4.29852,14.1687 6.07378,32.17136 12.51644,49.41718 0.0784,0.22096 0.1303,0.42813 0.21244,0.6491 17.51102,75.799 21.49688,154.6861 42.51265,231.33447 0,0.13813 0,0.29693 0,0.42812 13.4185,74.43446 25.09553,161.57847 3.02136,224.21278 0,0.14491 0,0.29004 0,0.43505 -6.35671,19.98453 -13.45631,27.78982 -30.98422,31.4449 -17.52801,3.65441 -45.45578,2.35824 -62.88868,-3.39198 -0.13684,-0.0761 -0.28283,-0.15189 -0.4275,-0.21403 C 249.60773,594.90882 209.94029,569.42338 123.96185,495.23063 87.692827,450.19775 49.049467,418.07681 4.9069066,451.48287 c -15.8800106,21.64741 -17.4495776,48.11618 -10.35836,72.29235 7.04643,24.02494 22.4173404,46.14811 41.0014704,61.28634 0.11733,0.0966 0.0948,0.33838 0.21331,0.42816 l 0.21343,-0.21404 c 87.885523,81.91448 197.412913,138.07489 311.827143,171.55896 0.14598,0.069 0.28282,0.1657 0.42749,0.2141 54.51041,18.8838 116.37981,30.0852 174.14864,14.4587 0.0654,10e-4 0.14598,10e-4 0.21255,0 29.23108,-8.6035 46.09954,-30.81234 55.89193,-56.10721 9.79239,-25.29486 12.92444,-54.15643 15.75287,-78.11852 0.0784,-0.0691 0.14588,-0.13812 0.21375,-0.21406 9.88488,-156.49669 -21.93875,-311.14276 -45.10128,-463.96297 0,-0.29003 0,-0.57314 0,-0.86318 -6.74891,-22.85516 -9.61252,-50.86252 -6.47393,-70.1344 0,-0.12435 0,-0.31073 0,-0.42812 1.95893,-9.272721 4.01178,-20.019751 5.82614,-29.348411 1.64485,-8.45508 3.4005,-14.8565 4.53189,-17.91149 43.05617,-8.52899 84.31376,-25.09944 127.10411,-29.7793 l 0,0.21406 c 45.56516,-4.21374 90.91538,-15.4738597 134.44219,-8.84733 59.98204,28.56807 91.26988,-34.16361 61.50171,-71.86077 l 0.21375,0 c -0.19414,-0.40742 -0.66336,-0.66982 -0.86284,-1.07933 -14.7752,-29.78552 -44.36481,-55.835829 -79.19794,-57.401319 z"
       id="path4150"
       inkscape:connector-curvature="0"
       transform="matrix(0.87694237,0,0,0.87694237,119.40965,173.72883)" />
  </g>
</svg>
