<?xml version="1.0" encoding="UTF-8" standalone="no"?>
<!-- Created with Inkscape (http://www.inkscape.org/) -->

<svg
   xmlns:dc="http://purl.org/dc/elements/1.1/"
   xmlns:cc="http://creativecommons.org/ns#"
   xmlns:rdf="http://www.w3.org/1999/02/22-rdf-syntax-ns#"
   xmlns:svg="http://www.w3.org/2000/svg"
   xmlns="http://www.w3.org/2000/svg"
   xmlns:sodipodi="http://sodipodi.sourceforge.net/DTD/sodipodi-0.dtd"
   xmlns:inkscape="http://www.inkscape.org/namespaces/inkscape"
   width="1000"
   height="1000"
   id="svg3093"
   version="1.1"
   inkscape:version="0.48.2 r9819"
   sodipodi:docname="J.svg">
  <defs
     id="defs3095">
    <filter
       inkscape:collect="always"
       id="filter4175"
       color-interpolation-filters="sRGB">
      <feBlend
         inkscape:collect="always"
         mode="lighten"
         in2="BackgroundImage"
         id="feBlend4177" />
    </filter>
    <filter
       inkscape:collect="always"
       id="filter4175-0"
       color-interpolation-filters="sRGB">
      <feBlend
         inkscape:collect="always"
         mode="lighten"
         in2="BackgroundImage"
         id="feBlend4177-8" />
    </filter>
  </defs>
  <sodipodi:namedview
     id="base"
     pagecolor="#ffffff"
     bordercolor="#666666"
     borderopacity="1.0"
     inkscape:pageopacity="0.0"
     inkscape:pageshadow="2"
     inkscape:zoom="0.55130618"
     inkscape:cx="254.40747"
     inkscape:cy="651.08778"
     inkscape:document-units="px"
     inkscape:current-layer="layer1"
     showgrid="true"
     showborder="true"
     inkscape:showpageshadow="false"
     inkscape:window-width="1253"
     inkscape:window-height="765"
     inkscape:window-x="141"
     inkscape:window-y="29"
     inkscape:window-maximized="0"
     showguides="true"
     inkscape:guide-bbox="true"
     inkscape:snap-global="false">
    <sodipodi:guide
       orientation="0,1"
       position="114.53282,200.26098"
       id="guide3344" />
  </sodipodi:namedview>
  <metadata
     id="metadata3098">
    <rdf:RDF>
      <cc:Work
         rdf:about="">
        <dc:format>image/svg+xml</dc:format>
        <dc:type
           rdf:resource="http://purl.org/dc/dcmitype/StillImage" />
        <dc:title></dc:title>
      </cc:Work>
    </rdf:RDF>
  </metadata>
  <g
     inkscape:label="Layer 1"
     inkscape:groupmode="layer"
     id="layer1"
     transform="translate(0,-52.362183)">
    <path
       style="fill:#000000;display:inline;filter:url(#filter4175-0);enable-background:new"
       d="m 144.13051,51.327668 c -20.8074,21.81346 -7.798,66.135032 -10.4624,96.924502 9.8797,34.86386 13.8254,72.23524 15.3723,109.26244 4.8573,80.65031 6.8588,161.62198 10.4874,242.14425 -8.6653,41.97505 -11.6838,83.44687 -2.5231,124.91105 18.3763,52.45201 -0.1568,147.84447 16.3856,200.91325 8.9381,33.94989 29.98,42.43719 69.7847,54.45319 53.2508,13.2722 79.6692,-53.07517 49.7645,-91.1717 -13.4856,-42.18107 -15.8927,-86.53879 -20.9964,-130.05287 -5.69,-44.37734 59.3343,-17.60021 82.8049,-4.61888 61.1947,11.26039 112.0922,53.30836 174.335,60.91462 42.2728,9.63902 58.0997,21.54786 99.7791,32.99336 60.5391,9.69669 138.4113,62.81237 207.6014,27.73933 33.2438,-22.86372 12.0787,-55.55599 -13.8456,-76.54924 -46.5104,-37.78721 -109.5655,-36.6881 -164.0474,-55.77598 -87.1214,-25.47201 -175.1305,-50.42114 -257.5717,-88.80607 28.8255,-19.28374 67.7556,-42.03213 101.259,-61.36593 123.8574,-75.71639 240.4671,-162.28308 359.015,-245.83327 36.0493,-34.33395 -21.4714,-78.74493 -47.3574,-100.54887 -32.7712,-25.40931 -69.019,12.95407 -82.1421,41.81661 -30.3401,26.60095 -67.3573,45.30788 -99.0948,70.60879 -81.3585,62.19629 -172.4375,109.59271 -259.0959,163.77263 -35.1939,22.794 -71.1905,44.7222 -111.0012,58.49712 -0.7429,-109.32522 -5.3908,-218.69166 -13.0106,-327.73924 -0.3098,-49.11226 -44.6536,-80.617332 -85.2431,-98.410862 -6.4485,-2.34019 -13.2487,-4.38184 -20.1972,-4.07823 z"
       id="path4076"
       inkscape:connector-curvature="0"
       sodipodi:nodetypes="cccccccccccccccccccccccccc"
       transform="matrix(0.96939159,0,0,0.96939159,23.541417,29.527951)" />
  </g>
</svg>
