<?xml version="1.0" encoding="UTF-8" standalone="no"?>
<!-- Created with Inkscape (http://www.inkscape.org/) -->

<svg
   xmlns:dc="http://purl.org/dc/elements/1.1/"
   xmlns:cc="http://creativecommons.org/ns#"
   xmlns:rdf="http://www.w3.org/1999/02/22-rdf-syntax-ns#"
   xmlns:svg="http://www.w3.org/2000/svg"
   xmlns="http://www.w3.org/2000/svg"
   xmlns:sodipodi="http://sodipodi.sourceforge.net/DTD/sodipodi-0.dtd"
   xmlns:inkscape="http://www.inkscape.org/namespaces/inkscape"
   width="1000"
   height="1000"
   id="svg3093"
   version="1.1"
   inkscape:version="0.48.2 r9819"
   sodipodi:docname="K.svg">
  <defs
     id="defs3095">
    <filter
       inkscape:collect="always"
       id="filter4175-0"
       color-interpolation-filters="sRGB">
      <feBlend
         inkscape:collect="always"
         mode="lighten"
         in2="BackgroundImage"
         id="feBlend4177-8" />
    </filter>
    <filter
       inkscape:collect="always"
       id="filter4175"
       color-interpolation-filters="sRGB">
      <feBlend
         inkscape:collect="always"
         mode="lighten"
         in2="BackgroundImage"
         id="feBlend4177" />
    </filter>
  </defs>
  <sodipodi:namedview
     id="base"
     pagecolor="#ffffff"
     bordercolor="#666666"
     borderopacity="1.0"
     inkscape:pageopacity="0.0"
     inkscape:pageshadow="2"
     inkscape:zoom="0.55130618"
     inkscape:cx="254.40747"
     inkscape:cy="651.08778"
     inkscape:document-units="px"
     inkscape:current-layer="layer1"
     showgrid="true"
     showborder="true"
     inkscape:showpageshadow="false"
     inkscape:window-width="1253"
     inkscape:window-height="765"
     inkscape:window-x="141"
     inkscape:window-y="29"
     inkscape:window-maximized="0"
     showguides="true"
     inkscape:guide-bbox="true"
     inkscape:snap-global="false">
    <sodipodi:guide
       orientation="0,1"
       position="114.53282,200.26098"
       id="guide3344" />
  </sodipodi:namedview>
  <metadata
     id="metadata3098">
    <rdf:RDF>
      <cc:Work
         rdf:about="">
        <dc:format>image/svg+xml</dc:format>
        <dc:type
           rdf:resource="http://purl.org/dc/dcmitype/StillImage" />
        <dc:title></dc:title>
      </cc:Work>
    </rdf:RDF>
  </metadata>
  <g
     inkscape:label="Layer 1"
     inkscape:groupmode="layer"
     id="layer1"
     transform="translate(0,-52.362183)">
    <path
       style="fill:#000000;display:inline;filter:url(#filter4175);enable-background:new"
       d="m 210.26255,120.92536 c 1.1354,13.90737 -2.4119,29.81711 -0.6149,88.76805 1.7958,58.95031 -1.1174,135.96546 -6.482,201.98642 -5.3621,66.02096 -0.8446,148.04735 1.1031,177.91515 1.9465,29.86785 3.9696,65.78008 4.4362,79.80093 0.463,14.02086 1.493,32.69356 2.3939,41.50349 0.9009,8.8093 3.2482,34.73456 5.1373,57.60464 4.2495,51.45879 7.3613,65.9094 15.9178,72.53253 10.0471,7.77676 47.739,9.60287 48.2965,2.29708 0.6449,-8.43597 73.6335,-36.98221 99.92511,-39.05555 11.3895,-0.89817 41.153,-6.12871 66.0481,-11.6445 24.897,-5.51646 66.899,-12.38234 93.346,-15.32153 78.553,-8.73134 85.562,-9.62571 109.132,-13.91816 12.41,-2.25969 51.01,-6.46784 85.738,-9.34681 80.319,-6.65863 147.336,-22.68247 153.106,-54.44109 5.771,-31.75796 5.772,-32.34936 -9.207,-50.58786 -16.585,-20.19393 -24.079,-21.65815 -98.668,-19.05489 -22.787,0.79486 -52.905,1.86035 -66.919,2.2413 -43.612,1.18595 -75.293,4.13274 -112.066,10.714 -19.496,3.48939 -45.522,7.16828 -57.83,8.10004 -12.309,0.93303 -29.599,2.58484 -38.42,3.6231 -8.819,1.03762 -24.659,2.43843 -35.213,3.27132 -21.481,1.69491 -65.567,8.19193 -99.65061,14.64138 -44.1715,8.35865 -28.0694,19.72808 -30.1272,15.5307 -1.8819,-3.83735 -21.5085,-26.33219 -25.3405,-97.48859 -0.6843,-12.7183 -10.2924,-126.14519 -3.2433,-233.9935 11.9087,-182.233 0.317,-234.40806 -8.8269,-243.12292 -5.7773,-17.581201 -18.9231,-23.149611 -36.2287,-30.710201 -24.1058,-8.8486 -56.3566,27.277891 -55.7405,38.155471 z"
       id="path4066"
       inkscape:connector-curvature="0"
       sodipodi:nodetypes="cccscsccsccscsccccscscscssccc"
       transform="matrix(1.0153194,0,0,1.0153194,-49.176204,-3.2811124)" />
  </g>
</svg>
