<?xml version="1.0" encoding="UTF-8" standalone="no"?>
<!-- Created with Inkscape (http://www.inkscape.org/) -->

<svg
   xmlns:dc="http://purl.org/dc/elements/1.1/"
   xmlns:cc="http://creativecommons.org/ns#"
   xmlns:rdf="http://www.w3.org/1999/02/22-rdf-syntax-ns#"
   xmlns:svg="http://www.w3.org/2000/svg"
   xmlns="http://www.w3.org/2000/svg"
   xmlns:sodipodi="http://sodipodi.sourceforge.net/DTD/sodipodi-0.dtd"
   xmlns:inkscape="http://www.inkscape.org/namespaces/inkscape"
   width="1000"
   height="1000"
   id="svg3093"
   version="1.1"
   inkscape:version="0.48.2 r9819"
   sodipodi:docname="N.svg">
  <defs
     id="defs3095">
    <filter
       inkscape:collect="always"
       id="filter4175"
       color-interpolation-filters="sRGB">
      <feBlend
         inkscape:collect="always"
         mode="lighten"
         in2="BackgroundImage"
         id="feBlend4177" />
    </filter>
    <filter
       inkscape:collect="always"
       id="filter4175-6"
       color-interpolation-filters="sRGB">
      <feBlend
         inkscape:collect="always"
         mode="lighten"
         in2="BackgroundImage"
         id="feBlend4177-8" />
    </filter>
  </defs>
  <sodipodi:namedview
     id="base"
     pagecolor="#ffffff"
     bordercolor="#666666"
     borderopacity="1.0"
     inkscape:pageopacity="0.0"
     inkscape:pageshadow="2"
     inkscape:zoom="0.55130618"
     inkscape:cx="254.40747"
     inkscape:cy="651.08778"
     inkscape:document-units="px"
     inkscape:current-layer="layer1"
     showgrid="true"
     showborder="true"
     inkscape:showpageshadow="false"
     inkscape:window-width="1253"
     inkscape:window-height="765"
     inkscape:window-x="141"
     inkscape:window-y="29"
     inkscape:window-maximized="0"
     showguides="true"
     inkscape:guide-bbox="true"
     inkscape:snap-global="false">
    <sodipodi:guide
       orientation="0,1"
       position="114.53282,200.26098"
       id="guide3344" />
  </sodipodi:namedview>
  <metadata
     id="metadata3098">
    <rdf:RDF>
      <cc:Work
         rdf:about="">
        <dc:format>image/svg+xml</dc:format>
        <dc:type
           rdf:resource="http://purl.org/dc/dcmitype/StillImage" />
        <dc:title></dc:title>
      </cc:Work>
    </rdf:RDF>
  </metadata>
  <g
     inkscape:label="Layer 1"
     inkscape:groupmode="layer"
     id="layer1"
     transform="translate(0,-52.362183)">
    <path
       style="fill:#000000;display:inline;filter:url(#filter4175-6);enable-background:new"
       d="m 519.9134,36.097048 c -34.428,3.21617 -55.321,3.96983 -88.148,11.17105 -65.488,27.13464 -123.171,73.759022 -161.644,133.559982 -44.88,63.22057 -82.052,131.93035 -112.546,203.08678 -28.074,89.10654 -29,184.39758 -24.756,276.91362 11.508,37.82523 17.997,79.38893 41.807,113.51497 21.23,35.99022 55.879,62.76235 91.413,83.56035 27.718,2.7294 48.604,22.1589 81.034,16.0638 46.746,-4.4015 96.858,0.5958 139.738,-21.5092 63.88,-23.2118 123.348,-58.33615 179.976,-95.6803 44.328,-39.08025 87.9,-81.33231 118.482,-132.32904 49.735,-100.99444 55.254,-333.00271 -12.172,-403.39092 -31.034,-66.63009 -126.63,-173.856612 -198.549,-181.112332 -14.917,-1.8686 -39.618,-4.25822 -54.635,-3.84876 z m 2.553,174.187482 c 41.92,-1.62583 85.69,1.80457 117.659,31.10005 65.963,43.69089 74.254,241.38359 47.127,282.30013 -32.901,46.07165 -54.794,94.63056 -100.426,128.55186 -31.629,14.32639 -60.214,36.35661 -93.363,48.796 -63.268,30.60877 -136.734,38.01156 -205.605,26.49698 -43.908,-7.65378 -59.639,-58.81024 -56.582,-98.45654 -8.871,-106.44304 40.054,-205.92577 89.964,-296.48321 23.634,-32.63143 46.294,-69.63837 79.815,-92.33287 38.572,-15.08381 79.541,-29.3284 121.411,-29.9724 z"
       id="path4072"
       inkscape:connector-curvature="0"
       sodipodi:nodetypes="cccccccccccccccccccccccc"
       transform="matrix(0.92614171,0,0,0.92614171,39.022321,45.439844)" />
  </g>
</svg>
