<?xml version="1.0" encoding="UTF-8" standalone="no"?>
<!-- Created with Inkscape (http://www.inkscape.org/) -->

<svg
   xmlns:dc="http://purl.org/dc/elements/1.1/"
   xmlns:cc="http://creativecommons.org/ns#"
   xmlns:rdf="http://www.w3.org/1999/02/22-rdf-syntax-ns#"
   xmlns:svg="http://www.w3.org/2000/svg"
   xmlns="http://www.w3.org/2000/svg"
   xmlns:sodipodi="http://sodipodi.sourceforge.net/DTD/sodipodi-0.dtd"
   xmlns:inkscape="http://www.inkscape.org/namespaces/inkscape"
   width="1000"
   height="1000"
   id="svg3093"
   version="1.1"
   inkscape:version="0.48.2 r9819"
   sodipodi:docname="N.svg">
  <defs
     id="defs3095">
    <filter
       inkscape:collect="always"
       id="filter4175"
       color-interpolation-filters="sRGB">
      <feBlend
         inkscape:collect="always"
         mode="lighten"
         in2="BackgroundImage"
         id="feBlend4177" />
    </filter>
    <filter
       inkscape:collect="always"
       id="filter4175-3"
       color-interpolation-filters="sRGB">
      <feBlend
         inkscape:collect="always"
         mode="lighten"
         in2="BackgroundImage"
         id="feBlend4177-0" />
    </filter>
  </defs>
  <sodipodi:namedview
     id="base"
     pagecolor="#ffffff"
     bordercolor="#666666"
     borderopacity="1.0"
     inkscape:pageopacity="0.0"
     inkscape:pageshadow="2"
     inkscape:zoom="0.55130618"
     inkscape:cx="254.40747"
     inkscape:cy="651.08778"
     inkscape:document-units="px"
     inkscape:current-layer="layer1"
     showgrid="true"
     showborder="true"
     inkscape:showpageshadow="false"
     inkscape:window-width="1253"
     inkscape:window-height="765"
     inkscape:window-x="141"
     inkscape:window-y="29"
     inkscape:window-maximized="0"
     showguides="true"
     inkscape:guide-bbox="true"
     inkscape:snap-global="false">
    <sodipodi:guide
       orientation="0,1"
       position="114.53282,200.26098"
       id="guide3344" />
  </sodipodi:namedview>
  <metadata
     id="metadata3098">
    <rdf:RDF>
      <cc:Work
         rdf:about="">
        <dc:format>image/svg+xml</dc:format>
        <dc:type
           rdf:resource="http://purl.org/dc/dcmitype/StillImage" />
        <dc:title></dc:title>
      </cc:Work>
    </rdf:RDF>
  </metadata>
  <g
     inkscape:label="Layer 1"
     inkscape:groupmode="layer"
     id="layer1"
     transform="translate(0,-52.362183)">
    <path
       style="fill:#000000;display:inline;filter:url(#filter4175-3);enable-background:new"
       d="m 479.92394,49.628162 c -72.786,1.85528 -146.501,14.95893 -211.704,48.46697 -33.832,7.295668 -54.408,36.120798 -83.23599,52.157308 -38.479,16.39653 -10.926,62.66533 -8.667,92.81142 8.174,27.61701 22.785,61.10479 52.58999,71.19825 23.29,1.71776 17.996,59.46439 22.959,69.51857 5.655,39.68496 2.755,74.12225 10.493,113.83826 5.681,48.61658 18.501,83.29983 22.996,132.1636 7.47,47.43697 21.374,103.94885 27.66,148.8726 6.446,21.65879 -0.06,0.34229 7.755,31.88792 1.082,30.35907 35.223,86.45197 70.309,64.31527 37.586,-17.3936 55.928,-34.96974 46.715,-68.62229 -7.671,-49.41017 -43.173,-122.80475 -43.975,-172.79996 27.817,-7.28236 59.061,-14.04937 86.682,-26.29225 74.927,-26.99141 136.112,-80.43289 196.981,-130.02181 74.02704,-62.72937 124.95704,-166.50391 96.86404,-263.82709 -13.056,-44.19484 -49.59404,-76.07327 -81.61104,-107.04842 -67.623,-28.606458 -137.578,-59.577188 -212.811,-56.618348 z m 25.354,126.770748 c 60.476,-2.86693 109.692,12.40451 159.447,47.78498 26.304,35.54587 1.9,75.17761 -19.167,103.27572 -42.308,50.55427 -90.325,97.09563 -148.666,128.82572 -31.407,19.55567 -65.818,33.85857 -100.093,46.76067 -42.572,16.85671 -29.617,-42.96388 -37.651,-67.22529 -9.861,-69.9407 -15.758,-140.86324 -14.277,-211.49039 8.141,-43.50013 68.295,-35.3494 101.332,-44.2335 19.624,-2.09806 39.343,-3.33218 59.075,-3.69791 z"
       id="path4084"
       inkscape:connector-curvature="0"
       sodipodi:nodetypes="ccccccccccccccccccccccccccc"
       transform="matrix(1.0269254,0,0,1,-4.5846417,14.510993)" />
  </g>
</svg>
