<?xml version="1.0" encoding="UTF-8" standalone="no"?>
<!-- Created with Inkscape (http://www.inkscape.org/) -->

<svg
   xmlns:dc="http://purl.org/dc/elements/1.1/"
   xmlns:cc="http://creativecommons.org/ns#"
   xmlns:rdf="http://www.w3.org/1999/02/22-rdf-syntax-ns#"
   xmlns:svg="http://www.w3.org/2000/svg"
   xmlns="http://www.w3.org/2000/svg"
   xmlns:sodipodi="http://sodipodi.sourceforge.net/DTD/sodipodi-0.dtd"
   xmlns:inkscape="http://www.inkscape.org/namespaces/inkscape"
   width="1000"
   height="1000"
   id="svg3093"
   version="1.1"
   inkscape:version="0.48.2 r9819"
   sodipodi:docname="S.svg">
  <defs
     id="defs3095">
    <filter
       inkscape:collect="always"
       id="filter4175"
       color-interpolation-filters="sRGB">
      <feBlend
         inkscape:collect="always"
         mode="lighten"
         in2="BackgroundImage"
         id="feBlend4177" />
    </filter>
    <filter
       inkscape:collect="always"
       id="filter4175-6"
       color-interpolation-filters="sRGB">
      <feBlend
         inkscape:collect="always"
         mode="lighten"
         in2="BackgroundImage"
         id="feBlend4177-7" />
    </filter>
  </defs>
  <sodipodi:namedview
     id="base"
     pagecolor="#ffffff"
     bordercolor="#666666"
     borderopacity="1.0"
     inkscape:pageopacity="0.0"
     inkscape:pageshadow="2"
     inkscape:zoom="0.55130618"
     inkscape:cx="254.40747"
     inkscape:cy="651.08778"
     inkscape:document-units="px"
     inkscape:current-layer="layer1"
     showgrid="true"
     showborder="true"
     inkscape:showpageshadow="false"
     inkscape:window-width="1253"
     inkscape:window-height="765"
     inkscape:window-x="141"
     inkscape:window-y="29"
     inkscape:window-maximized="0"
     showguides="true"
     inkscape:guide-bbox="true"
     inkscape:snap-global="false">
    <sodipodi:guide
       orientation="0,1"
       position="114.53282,200.26098"
       id="guide3344" />
  </sodipodi:namedview>
  <metadata
     id="metadata3098">
    <rdf:RDF>
      <cc:Work
         rdf:about="">
        <dc:format>image/svg+xml</dc:format>
        <dc:type
           rdf:resource="http://purl.org/dc/dcmitype/StillImage" />
        <dc:title></dc:title>
      </cc:Work>
    </rdf:RDF>
  </metadata>
  <g
     inkscape:label="Layer 1"
     inkscape:groupmode="layer"
     id="layer1"
     transform="translate(0,-52.362183)">
    <path
       style="fill:#000000;display:inline;filter:url(#filter4175-6);enable-background:new"
       d="m 682.7317,44.741534 c -172.315,13.297 -345.342,14.48103 -517.573,28.96965 -39.767,-5.67108 -101.194999,3.88299 -92.854999,57.765646 0.707,39.66215 12.69,83.52545 60.053999,84.37165 32.195,-2.65014 67.494,-19.6165 104.013,-19.92456 48.968,-5.30473 98.681,-15.09207 147.927,-8.18432 21.638,19.84089 17.689,68.25972 24.628,100.81192 12.526,133.42368 11.895,267.66382 24.949,401.06151 7.185,70.77106 4.611,148.49734 48.264,208.73502 20.167,33.4897 99.014,21.0104 94.279,-23.33531 -0.97,-40.95837 -17.546,-111.81054 -21.089,-159.96315 -11.106,-164.02488 -24.202,-282.79198 -34.485,-446.83211 -0.24,-31.13235 -8.758,-89.3157 13.534,-95.84187 65.542,-8.91263 185.989,7.1429 250.81605,-7.07126 59.24,-5.10064 81.86,-70.441456 38.666,-107.246186 -30.739,-26.80692 -95.38205,-23.33658 -141.12805,-13.31663 z"
       id="path4102"
       inkscape:connector-curvature="0"
       sodipodi:nodetypes="cccccccccccccccc"
       transform="matrix(0.91927413,0,0,0.91927413,61.192226,34.000947)" />
  </g>
</svg>
