<?xml version="1.0" encoding="UTF-8" standalone="no"?>
<!-- Created with Inkscape (http://www.inkscape.org/) -->

<svg
   xmlns:dc="http://purl.org/dc/elements/1.1/"
   xmlns:cc="http://creativecommons.org/ns#"
   xmlns:rdf="http://www.w3.org/1999/02/22-rdf-syntax-ns#"
   xmlns:svg="http://www.w3.org/2000/svg"
   xmlns="http://www.w3.org/2000/svg"
   xmlns:sodipodi="http://sodipodi.sourceforge.net/DTD/sodipodi-0.dtd"
   xmlns:inkscape="http://www.inkscape.org/namespaces/inkscape"
   width="1000"
   height="1000"
   id="svg3093"
   version="1.1"
   inkscape:version="0.48.2 r9819"
   sodipodi:docname="T.svg">
  <defs
     id="defs3095">
    <filter
       inkscape:collect="always"
       id="filter4175-6"
       color-interpolation-filters="sRGB">
      <feBlend
         inkscape:collect="always"
         mode="lighten"
         in2="BackgroundImage"
         id="feBlend4177-7" />
    </filter>
    <filter
       inkscape:collect="always"
       id="filter4175"
       color-interpolation-filters="sRGB">
      <feBlend
         inkscape:collect="always"
         mode="lighten"
         in2="BackgroundImage"
         id="feBlend4177" />
    </filter>
  </defs>
  <sodipodi:namedview
     id="base"
     pagecolor="#ffffff"
     bordercolor="#666666"
     borderopacity="1.0"
     inkscape:pageopacity="0.0"
     inkscape:pageshadow="2"
     inkscape:zoom="0.55130618"
     inkscape:cx="254.40747"
     inkscape:cy="651.08778"
     inkscape:document-units="px"
     inkscape:current-layer="layer1"
     showgrid="true"
     showborder="true"
     inkscape:showpageshadow="false"
     inkscape:window-width="1253"
     inkscape:window-height="765"
     inkscape:window-x="141"
     inkscape:window-y="29"
     inkscape:window-maximized="0"
     showguides="true"
     inkscape:guide-bbox="true"
     inkscape:snap-global="false">
    <sodipodi:guide
       orientation="0,1"
       position="114.53282,200.26098"
       id="guide3344" />
  </sodipodi:namedview>
  <metadata
     id="metadata3098">
    <rdf:RDF>
      <cc:Work
         rdf:about="">
        <dc:format>image/svg+xml</dc:format>
        <dc:type
           rdf:resource="http://purl.org/dc/dcmitype/StillImage" />
        <dc:title></dc:title>
      </cc:Work>
    </rdf:RDF>
  </metadata>
  <g
     inkscape:label="Layer 1"
     inkscape:groupmode="layer"
     id="layer1"
     transform="translate(0,-52.362183)">
    <path
       style="fill:#000000;display:inline;filter:url(#filter4175);enable-background:new"
       d="m 184.17111,27.14642 c -47.607,17.31499 -45.028,78.4185 -33.076,118.62132 15.559,81.82356 21.519,164.92433 30.456,247.56556 8.804,57.1527 24.399,112.98192 37.463,169.1192 21.179,54.9792 42.952,110.53141 76.187,159.48585 40.892,65.24451 101.462,123.20281 176.401,145.96578 87.47,22.2615 185.155,-28.34337 222.202,-109.81647 29.658,-48.98232 46.2,-104.24803 62.177,-158.78989 10.358,-46.3797 20.546,-93.05352 31.029,-139.22472 6.676,-97.00626 9.603,-195.4856 -7.918,-291.562 -5.671,-33.88519 -29.32,-53.04407 -59.856,-61.8914 -38.838,-37.44555 -82.096,10.15434 -72.545,53.1005 -13.93,42.55122 19.147,58.60992 16.954,94.815 -4.568,96.44467 11.258,194.84668 -22.109,286.50385 -13.28,57.63062 -39.28,111.5456 -70.326,161.59407 -43.762,37.5907 -118.604,39.19306 -157.33,-6.63772 -48.193,-44.85403 -66.914,-109.49129 -83.452,-170.96622 -27.531,-85.71288 -32.892,-176.40344 -41.01,-265.50934 -4.573,-49.63456 -5.554,-99.7927 -13.171,-149.02538 -16.485,-35.73986 -53.377,-74.12478 -92.076,-83.34799 z"
       id="path4088"
       inkscape:connector-curvature="0"
       sodipodi:nodetypes="cccccccccccccccccccc"
       transform="matrix(0.94379472,-0.0223123,0.0223123,0.94379472,23.514399,53.256178)" />
  </g>
</svg>
