<?xml version="1.0" encoding="UTF-8" standalone="no"?>
<!-- Created with Inkscape (http://www.inkscape.org/) -->

<svg
   xmlns:dc="http://purl.org/dc/elements/1.1/"
   xmlns:cc="http://creativecommons.org/ns#"
   xmlns:rdf="http://www.w3.org/1999/02/22-rdf-syntax-ns#"
   xmlns:svg="http://www.w3.org/2000/svg"
   xmlns="http://www.w3.org/2000/svg"
   xmlns:sodipodi="http://sodipodi.sourceforge.net/DTD/sodipodi-0.dtd"
   xmlns:inkscape="http://www.inkscape.org/namespaces/inkscape"
   width="1000"
   height="1000"
   id="svg3093"
   version="1.1"
   inkscape:version="0.48.2 r9819"
   sodipodi:docname="U.svg">
  <defs
     id="defs3095">
    <filter
       inkscape:collect="always"
       id="filter4175"
       color-interpolation-filters="sRGB">
      <feBlend
         inkscape:collect="always"
         mode="lighten"
         in2="BackgroundImage"
         id="feBlend4177" />
    </filter>
    <filter
       inkscape:collect="always"
       id="filter4175-6"
       color-interpolation-filters="sRGB">
      <feBlend
         inkscape:collect="always"
         mode="lighten"
         in2="BackgroundImage"
         id="feBlend4177-3" />
    </filter>
  </defs>
  <sodipodi:namedview
     id="base"
     pagecolor="#ffffff"
     bordercolor="#666666"
     borderopacity="1.0"
     inkscape:pageopacity="0.0"
     inkscape:pageshadow="2"
     inkscape:zoom="0.55130618"
     inkscape:cx="254.40747"
     inkscape:cy="651.08778"
     inkscape:document-units="px"
     inkscape:current-layer="layer1"
     showgrid="true"
     showborder="true"
     inkscape:showpageshadow="false"
     inkscape:window-width="1253"
     inkscape:window-height="765"
     inkscape:window-x="141"
     inkscape:window-y="29"
     inkscape:window-maximized="0"
     showguides="true"
     inkscape:guide-bbox="true"
     inkscape:snap-global="false">
    <sodipodi:guide
       orientation="0,1"
       position="114.53282,200.26098"
       id="guide3344" />
  </sodipodi:namedview>
  <metadata
     id="metadata3098">
    <rdf:RDF>
      <cc:Work
         rdf:about="">
        <dc:format>image/svg+xml</dc:format>
        <dc:type
           rdf:resource="http://purl.org/dc/dcmitype/StillImage" />
        <dc:title></dc:title>
      </cc:Work>
    </rdf:RDF>
  </metadata>
  <g
     inkscape:label="Layer 1"
     inkscape:groupmode="layer"
     id="layer1"
     transform="translate(0,-52.362183)">
    <path
       style="fill:#000000;display:inline;filter:url(#filter4175-6);enable-background:new"
       d="m 775.65846,11.022598 c -37.382,13.13788 -51.101,57.31369 -68.19,89.680812 -19.874,38.33168 -33.119,76.92452 -50.748,119.20381 -18.082,64.41225 -48.645,124.53074 -74.745,185.98668 -32.1,51.10827 -42.373,112.13698 -73.176,163.88229 -11.109,38.22581 -16.722,47.37803 -42.582,42.53032 -14.027,-38.33423 -29.366,-46.55784 -41.159,-84.89141 -25.978,-52.42857 -40.385,-109.88553 -67.322,-162.04728 -18.736,-32.24476 -19.838,-68.52403 -40.675,-98.90276 -19.716,-38.10791 -20.04,-85.36236 -49.872,-116.39078 -20.678,-14.12796 -42.5,-18.66635 -69.792,-26.96604 -44.989,-4.06301 -53.618,55.34685 -40.893,87.25823 18.588,36.05234 48.471,63.92352 63.536,102.84216 24.674,46.50143 42.292,96.18858 58.701,145.92583 31.063,70.42306 56.278,142.31857 85.705,214.26542 17.283,44.45152 13.498,45.73256 44.356,113.12386 25.788,30.7945 52.716,109.17685 84.066,93.44655 49.271,-4.8382 68.108,-65.86755 79.144,-101.44133 9.492,-36.99551 16.652,-62.51067 28.558,-99.19939 16.757,-36.62217 33.258,-73.34005 44.753,-111.90182 29.7,-61.33548 44.129,-128.31735 72.063,-190.35139 33.642,-88.44479 67.514,-179.15498 128.131,-253.27723 23.279,-33.940322 -7.383,-79.670362 -36.953,-99.956852 -9.784,-6.54201 -20.848,-12.53952 -32.906,-12.81968 z"
       id="path4100"
       inkscape:connector-curvature="0"
       sodipodi:nodetypes="cccccccccccccccccccccccc"
       transform="matrix(0.89100946,0,0,0.89100946,57.918707,65.564997)" />
  </g>
</svg>
