<?xml version="1.0" encoding="UTF-8" standalone="no"?>
<!-- Created with Inkscape (http://www.inkscape.org/) -->

<svg
   xmlns:dc="http://purl.org/dc/elements/1.1/"
   xmlns:cc="http://creativecommons.org/ns#"
   xmlns:rdf="http://www.w3.org/1999/02/22-rdf-syntax-ns#"
   xmlns:svg="http://www.w3.org/2000/svg"
   xmlns="http://www.w3.org/2000/svg"
   xmlns:sodipodi="http://sodipodi.sourceforge.net/DTD/sodipodi-0.dtd"
   xmlns:inkscape="http://www.inkscape.org/namespaces/inkscape"
   width="1000"
   height="1000"
   id="svg3093"
   version="1.1"
   inkscape:version="0.48.2 r9819"
   sodipodi:docname="X.svg">
  <defs
     id="defs3095">
    <filter
       inkscape:collect="always"
       id="filter4175-6"
       color-interpolation-filters="sRGB">
      <feBlend
         inkscape:collect="always"
         mode="lighten"
         in2="BackgroundImage"
         id="feBlend4177-2" />
    </filter>
    <filter
       inkscape:collect="always"
       id="filter4175"
       color-interpolation-filters="sRGB">
      <feBlend
         inkscape:collect="always"
         mode="lighten"
         in2="BackgroundImage"
         id="feBlend4177" />
    </filter>
  </defs>
  <sodipodi:namedview
     id="base"
     pagecolor="#ffffff"
     bordercolor="#666666"
     borderopacity="1.0"
     inkscape:pageopacity="0.0"
     inkscape:pageshadow="2"
     inkscape:zoom="0.55130618"
     inkscape:cx="254.40747"
     inkscape:cy="651.08778"
     inkscape:document-units="px"
     inkscape:current-layer="layer1"
     showgrid="true"
     showborder="true"
     inkscape:showpageshadow="false"
     inkscape:window-width="1253"
     inkscape:window-height="765"
     inkscape:window-x="141"
     inkscape:window-y="29"
     inkscape:window-maximized="0"
     showguides="true"
     inkscape:guide-bbox="true"
     inkscape:snap-global="false">
    <sodipodi:guide
       orientation="0,1"
       position="114.53282,200.26098"
       id="guide3344" />
  </sodipodi:namedview>
  <metadata
     id="metadata3098">
    <rdf:RDF>
      <cc:Work
         rdf:about="">
        <dc:format>image/svg+xml</dc:format>
        <dc:type
           rdf:resource="http://purl.org/dc/dcmitype/StillImage" />
        <dc:title></dc:title>
      </cc:Work>
    </rdf:RDF>
  </metadata>
  <g
     inkscape:label="Layer 1"
     inkscape:groupmode="layer"
     id="layer1"
     transform="translate(0,-52.362183)">
    <path
       style="fill:#000000;display:inline;filter:url(#filter4175);enable-background:new"
       d="m 233.86457,15.247329 c -82.094,32.58959 -56.19,192.913421 -48.641,256.063001 -4.639,65.75095 20.048,127.62142 50.407,184.88187 22.593,46.11984 48.097,65.96898 96.53,81.59665 59.281,6.57369 182.092,-0.30425 236.294,-26.38987 54.788,-29.90714 68.243,-55.499 109.91,-100.79737 23.815,28.09434 12.274,78.65305 19.245,122.6964 -4.035,55.95595 33.015,143.91901 -38.334,183.58053 -101.213,14.43855 -163.799,-23.625 -251.204,-69.58258 -41.942,-22.0296 -157.482,-31.81249 -159.381,25.3998 22.653,54.35675 57.249,67.93074 108.228,92.73912 49.039,25.3288 135.979,45.4049 191.144,54.2567 62.414,0.5197 124.014,22.01937 186.387,11.8625 60.154,-19.3015 64.593,-86.40313 66.394,-139.64811 6.559,-142.88654 4.758,-286.68956 -18.553,-428.17146 -6.227,-54.85688 1.891,-145.27739 -47.779,-166.933648 -50.396,-50.505483 -110.363,-6.49446 -101.55,38.280328 -23.116,46.16484 4.192,84.31588 -20.41,129.51093 -29.974,85.42893 -113.425,154.95066 -207.395,158.03878 -51.111,1.42934 -99.521,-64.86733 -100.013,-117.64454 -7.038,-61.92307 3.75,-94.59128 8.345,-156.08968 20.709,-39.7699 9.115,-91.304121 -26.32,-113.778051 -25.031,-18.06671 -33.72,-18.98644 -53.304,-19.87067 l 3.296,16.1056 z"
       id="path4086"
       inkscape:connector-curvature="0"
       sodipodi:nodetypes="ccccccccccccccccccccccccc"
       transform="matrix(0.97796134,0,0,0.97796134,2.6598246,52.894157)" />
  </g>
</svg>
