<?xml version="1.0" encoding="UTF-8" standalone="no"?>
<!-- Created with Inkscape (http://www.inkscape.org/) -->

<svg
   xmlns:dc="http://purl.org/dc/elements/1.1/"
   xmlns:cc="http://creativecommons.org/ns#"
   xmlns:rdf="http://www.w3.org/1999/02/22-rdf-syntax-ns#"
   xmlns:svg="http://www.w3.org/2000/svg"
   xmlns="http://www.w3.org/2000/svg"
   xmlns:sodipodi="http://sodipodi.sourceforge.net/DTD/sodipodi-0.dtd"
   xmlns:inkscape="http://www.inkscape.org/namespaces/inkscape"
   width="1000"
   height="1000"
   id="svg3093"
   version="1.1"
   inkscape:version="0.48.2 r9819"
   sodipodi:docname="Y.svg">
  <defs
     id="defs3095">
    <filter
       inkscape:collect="always"
       id="filter4175"
       color-interpolation-filters="sRGB">
      <feBlend
         inkscape:collect="always"
         mode="lighten"
         in2="BackgroundImage"
         id="feBlend4177" />
    </filter>
    <filter
       inkscape:collect="always"
       id="filter4175-5"
       color-interpolation-filters="sRGB">
      <feBlend
         inkscape:collect="always"
         mode="lighten"
         in2="BackgroundImage"
         id="feBlend4177-1" />
    </filter>
  </defs>
  <sodipodi:namedview
     id="base"
     pagecolor="#ffffff"
     bordercolor="#666666"
     borderopacity="1.0"
     inkscape:pageopacity="0.0"
     inkscape:pageshadow="2"
     inkscape:zoom="0.3"
     inkscape:cx="181.38741"
     inkscape:cy="945.93535"
     inkscape:document-units="px"
     inkscape:current-layer="layer1"
     showgrid="true"
     showborder="true"
     inkscape:showpageshadow="false"
     inkscape:window-width="1253"
     inkscape:window-height="765"
     inkscape:window-x="141"
     inkscape:window-y="29"
     inkscape:window-maximized="0"
     showguides="true"
     inkscape:guide-bbox="true"
     inkscape:snap-global="false">
    <sodipodi:guide
       orientation="0,1"
       position="114.53282,200.26098"
       id="guide3344" />
  </sodipodi:namedview>
  <metadata
     id="metadata3098">
    <rdf:RDF>
      <cc:Work
         rdf:about="">
        <dc:format>image/svg+xml</dc:format>
        <dc:type
           rdf:resource="http://purl.org/dc/dcmitype/StillImage" />
        <dc:title></dc:title>
      </cc:Work>
    </rdf:RDF>
  </metadata>
  <g
     inkscape:label="Layer 1"
     inkscape:groupmode="layer"
     id="layer1"
     transform="translate(0,-52.362183)">
    <path
       style="fill:#000000;display:inline;filter:url(#filter4175-5);enable-background:new"
       d="m 113.23771,132.9802 c -10.02,35.07558 1.288,79.47135 25.713,98.97693 38.144,19.75152 78.503,-3.6979 82.597,-2.57471 52.039,-18.49332 109.393,-15.06671 164.001,-17.51846 69.765,1.71522 139.785,0.35496 209.375,5.29204 27.094,16.00798 -36.164,50.45416 -46.831,71.84609 -77.892,83.54638 -160.683,162.25835 -242.04,242.3331 -47.69,44.82107 -88.143,97.82644 -140.614,137.20462 -32.997,12.0876 -34.744,62.50433 -40.251,94.41823 -6.618,31.83911 16.842,57.75491 38.362,72.97621 58.35,-4.404 116.704,0.4374 174.226,10.65126 154.908,17.96221 312.228,17.18631 467.025,-1.3989 34.35601,-6.76886 69.73001,-12.58066 97.57301,-31.06636 35.947,-14.4278 -3.717,-36.4466 -17.22,-76.72996 -14.935,-21.08896 -74.05201,-5.49931 -100.31501,-11.61475 -150.883,9.13512 -183.401,7.39837 -301.483,3.48875 -65.089,0.0634 -126.3,6.23205 -189.108,-9.76959 13.004,-35.39884 77.076,-78.47619 102.074,-106.48302 56.992,-52.38675 107.473,-111.6977 165.328,-162.96888 36.408,-30.03896 68.687,-65.49421 101.39,-99.68874 43.192,-49.04507 87.178,-98.68977 142.775,-133.99226 30.69601,-20.92479 18.13101,-57.05129 11.80801,-88.70912 -34.57501,-13.49349 -55.89801,-70.930165 -99.04201,-48.383343 -43.34,12.83997 -87.571,11.29021 -131.91,7.23354 -67.458,-2.15828 -135.182,-3.14708 -202.18,-10.85475 -63.584,0.81197 -127.448,6.88745 -190.913,1.67845 -38.84493,1.853891 -73.43162,14.615386 -80.34,55.653623 z"
       id="path4078"
       inkscape:connector-curvature="0"
       sodipodi:nodetypes="ccccccccccccccccccccccccccc" />
  </g>
</svg>
