<?xml version="1.0" encoding="UTF-8" standalone="no"?>
<!-- Created with Inkscape (http://www.inkscape.org/) -->

<svg
   xmlns:dc="http://purl.org/dc/elements/1.1/"
   xmlns:cc="http://creativecommons.org/ns#"
   xmlns:rdf="http://www.w3.org/1999/02/22-rdf-syntax-ns#"
   xmlns:svg="http://www.w3.org/2000/svg"
   xmlns="http://www.w3.org/2000/svg"
   xmlns:sodipodi="http://sodipodi.sourceforge.net/DTD/sodipodi-0.dtd"
   xmlns:inkscape="http://www.inkscape.org/namespaces/inkscape"
   width="1000"
   height="1000"
   id="svg3093"
   version="1.1"
   inkscape:version="0.48.2 r9819"
   sodipodi:docname="a.svg">
  <defs
     id="defs3095" />
  <sodipodi:namedview
     id="base"
     pagecolor="#ffffff"
     bordercolor="#666666"
     borderopacity="1.0"
     inkscape:pageopacity="0.0"
     inkscape:pageshadow="2"
     inkscape:zoom="0.3"
     inkscape:cx="448.05408"
     inkscape:cy="679.26868"
     inkscape:document-units="px"
     inkscape:current-layer="layer1"
     showgrid="true"
     showborder="true"
     inkscape:showpageshadow="false"
     inkscape:window-width="775"
     inkscape:window-height="583"
     inkscape:window-x="141"
     inkscape:window-y="29"
     inkscape:window-maximized="0"
     showguides="true"
     inkscape:guide-bbox="true"
     inkscape:snap-global="false">
    <sodipodi:guide
       orientation="0,1"
       position="114.53282,200.26098"
       id="guide3344" />
  </sodipodi:namedview>
  <metadata
     id="metadata3098">
    <rdf:RDF>
      <cc:Work
         rdf:about="">
        <dc:format>image/svg+xml</dc:format>
        <dc:type
           rdf:resource="http://purl.org/dc/dcmitype/StillImage" />
        <dc:title />
      </cc:Work>
    </rdf:RDF>
  </metadata>
  <g
     inkscape:label="Layer 1"
     inkscape:groupmode="layer"
     id="layer1"
     transform="translate(0,-52.362183)">
    <path
       style="fill:#000000;enable-background:new"
       d="m 373.71637,878.18333 c -46.4542,-9.93104 -98.17609,-36.00065 -112.81285,-87.90832 -11.76633,-34.11687 -18.7582,-37.1464 -20.5077,-74.00016 -3.35058,-28.53121 -6.11975,-90.01837 12.0937,-112.59223 34.5028,-49.48368 94.85956,-62.21609 148.15985,-74.19558 65.15653,-12.20348 132.76795,-20.55377 198.19948,-5.62492 9.05915,-30.38578 3.45708,-59.08335 -10.60262,-109.78054 -14.44731,-33.91756 -38.40337,-34.74736 -67.9353,-37.43868 -63.67417,-6.33541 -129.46712,11.97245 -181.60719,51.37933 -19.22788,26.49593 -56.75912,32.30865 -77.65094,3.52927 -20.3427,-29.95182 -25.92032,-80.36538 -3.02408,-110.32985 46.22634,-29.09281 96.7985,-51.81832 149.36198,-64.48862 40.33096,-8.20141 81.88937,-10.89083 122.85238,-8.12013 35.97556,4.60283 71.60541,20.10967 98.89982,45.68638 26.79244,27.57263 52.59054,84.18797 63.96227,121.04867 18.5155,65.00576 -3.02234,115.69152 11.5664,177.31827 14.58962,61.62614 23.76226,81.53591 35.4247,99.11241 8.95002,57.06569 -13.00076,126.21745 -61.89413,149.05909 -25.87492,5.8724 -38.49765,-36.49416 -63.01156,-14.85468 -69.94931,27.98562 -141.84892,60.84565 -218.31346,54.73104 -7.75924,-0.29826 -15.52372,-0.99376 -23.16075,-2.53075 z M 480.82154,747.77032 c 42.53879,-9.6054 110.91233,-3.38534 131.35457,-49.39113 9.98278,-66.02569 -53.11347,-65.11927 -83.61268,-65.45039 -56.18993,2.51056 -132.69288,19.75517 -163.65827,40.16501 -34.47399,7.3614 -46.54935,54.95548 -9.15954,69.27793 37.59411,18.92918 80.792,16.5012 120.27965,6.22197 z"
       id="path4672"
       inkscape:connector-curvature="0"
       sodipodi:nodetypes="cccccccccccccccccccccccccccc" />
  </g>
</svg>
