<?xml version="1.0" encoding="UTF-8" standalone="no"?>
<!-- Created with Inkscape (http://www.inkscape.org/) -->

<svg
   xmlns:dc="http://purl.org/dc/elements/1.1/"
   xmlns:cc="http://creativecommons.org/ns#"
   xmlns:rdf="http://www.w3.org/1999/02/22-rdf-syntax-ns#"
   xmlns:svg="http://www.w3.org/2000/svg"
   xmlns="http://www.w3.org/2000/svg"
   xmlns:sodipodi="http://sodipodi.sourceforge.net/DTD/sodipodi-0.dtd"
   xmlns:inkscape="http://www.inkscape.org/namespaces/inkscape"
   width="1000"
   height="1000"
   id="svg3093"
   version="1.1"
   inkscape:version="0.48.2 r9819"
   sodipodi:docname="d.svg">
  <defs
     id="defs3095" />
  <sodipodi:namedview
     id="base"
     pagecolor="#ffffff"
     bordercolor="#666666"
     borderopacity="1.0"
     inkscape:pageopacity="0.0"
     inkscape:pageshadow="2"
     inkscape:zoom="0.51795572"
     inkscape:cx="460.29025"
     inkscape:cy="532.04062"
     inkscape:document-units="px"
     inkscape:current-layer="layer1"
     showgrid="true"
     showborder="true"
     inkscape:showpageshadow="false"
     inkscape:window-width="902"
     inkscape:window-height="705"
     inkscape:window-x="141"
     inkscape:window-y="29"
     inkscape:window-maximized="0"
     showguides="true"
     inkscape:guide-bbox="true"
     inkscape:snap-global="false">
    <sodipodi:guide
       orientation="0,1"
       position="114.53282,200.26098"
       id="guide3344" />
  </sodipodi:namedview>
  <metadata
     id="metadata3098">
    <rdf:RDF>
      <cc:Work
         rdf:about="">
        <dc:format>image/svg+xml</dc:format>
        <dc:type
           rdf:resource="http://purl.org/dc/dcmitype/StillImage" />
        <dc:title />
      </cc:Work>
    </rdf:RDF>
  </metadata>
  <g
     inkscape:label="Layer 1"
     inkscape:groupmode="layer"
     id="layer1"
     transform="translate(0,-52.362183)">
    <path
       style="fill:#000000;enable-background:new"
       d="m 446.88195,149.04371 c 1.07787,66.92308 41.92092,227.71029 5.70883,204.94211 -41.03685,-2.09283 -52.03352,-21.98774 -168.75812,-8.67424 -42.85024,4.88745 -87.50824,36.36288 -109.26421,74.75774 -43.12331,76.1039 -39.17724,177.64607 -15.81292,261.9404 22.23956,80.2364 76.34398,162.93189 141.25955,206.00495 46.40615,16.09573 92.57715,25.88897 141.14668,26.08093 40.45438,-3.33857 67.27054,-17.95832 113.22092,-57.31293 26.88337,-36.89824 48.82418,14.25987 72.01691,30.9455 41.14578,28.02965 93.33171,27.37705 143.08787,17.69685 61.48144,-4.17647 75.85307,-38.41129 90.53045,-75.7921 14.92221,-24.8427 -24.75169,-72.96546 -67.99075,-78.53895 -39.22411,4.53875 -11.47803,20.39998 -48.90182,29.03343 -47.71516,15.62944 -68.69429,-11.61485 -85.96321,-57.80152 C 624.16647,662.48427 630.47107,602.46025 620.84813,536.61673 620.26264,394.11597 609.33681,243.39903 582.55765,104.62788 569.94494,77.931536 552.17117,75.320293 489.2638,67.729202 426.35642,60.13811 435.50799,109.8303 446.88195,149.04371 z m 35.95419,371.53373 c 18.25146,45.51792 35.2302,183.20842 7.24608,224.74231 -42.54037,37.82567 -106.71246,48.56041 -145.86371,16.86721 -77.063,-62.38302 -94.08974,-186.77832 -71.97799,-238.13637 14.67212,-34.07836 38.48847,-44.85136 97.13264,-51.35907 43.75022,-0.14514 109.47325,8.27735 113.46298,47.88592 z"
       id="path5234"
       inkscape:connector-curvature="0"
       sodipodi:nodetypes="ccsaacccccccccccccccsscc" />
  </g>
</svg>
