<?xml version="1.0" encoding="UTF-8" standalone="no"?>
<!-- Created with Inkscape (http://www.inkscape.org/) -->

<svg
   xmlns:dc="http://purl.org/dc/elements/1.1/"
   xmlns:cc="http://creativecommons.org/ns#"
   xmlns:rdf="http://www.w3.org/1999/02/22-rdf-syntax-ns#"
   xmlns:svg="http://www.w3.org/2000/svg"
   xmlns="http://www.w3.org/2000/svg"
   xmlns:sodipodi="http://sodipodi.sourceforge.net/DTD/sodipodi-0.dtd"
   xmlns:inkscape="http://www.inkscape.org/namespaces/inkscape"
   width="1000"
   height="1000"
   id="svg3093"
   version="1.1"
   inkscape:version="0.48.2 r9819"
   sodipodi:docname="e.svg">
  <defs
     id="defs3095" />
  <sodipodi:namedview
     id="base"
     pagecolor="#ffffff"
     bordercolor="#666666"
     borderopacity="1.0"
     inkscape:pageopacity="0.0"
     inkscape:pageshadow="2"
     inkscape:zoom="0.41564499"
     inkscape:cx="296.96347"
     inkscape:cy="352.16895"
     inkscape:document-units="px"
     inkscape:current-layer="layer1"
     showgrid="true"
     showborder="true"
     inkscape:showpageshadow="false"
     inkscape:window-width="775"
     inkscape:window-height="583"
     inkscape:window-x="141"
     inkscape:window-y="29"
     inkscape:window-maximized="0"
     showguides="true"
     inkscape:guide-bbox="true"
     inkscape:snap-global="false">
    <sodipodi:guide
       orientation="0,1"
       position="114.53282,200.26098"
       id="guide3344" />
  </sodipodi:namedview>
  <metadata
     id="metadata3098">
    <rdf:RDF>
      <cc:Work
         rdf:about="">
        <dc:format>image/svg+xml</dc:format>
        <dc:type
           rdf:resource="http://purl.org/dc/dcmitype/StillImage" />
        <dc:title />
      </cc:Work>
    </rdf:RDF>
  </metadata>
  <g
     inkscape:label="Layer 1"
     inkscape:groupmode="layer"
     id="layer1"
     transform="translate(0,-52.362183)">
    <path
       style="fill:#000000;enable-background:new"
       d="M 452.87544,892.83253 C 414.38323,891.33931 376.95074,878.67976 340.81575,866.7699 283.12926,835.52585 251.20358,806.4414 224.77869,749.62486 191.07186,679.9787 191.77453,583.27846 194.23654,513.89834 c 9.2386,-68.24102 50.59279,-139.7157 110.10447,-176.26593 48.84656,-35.61047 101.69479,-53.23935 158.43246,-59.56713 88.1867,-7.95005 135.64351,27.92175 179.45536,68.32082 46.60733,37.8181 87.69458,94.7834 116.01528,158.13191 10.82956,39.02184 -8.32089,85.27888 -54.26693,81.74679 -62.998,15.45003 -126.65662,28.43411 -189.64746,43.58673 -66.74229,19.03358 -136.78154,26.52714 -201.44384,52.53037 -9.20427,29.22067 17.15805,52.04527 42.3303,68.7546 25.2274,20.89131 65.62399,31.66815 96.54729,32.37212 61.97645,-0.47239 155.31404,-30.96608 215.28674,-44.0669 36.64358,-13.44012 80.65765,14.60801 61.27339,55.25633 -10.40095,43.84368 -46.67605,46.6395 -80.88887,60.61322 -44.95464,24.51965 -144.24729,41.25461 -194.55929,37.52126 z M 605.07536,480.83065 c -17.43263,-37.3634 -54.10538,-74.05609 -95.00781,-81.06355 -54.36006,-4.1904 -109.95313,14.48652 -148.53098,53.58893 -34.52394,26.45445 -47.50871,70.02171 -58.3786,110.17729 25.25817,-14.29131 180.97476,-36.80091 272.3921,-65.69565 11.36368,-5.66081 22.61142,-6.04235 29.52529,-17.00702 z"
       id="path4733"
       inkscape:connector-curvature="0"
       sodipodi:nodetypes="ccccccccccccccccccccccc" />
  </g>
</svg>
