<?xml version="1.0" encoding="UTF-8" standalone="no"?>
<!-- Created with Inkscape (http://www.inkscape.org/) -->

<svg
   xmlns:dc="http://purl.org/dc/elements/1.1/"
   xmlns:cc="http://creativecommons.org/ns#"
   xmlns:rdf="http://www.w3.org/1999/02/22-rdf-syntax-ns#"
   xmlns:svg="http://www.w3.org/2000/svg"
   xmlns="http://www.w3.org/2000/svg"
   xmlns:sodipodi="http://sodipodi.sourceforge.net/DTD/sodipodi-0.dtd"
   xmlns:inkscape="http://www.inkscape.org/namespaces/inkscape"
   width="1000"
   height="1000"
   id="svg3093"
   version="1.1"
   inkscape:version="0.48.2 r9819"
   sodipodi:docname="f.svg">
  <defs
     id="defs3095" />
  <sodipodi:namedview
     id="base"
     pagecolor="#ffffff"
     bordercolor="#666666"
     borderopacity="1.0"
     inkscape:pageopacity="0.0"
     inkscape:pageshadow="2"
     inkscape:zoom="0.3"
     inkscape:cx="724.94292"
     inkscape:cy="501.41552"
     inkscape:document-units="px"
     inkscape:current-layer="layer1"
     showgrid="true"
     showborder="true"
     inkscape:showpageshadow="false"
     inkscape:window-width="775"
     inkscape:window-height="583"
     inkscape:window-x="141"
     inkscape:window-y="29"
     inkscape:window-maximized="0"
     showguides="true"
     inkscape:guide-bbox="true"
     inkscape:snap-global="false">
    <sodipodi:guide
       orientation="0,1"
       position="114.53282,200.26098"
       id="guide3344" />
  </sodipodi:namedview>
  <metadata
     id="metadata3098">
    <rdf:RDF>
      <cc:Work
         rdf:about="">
        <dc:format>image/svg+xml</dc:format>
        <dc:type
           rdf:resource="http://purl.org/dc/dcmitype/StillImage" />
        <dc:title />
      </cc:Work>
    </rdf:RDF>
  </metadata>
  <g
     inkscape:label="Layer 1"
     inkscape:groupmode="layer"
     id="layer1"
     transform="translate(0,-52.362183)">
    <path
       sodipodi:type="inkscape:offset"
       inkscape:radius="6.7032399"
       inkscape:original="M 470.90625 74.34375 C 461.79219 74.595365 455.37707 75.438199 450.0625 77.6875 C 444.74793 79.936801 428.72735 83.245012 425.59375 87.71875 C 415.83487 93.353189 409.55016 94.975973 394.90625 114.53125 C 391.36782 119.25677 386.5908 125.57881 381.40625 132.375 C 364.07589 155.0918 348.98628 188.97103 343.125 218.125 C 341.76385 224.89592 341.16728 236.53266 340.875 251.28125 C 340.5828 266.02984 340.69371 283.57424 341.125 300.875 C 341.5562 318.17584 342.27832 335.22649 343.28125 348.9375 C 343.78272 355.79304 344.37125 361.82346 345 366.6875 C 345.62876 371.55153 346.15234 375.01913 347.25 377.90625 C 348.90055 382.24508 350.13001 386.21693 350.71875 388.8125 C 350.88422 389.54192 350.90514 389.74105 350.96875 390.1875 C 350.75755 390.59096 350.59786 390.96835 350.5 391.28125 C 350.117 392.50556 350.12612 393.23534 350.125 394.03125 C 350.125 395.62325 350.3245 397.26394 350.65625 399.25 C 351.31973 403.22219 352.56147 408.37127 354.21875 414.0625 C 357.37858 424.91421 361.30153 440.99349 362.8125 449.125 C 364.47732 458.08162 369.59164 479.60081 374.3125 497.65625 C 376.67529 506.69269 378.16008 514.99378 378.65625 521 C 378.89897 523.93725 378.91346 526.28037 378.75 527.71875 C 377.73697 527.83202 376.46599 527.95369 374.75 528.03125 C 370.82128 528.20876 365.30334 528.24456 358.71875 528.15625 C 345.54962 527.97971 328.03441 527.26572 309.46875 526.0625 C 285.18138 524.48847 267.50256 523.90699 254.84375 524.375 C 242.18499 524.84311 234.56736 525.66017 229.1875 530.125 C 224.57132 533.95595 222.39524 539.77903 221.3125 546.4375 C 220.22976 553.09597 220.31623 560.84098 221.3125 569.25 C 223.30498 586.06815 229.04335 605.4942 238.03125 622.625 L 251.96875 649.15625 C 252.90253 650.93112 254.90207 652.10602 256.90625 652.03125 L 338.625 649.0625 C 375.03829 647.74659 395.57243 647.33475 406.625 648.3125 C 412.15131 648.80137 415.20039 649.72447 416.40625 650.40625 C 417.61204 651.08802 417.56925 651.142 418.03125 652.71875 C 432.58301 702.38208 440.86113 762.96854 442.21875 814.5625 C 442.89764 840.3594 441.84247 863.93434 439.0625 882.65625 C 436.28245 901.37807 431.40999 915.26564 426.34375 921.0625 C 420.88664 927.30661 415.37747 937.9009 412.6875 946.71875 C 408.87421 959.21916 414.49564 973.74823 423.4375 986.5625 C 432.37929 999.37687 445.10532 1010.6623 459.15625 1014.875 C 471.3096 1018.5191 482.40416 1018.3353 492.28125 1012.8125 C 502.15835 1007.2896 510.48295 997.20476 519.6875 982.09375 C 530.24854 964.75569 535.22771 930.18493 536.75 890.03125 C 538.27229 849.87758 535.69133 804.72914 528.3125 768.5625 C 522.45314 739.84399 516.51795 709.1235 515.25 701.0625 C 511.81626 679.22977 508.86246 667.84232 503.09375 654.46875 C 502.09314 652.14814 501.63806 649.45948 501.71875 647.375 C 501.77975 645.79 502.15384 644.96119 502.3125 644.59375 C 502.4985 644.49715 502.57769 644.42268 502.84375 644.34375 C 503.85888 644.04256 505.4677 643.63581 507.46875 643.25 C 511.47086 642.47847 517.10616 641.66156 523.875 640.84375 C 537.41251 639.20821 555.47964 637.60793 574.65625 636.5 C 613.31724 634.26634 639.95862 632.0741 657.25 629.46875 C 665.89565 628.16608 672.14723 626.81863 695.8125 617.71875 C 719.47776 608.61888 744.04847 601.25868 750.96875 575.375 C 757.88894 549.4913 737.97095 540.85989 729.75 534.78125 C 722.74759 529.60376 714.37808 526.39282 700.1875 524.625 C 685.99692 522.85712 665.56505 522.25752 632.65625 522.03125 C 610.94448 521.88166 590.49547 521.93476 575.03125 522.125 C 567.29911 522.2202 560.84435 522.33396 556.03125 522.5 C 553.62474 522.5829 551.64741 522.67786 550.09375 522.78125 C 548.55005 522.88398 547.78472 522.8532 546.25 523.25 L 546.21875 523.25 C 546.55363 523.1612 544.3416 523.50787 541.625 523.65625 C 538.89357 523.80552 535.22568 523.92083 530.96875 524 C 522.45489 524.15817 511.50865 524.16916 500.21875 523.96875 L 463.09375 523.3125 L 454.125 485.625 C 448.65443 462.58753 440.43491 429.87598 435.84375 412.75 C 424.50067 370.43566 424.21341 295.95169 434.84375 260.46875 C 440.34953 242.09182 451.19758 223.95021 461.875 214.4375 C 471.65689 205.72151 484.44339 197.64333 496.40625 192.09375 C 508.3691 186.54425 519.84153 183.78054 525.3125 184.40625 C 530.50307 185.0002 539.44487 185.91213 545.34375 186.4375 C 549.55794 189.1026 551.84764 191.91143 556.75 201.25 C 561.98364 211.2195 566.69811 228.14774 567.78125 250.1875 C 568.65185 267.90967 569.59281 278.79442 572.59375 287.4375 C 575.59469 296.08067 580.88331 301.88567 588.46875 308 C 613.33845 325.03014 625.64555 316.49344 648.28125 313.0625 C 658.34812 305.1441 660.96835 282.03524 664.46875 268.6875 C 666.21891 262.01363 667.09201 255.7505 666.4375 250.3125 C 666.11024 247.59341 665.43925 244.96382 663.6875 242.625 C 662.36901 240.86482 660.18742 239.45916 657.875 238.875 C 658.444 236.7874 658.10363 235.03786 657.875 232.9375 C 657.55609 230.00907 656.84472 226.60359 655.875 222.71875 C 653.93563 214.94914 650.85539 205.35435 647.25 195.46875 C 640.03937 175.69747 631.3263 155.40453 623.75 145.96875 C 602.04849 118.94087 584.42616 101.44524 564.5 90.5 C 544.57381 79.554647 522.71836 75.487198 493.4375 74.59375 C 484.3276 74.315825 476.9836 74.176033 470.90625 74.34375 z "
       style="fill:#000000;enable-background:new"
       id="path3016"
       d="m 470.71875,67.65625 c -9.44011,0.260616 -16.73712,1.074058 -23.28125,3.84375 -1.51713,0.6421 -7.19179,2.24088 -12.53125,4 -2.66973,0.87956 -5.33272,1.838377 -7.8125,3.03125 -1.84245,0.886293 -3.61639,2.012503 -5.28125,3.625 -8.99553,5.143448 -17.43327,8.515966 -32.28125,28.34375 -3.52277,4.7046 -8.29575,11.03145 -13.46875,17.8125 -18.14163,23.78022 -33.39833,58.15032 -39.5,88.5 -1.57904,7.85478 -2.08052,19.48434 -2.375,34.34375 -0.29495,14.88743 -0.18339,32.48999 0.25,49.875 0.43311,17.37752 1.1409,34.52546 2.15625,48.40625 0.50844,6.95087 1.09912,13.05854 1.75,18.09375 0.63749,4.93154 1.14537,8.85821 2.625,12.75 a 6.7039102,6.7039102 0 0 0 0.0312,0 c 1.48262,3.89738 2.51959,7.3689 3.03125,9.5 -0.45385,1.76586 -0.62407,3.58863 -0.625,4.25 0,2.15201 0.26636,4.16546 0.625,6.3125 0.7323,4.38423 2.04058,9.72345 3.75,15.59375 3.07927,10.57505 7.01729,26.76316 8.4375,34.40625 1.76304,9.48503 6.84287,30.82976 11.59375,49 2.26074,8.64617 3.66339,16.61557 4.125,22.03125 -3.55383,0.10577 -7.65656,0.16709 -13.125,0.0937 -13.00657,-0.17436 -30.44133,-0.89706 -48.90625,-2.09375 -24.39054,-1.58072 -42.21857,-2.1716 -55.3125,-1.6875 -12.84737,0.47508 -22.224,1.08718 -29.6875,7.28125 -6.38829,5.30162 -9.00701,12.95449 -10.21875,20.40625 -1.22399,7.52709 -1.07877,15.81468 -0.0312,24.65625 2.09844,17.7125 8.02633,37.7812 17.4375,55.71875 l 13.9375,26.53125 c 2.20215,4.18571 6.34056,6.61599 11.125,6.4375 L 338.875,655.75 c 36.37284,-1.31445 56.99419,-1.64897 67.15625,-0.75 2.95921,0.26178 4.7927,0.69146 5.9375,1 14.085,48.66097 22.23261,108.20982 23.5625,158.75 0.67126,25.50694 -0.39766,48.74926 -3.09375,66.90625 -2.68365,18.07261 -8.17948,31.59394 -11.15625,35 -6.45838,7.38977 -12.00195,18.266 -15,28.09375 -4.77269,15.64544 2.10814,31.97319 11.65625,45.65625 9.59287,13.74745 23.14231,26.03625 39.28125,30.87495 13.28777,3.9843 26.65566,3.9105 38.34375,-2.625 11.51067,-6.4363 20.3944,-17.5495 29.84375,-33.06245 12.1335,-19.91957 16.49351,-54.75142 18.03125,-95.3125 1.54036,-40.63038 -1.02644,-86.12521 -8.5625,-123.0625 -5.84943,-28.66982 -11.82477,-59.71598 -13,-67.1875 -3.46983,-22.06218 -6.63778,-34.33861 -12.625,-48.21875 -0.25781,-0.5979 -0.26284,-1.23461 -0.40625,-1.96875 3.71672,-0.71355 9.20127,-1.54121 15.84375,-2.34375 13.34935,-1.61281 31.29617,-3.21202 50.34375,-4.3125 38.7361,-2.238 65.4721,-4.4198 83.21875,-7.09375 8.84831,-1.33321 16.14126,-2.96274 39.96875,-12.125 11.67234,-4.4883 24.10167,-8.64318 35,-15.4375 10.89833,-6.79432 20.28826,-16.73642 24.21875,-31.4375 3.92259,-14.67173 -0.0216,-26.29696 -6.25,-33.75 -6.22839,-7.45304 -14.18837,-11.53506 -17.4375,-13.9375 -7.99022,-5.90786 -17.86094,-9.58656 -32.71875,-11.4375 -14.78936,-1.84248 -35.37261,-2.3983 -68.34375,-2.625 -21.7517,-0.14987 -42.22844,-0.0972 -57.75,0.0937 -7.75195,0.0954 -14.21096,0.20548 -19.125,0.375 -2.45627,0.0846 -4.49794,0.1709 -6.15625,0.28125 -0.87511,0.0582 -2.18804,0.25769 -3.40625,0.4375 -0.011,0.002 -0.0202,-0.002 -0.0312,0 -0.011,0.002 -0.0202,-0.002 -0.0312,0 -0.0373,0.003 -0.18541,-0.001 -0.21875,0 -0.5912,0.0223 -0.55047,0.0474 -0.6875,0.0625 -0.27407,0.0302 -0.54451,0.0503 -0.9375,0.0937 -0.78599,0.087 -1.92038,0.21716 -3.09375,0.28125 -2.59276,0.14169 -6.19873,0.2655 -10.40625,0.34375 -8.41294,0.1563 -19.29132,0.16772 -30.5,-0.0312 l -31.90625,-0.5625 -7.78125,-32.65625 C 455.16652,460.94433 446.93832,428.25527 442.3125,411 431.47148,370.55855 431.3693,295.38696 441.25,262.40625 c 5.15913,-17.2199 15.89314,-34.77176 25.09375,-42.96875 9.15159,-8.15438 21.51071,-15.9781 32.875,-21.25 5.62472,-2.60928 11.15402,-4.56042 15.75,-5.75 4.59598,-1.18958 8.49074,-1.50115 9.59375,-1.375 4.80999,0.5504 12.49428,1.33311 18.375,1.875 2.41594,1.72513 3.77029,3.61839 7.875,11.4375 4.55215,8.67135 9.23666,24.90088 10.28125,46.15625 0.87561,17.82424 1.72575,29.21348 5.15625,39.09375 3.4963,10.06987 9.98582,17.13383 18,23.59375 a 6.7039102,6.7039102 0 0 0 0.4375,0.3125 c 13.29097,9.10132 24.5587,11.87046 34.84375,11.375 10.28505,-0.49546 19.06863,-3.59975 29.75,-5.21875 a 6.7039102,6.7039102 0 0 0 3.15625,-1.34375 c 7.30186,-5.74349 10.3595,-14.71127 12.84375,-23.625 2.48425,-8.91373 4.04273,-18.19106 5.65625,-24.34375 1.87243,-7.14011 2.96824,-14.12857 2.15625,-20.875 -0.39589,-3.28928 -1.32664,-7.29523 -4.03125,-10.90625 -1.21811,-1.62617 -2.66291,-2.93207 -4.28125,-3.96875 -0.0823,-0.87593 -0.1831,-1.79165 -0.25,-2.40625 -0.37451,-3.43894 -1.15016,-7.09445 -2.15625,-11.125 -2.02923,-8.1296 -5.14982,-17.86356 -8.8125,-27.90625 -7.30032,-20.01721 -15.65073,-40.26831 -24.59375,-51.40625 -21.92649,-27.30808 -40.1436,-45.562716 -61.25,-57.15625 -21.12481,-11.603749 -44.26337,-15.809488 -74.0625,-16.71875 -9.15118,-0.279184 -16.60861,-0.424659 -22.9375,-0.25 z" />
  </g>
</svg>
