<?xml version="1.0" encoding="UTF-8" standalone="no"?>
<!-- Created with Inkscape (http://www.inkscape.org/) -->

<svg
   xmlns:dc="http://purl.org/dc/elements/1.1/"
   xmlns:cc="http://creativecommons.org/ns#"
   xmlns:rdf="http://www.w3.org/1999/02/22-rdf-syntax-ns#"
   xmlns:svg="http://www.w3.org/2000/svg"
   xmlns="http://www.w3.org/2000/svg"
   xmlns:sodipodi="http://sodipodi.sourceforge.net/DTD/sodipodi-0.dtd"
   xmlns:inkscape="http://www.inkscape.org/namespaces/inkscape"
   width="1000"
   height="1000"
   id="svg3093"
   version="1.1"
   inkscape:version="0.48.2 r9819"
   sodipodi:docname="g.svg">
  <defs
     id="defs3095" />
  <sodipodi:namedview
     id="base"
     pagecolor="#ffffff"
     bordercolor="#666666"
     borderopacity="1.0"
     inkscape:pageopacity="0.0"
     inkscape:pageshadow="2"
     inkscape:zoom="0.57936508"
     inkscape:cx="507.5"
     inkscape:cy="292.87671"
     inkscape:document-units="px"
     inkscape:current-layer="layer1"
     showgrid="true"
     showborder="true"
     inkscape:showpageshadow="false"
     inkscape:window-width="775"
     inkscape:window-height="583"
     inkscape:window-x="141"
     inkscape:window-y="29"
     inkscape:window-maximized="0"
     showguides="true"
     inkscape:guide-bbox="true"
     inkscape:snap-global="false">
    <sodipodi:guide
       orientation="0,1"
       position="114.53282,200.26098"
       id="guide3344" />
  </sodipodi:namedview>
  <metadata
     id="metadata3098">
    <rdf:RDF>
      <cc:Work
         rdf:about="">
        <dc:format>image/svg+xml</dc:format>
        <dc:type
           rdf:resource="http://purl.org/dc/dcmitype/StillImage" />
        <dc:title />
      </cc:Work>
    </rdf:RDF>
  </metadata>
  <g
     inkscape:label="Layer 1"
     inkscape:groupmode="layer"
     id="layer1"
     transform="translate(0,-52.362183)">
    <path
       style="fill:#000000;enable-background:new"
       d="m 471.59375,217.09375 c -44.42891,-0.17854 -92.37886,12.08171 -130.9375,38.40625 -38.45562,26.25421 -67.4573,66.83961 -73.1875,122.21875 -0.0154,0.14835 -0.0475,0.28893 -0.0625,0.4375 -10.80035,59.18715 -15.74632,129.71611 -8.03125,191.96875 7.71573,62.25798 27.98029,116.82295 69.5625,142.34375 17.67428,16.40228 49.57083,28.98786 82.0625,37.90625 32.82958,9.01114 65.7624,13.96605 85.25,12.84375 0.0208,1.2e-4 0.0417,1.2e-4 0.0625,0 65.38434,-4.44964 100.29808,-30.54668 132.5625,-60.0625 -1.33693,55.42195 -0.63644,85.65945 -8.25,144.78125 -0.0115,0.0623 -0.0219,0.12482 -0.0312,0.1875 -0.0886,0.95726 -0.0905,0.9902 0,0.0312 -3.78988,27.23644 -30.2038,49.1387 -57.375,57.78125 -59.76057,10.41135 -121.4677,-15.4223 -168.4063,-54.1562 l 0,0.0312 c -0.0972,-0.0807 -0.21241,-0.1729 -0.3125,-0.25 3e-5,-0.0104 3e-5,-0.0208 0,-0.0312 -25.56334,-19.57192 -39.20149,-55.19133 -69.4375,-80.71875 -10.95362,-13.35163 -28.35121,-21.39641 -44.9375,-20.375 -8.68324,0.53473 -17.84722,4.20755 -23.4375,12.375 -5.33386,7.7928 -6.54641,18.09624 -4.40625,29.8125 -0.58422,47.2049 34.80252,102.72913 66.15625,132.21875 0.0308,0.0316 0.0621,0.0629 0.0937,0.0937 35.19485,32.3986 54.40008,55.99742 101.40625,76.96875 0.0104,0 0.0208,0 0.0312,0 l 0,0.031 c 0.0903,0.046 0.19095,0.079 0.28125,0.125 48.1885,24.7736 102.4715,48.5842 161.09375,41.6876 76.45563,-0.7672 131.62943,-69.31444 143.375,-138.50005 l 0.0312,0 c 0.017,-0.0924 -0.0103,-0.0309 0,-0.0937 0.0354,-0.21576 0.0759,-0.4031 0.0625,-0.3125 1.2e-4,-0.0208 1.2e-4,-0.0417 0,-0.0625 12.72348,-94.06863 9.1401,-188.58316 10.84375,-281.625 1.2e-4,-0.0208 1.2e-4,-0.0417 0,-0.0625 3e-5,-0.0104 3e-5,-0.0208 0,-0.0312 5e-5,-0.0195 5e-5,-0.0117 0,-0.0312 0.70395,-62.9199 -0.34495,-125.80201 3.8125,-187.625 7e-4,-0.0104 -7e-4,-0.0209 0,-0.0312 0.91341,-12.89743 3.66973,-30.14455 3.71875,-47.40625 0.049,-17.26236 -2.52378,-35.66621 -14.96875,-49.3125 -0.78631,-0.86561 -1.63539,-1.49947 -2.46875,-2 -0.0104,-0.0104 -0.0208,-0.0208 -0.0312,-0.0312 -23.52615,-14.00741 -42.55716,-40.85141 -68.28115,-61.8749 -0.0176,-0.0143 -0.0449,-0.0169 -0.0625,-0.0312 -0.013,-0.0105 -0.0183,0.0103 -0.0312,0 -0.0781,-0.065 -0.0505,-0.0374 -0.125,-0.0937 -16.26448,-14.00096 -28.86864,-24.73156 -49.6875,-33.21875 -20.86744,-8.507 -49.6345,-14.77801 -99,-21.09375 -0.0714,-0.0125 -0.1473,-0.0189 -0.21875,-0.0312 -11.77017,-2.04166 -24.0966,-3.13678 -36.71875,-3.1875 z m 33.96875,116.1875 c 0.0312,2.7e-4 0.0625,2.7e-4 0.0937,0 4.54468,-0.14755 14.50796,2.16507 25.875,6.40625 11.36704,4.24118 24.46142,10.2419 36.9375,16.84375 12.47608,6.60185 24.34729,13.85167 33.28125,20.46875 8.81519,6.52911 14.44317,13.19305 15.125,15.15625 4.68114,40.01148 4.50742,46.40088 -6.28125,91.90625 -14.1147,30.73193 -22.6232,61.30855 -39.125,84.3125 -16.53907,23.05592 -42.36383,51.40581 -90.56978,54.42594 -40.3439,-5.76977 -70.70661,-27.07487 -89.96147,-53.51969 -20.98773,-28.82483 -18.66666,-82.71758 -12.56245,-111.46875 0.0392,-0.16505 0.0704,-0.33197 0.0937,-0.5 4.62597,-41.75181 13.52266,-72.21324 32.15625,-92.28125 18.63359,-20.06801 47.57191,-30.80714 94.9375,-31.75 z"
       id="path3037"
       inkscape:connector-curvature="0"
       sodipodi:nodetypes="csccscsccccccccccccsscccccccccccccccccccscccccccsccccccsssccscsccscc" />
  </g>
</svg>
