<?xml version="1.0" encoding="UTF-8" standalone="no"?>
<!-- Created with Inkscape (http://www.inkscape.org/) -->

<svg
   xmlns:dc="http://purl.org/dc/elements/1.1/"
   xmlns:cc="http://creativecommons.org/ns#"
   xmlns:rdf="http://www.w3.org/1999/02/22-rdf-syntax-ns#"
   xmlns:svg="http://www.w3.org/2000/svg"
   xmlns="http://www.w3.org/2000/svg"
   xmlns:sodipodi="http://sodipodi.sourceforge.net/DTD/sodipodi-0.dtd"
   xmlns:inkscape="http://www.inkscape.org/namespaces/inkscape"
   width="1000"
   height="1000"
   id="svg3093"
   version="1.1"
   inkscape:version="0.48.2 r9819"
   sodipodi:docname="h.svg">
  <defs
     id="defs3095" />
  <sodipodi:namedview
     id="base"
     pagecolor="#ffffff"
     bordercolor="#666666"
     borderopacity="1.0"
     inkscape:pageopacity="0.0"
     inkscape:pageshadow="2"
     inkscape:zoom="0.12187708"
     inkscape:cx="362.5"
     inkscape:cy="772.59132"
     inkscape:document-units="px"
     inkscape:current-layer="layer1"
     showgrid="true"
     showborder="true"
     inkscape:showpageshadow="false"
     inkscape:window-width="775"
     inkscape:window-height="583"
     inkscape:window-x="141"
     inkscape:window-y="29"
     inkscape:window-maximized="0"
     showguides="true"
     inkscape:guide-bbox="true"
     inkscape:snap-global="false">
    <sodipodi:guide
       orientation="0,1"
       position="114.53282,200.26098"
       id="guide3344" />
  </sodipodi:namedview>
  <metadata
     id="metadata3098">
    <rdf:RDF>
      <cc:Work
         rdf:about="">
        <dc:format>image/svg+xml</dc:format>
        <dc:type
           rdf:resource="http://purl.org/dc/dcmitype/StillImage" />
        <dc:title></dc:title>
      </cc:Work>
    </rdf:RDF>
  </metadata>
  <g
     inkscape:label="Layer 1"
     inkscape:groupmode="layer"
     id="layer1"
     transform="translate(0,-52.362183)">
    <path
       transform="translate(-2851.5341,2103.9827)"
       sodipodi:type="inkscape:offset"
       inkscape:radius="5.0919375"
       inkscape:original="M 3258.6875 -1928.25 C 3254.1222 -1927.9487 3249.291 -1926.7091 3243.3125 -1924.625 L 3223.625 -1917.75 L 3227.5312 -1884.3438 C 3229.692 -1865.9636 3233.4064 -1847.8534 3235.7812 -1844.125 C 3240.4572 -1836.7854 3241.3998 -1833.2503 3242.5625 -1818.75 C 3242.9803 -1813.5353 3245.7528 -1810.7922 3248.7188 -1812.625 C 3251.6845 -1814.458 3257.0461 -1812.4054 3260.625 -1808.0938 C 3267.2067 -1800.1624 3316.2202 -1797.4102 3316.2812 -1804.9688 C 3316.2921 -1807.2201 3324.9086 -1817.6593 3335.4062 -1828.1562 C 3349.6773 -1842.428 3352.739 -1848.9799 3347.5625 -1854.1562 C 3343.7545 -1857.9645 3340.625 -1867.5475 3340.625 -1875.4375 C 3340.625 -1883.3279 3338.2159 -1888.2704 3335.25 -1886.4375 C 3332.2841 -1884.6047 3326.4775 -1887.1501 3322.375 -1892.0938 C 3318.2726 -1897.0372 3312.4972 -1899.5829 3309.5312 -1897.75 C 3306.5653 -1895.9171 3304.1562 -1898.386 3304.1562 -1903.2188 C 3304.1563 -1908.0522 3294.8983 -1916.3856 3283.5938 -1921.75 C 3273.2038 -1926.6804 3266.2964 -1928.7521 3258.6875 -1928.25 z M 3258.5312 -1734.2812 C 3256.4953 -1734.3276 3255.5 -1733.2795 3255.5 -1731.1562 C 3255.5 -1727.6935 3253.446 -1725.1673 3250.9375 -1725.5625 C 3231.3611 -1728.6537 3213.3378 -1699.4989 3225.6562 -1684.6562 C 3230.5292 -1678.7854 3230.6458 -1676.2188 3226.0312 -1676.2188 C 3218.2252 -1676.2187 3223.8406 -1658.5464 3235.375 -1646.875 C 3239.7432 -1642.4551 3243.3438 -1632.3627 3243.3438 -1624.4375 C 3243.3438 -1616.5119 3245.8893 -1608.4535 3249 -1606.5312 C 3254.4397 -1603.169 3261.4157 -1559.1558 3262.5625 -1521.125 C 3262.8648 -1511.0909 3265.4165 -1494.6904 3268.2188 -1484.6562 C 3277.6266 -1450.9743 3291.8131 -1314.813 3286.4688 -1309.4688 C 3281.9291 -1304.929 3308.6981 -1256.5114 3328.1875 -1234.0312 C 3331.6898 -1229.9915 3334.5625 -1224.034 3334.5625 -1220.7812 C 3334.5625 -1217.5321 3340.7071 -1213.7044 3348.2188 -1212.25 L 3348.25 -1212.25 C 3355.7759 -1210.8023 3367.1478 -1209.2368 3373.5312 -1208.7812 C 3388.762 -1207.6957 3421.2684 -1243.9336 3416.1875 -1256.3438 C 3411.7634 -1267.1497 3397.9709 -1329.6384 3393.25 -1360.3438 C 3374.8127 -1480.2485 3359.4417 -1589.8771 3354.9062 -1633.625 C 3352.9992 -1652.0211 3348.8956 -1668.6857 3345.8125 -1670.625 C 3342.7286 -1672.565 3341.9164 -1678.5712 3344 -1684 C 3346.8253 -1691.3633 3340.692 -1697.2145 3319.875 -1707 C 3304.5257 -1714.2149 3291.9688 -1722.7017 3291.9688 -1725.875 C 3291.9687 -1729.0489 3289.3066 -1729.9932 3286.0312 -1727.9688 C 3282.7552 -1725.9443 3274.5394 -1727.2585 3267.7812 -1730.875 C 3263.6366 -1733.0926 3260.5672 -1734.2349 3258.5312 -1734.2812 z "
       style="fill:#000000;enable-background:new"
       id="path5071"
       d="m 3258.3438,-1933.3438 c -5.2455,0.3462 -10.5278,1.7481 -16.7188,3.9063 l -19.6875,6.875 a 5.0924467,5.0924467 0 0 0 -3.375,5.4063 l 3.9063,33.4062 c 1.0972,9.3335 2.5933,18.564 4.125,26.0312 0.7658,3.7337 1.5433,7.023 2.3124,9.7188 0.7692,2.6958 1.3198,4.6248 2.5938,6.625 4.4445,6.9762 4.8496,8.6838 6,23.0312 0.2748,3.4303 1.177,6.5059 3.5938,8.9063 2.4167,2.4004 7.2595,3.0428 10.3124,1.1563 -0.4075,0.2518 0.01,-0.087 1.2188,0.375 1.2105,0.4615 2.8488,1.5626 4.0938,3.0624 3.5363,4.2616 8.3396,5.2814 14.25,6.625 5.9103,1.3437 12.8703,2.2128 19.6562,2.5938 6.7859,0.381 13.3277,0.2619 18.5938,-0.5 2.633,-0.381 4.9142,-0.8749 7.0624,-1.875 1.0742,-0.5001 2.1759,-1.126 3.1876,-2.2188 1.0116,-1.0927 1.8913,-2.87 1.9062,-4.7187 -0.01,1.3331 -0.2291,1.2111 -0.125,1 0.1041,-0.2111 0.3733,-0.7008 0.7812,-1.3125 0.816,-1.2233 2.1491,-2.9524 3.8126,-4.9688 3.3268,-4.0326 8.0116,-9.1995 13.1562,-14.3437 7.2823,-7.2827 11.922,-12.5967 14.375,-17.8437 1.2265,-2.6236 1.9214,-5.4165 1.5312,-8.2188 -0.3901,-2.8023 -1.8986,-5.2737 -3.75,-7.125 -0.8871,-0.8872 -2.5563,-3.7214 -3.6562,-7.0938 -1.0999,-3.3723 -1.7812,-7.3219 -1.7812,-10.5937 0,-4.4634 -0.5389,-8.1904 -2.0938,-11.375 -0.7775,-1.5923 -1.8495,-3.2284 -3.9688,-4.3125 -2.1192,-1.0841 -5.2194,-0.8145 -7.0937,0.3438 0.6779,-0.419 0.1783,0.047 -1.2813,-0.5938 -1.4595,-0.6408 -3.4284,-2.0749 -5,-3.9688 -2.5267,-3.0447 -5.4831,-5.3697 -8.6874,-6.7812 -2.5037,-1.1029 -5.4211,-1.7759 -8.3126,-0.9688 -0,-0.059 -0.031,-0.062 -0.031,-0.125 1e-4,-5.6678 -3.5405,-9.0796 -7.7188,-12.8437 -4.1782,-3.7641 -9.6615,-7.392 -15.75,-10.2813 -10.6805,-5.0682 -18.7083,-7.576 -27.4374,-7 z m 0.3124,193.9688 c -1.9099,-0.043 -4.3513,0.539 -6.0624,2.3125 -1.7112,1.7735 -2.1876,4.049 -2.1876,5.9063 0,0.3303 -0.04,0.2912 -0.094,0.4687 -11.8769,-1.1692 -22.3447,6.5324 -28.3125,16.1875 -6.2053,10.0394 -8.235,23.4725 -0.25,33.0938 0.3339,0.4022 0.3992,0.5992 0.6562,0.9687 -0.7253,0.3233 -1.4649,0.6579 -2.0624,1.1875 -1.5747,1.3955 -2.3933,3.2285 -2.75,4.9062 -0.7135,3.3555 -0.09,6.5421 1,9.9688 2.1805,6.8533 6.7762,14.638 13.1562,21.0938 2.6274,2.6585 6.5,12.4608 6.5,18.8437 0,4.5079 0.7018,8.9368 1.9062,12.75 1.2045,3.8132 2.4226,7.1927 6.1563,9.5 -1.2262,-0.7579 -0.4205,-0.4102 0.125,0.8125 0.5455,1.2227 1.2299,3.1806 1.9063,5.625 1.3526,4.8887 2.7672,11.7538 4.0312,19.7188 2.528,15.9299 4.5279,36.2988 5.0938,55.0624 0.3232,10.7293 2.8702,27.0402 5.8437,37.6876 4.404,15.7673 10.4586,58.5829 14.5,97.375 2.0207,19.396 3.5946,37.9156 4.3125,51.8124 0.3589,6.9485 0.4745,12.746 0.375,16.8126 -0.05,2.0332 -0.1435,3.6388 -0.2812,4.5937 -0.1378,0.9549 -1.1201,1.4012 0.6562,-0.375 -1.526,1.5261 -1.8652,3.2312 -1.9688,4.5313 -0.1035,1.3 0.03,2.445 0.25,3.625 0.4394,2.3598 1.2812,4.9052 2.4376,7.8437 2.3127,5.8771 5.9291,13.192 10.2812,21.0625 8.7043,15.7411 20.2947,33.5771 30.4688,45.3125 1.3909,1.6044 2.7884,3.7841 3.75,5.7813 0.9615,1.9971 1.375,3.9975 1.375,4.125 0,4.8344 3.2526,7.2816 6.4062,9.25 3.1536,1.9683 7.0551,3.4448 11.375,4.2812 a 5.0924467,5.0924467 0 0 0 0.031,0 5.0924467,5.0924467 0 0 0 0.4688,0.062 c 7.7737,1.4745 18.7438,3.0245 25.4062,3.5 5.9397,0.4233 11.4557,-2.3418 17.0313,-6.0937 5.5756,-3.752 11.1531,-8.8042 16.0937,-14.3126 4.9407,-5.5083 9.2011,-11.4516 12.0626,-17.1562 2.8614,-5.7046 4.8832,-11.3627 2.5624,-17.0312 -0.8055,-1.9676 -2.5924,-8.0297 -4.5624,-15.8126 -1.9701,-7.7828 -4.2442,-17.5083 -6.5313,-27.875 -4.5741,-20.7333 -9.2051,-44.0269 -11.5313,-59.1562 -18.431,-119.8641 -33.8087,-229.5892 -38.3124,-273.0312 -0.9759,-9.4138 -2.4947,-18.3332 -4.2188,-25.3438 -0.862,-3.5053 -1.7622,-6.5278 -2.75,-9 -0.9878,-2.4722 -1.3468,-4.4738 -4.4688,-6.4375 0.2923,0.1838 -0.3333,-0.2886 -0.5312,-1.75 -0.1979,-1.4614 0.013,-3.5787 0.75,-5.5 1.0079,-2.6267 1.33,-5.6961 0.5,-8.5625 -0.83,-2.8664 -2.6185,-5.3201 -4.9375,-7.5312 -4.638,-4.4224 -11.6934,-8.3355 -22.2813,-13.3126 -7.4628,-3.5078 -14.2443,-7.3466 -19,-10.5624 -2.3778,-1.608 -4.2661,-3.0949 -5.3437,-4.125 -1.0776,-1.0302 -0.625,-2.1586 -0.625,0.4062 -1e-4,-3.0106 -1.9471,-6.6898 -5.125,-7.8125 -3.1779,-1.1227 -6.1301,-0.1477 -8.5937,1.375 0.4004,-0.2475 -1.6638,0.3961 -4.3438,-0.031 -2.68,-0.4273 -5.964,-1.5069 -8.8125,-3.0312 -4.4253,-2.3678 -7.7085,-3.9131 -11.5313,-4 z" />
  </g>
</svg>
