<?xml version="1.0" encoding="UTF-8" standalone="no"?>
<!-- Created with Inkscape (http://www.inkscape.org/) -->

<svg
   xmlns:dc="http://purl.org/dc/elements/1.1/"
   xmlns:cc="http://creativecommons.org/ns#"
   xmlns:rdf="http://www.w3.org/1999/02/22-rdf-syntax-ns#"
   xmlns:svg="http://www.w3.org/2000/svg"
   xmlns="http://www.w3.org/2000/svg"
   xmlns:sodipodi="http://sodipodi.sourceforge.net/DTD/sodipodi-0.dtd"
   xmlns:inkscape="http://www.inkscape.org/namespaces/inkscape"
   width="1000"
   height="1000"
   id="svg3093"
   version="1.1"
   inkscape:version="0.48.2 r9819"
   sodipodi:docname="j.svg">
  <defs
     id="defs3095" />
  <sodipodi:namedview
     id="base"
     pagecolor="#ffffff"
     bordercolor="#666666"
     borderopacity="1.0"
     inkscape:pageopacity="0.0"
     inkscape:pageshadow="2"
     inkscape:zoom="0.29857056"
     inkscape:cx="500.21258"
     inkscape:cy="404.89061"
     inkscape:document-units="px"
     inkscape:current-layer="layer1"
     showgrid="true"
     showborder="true"
     inkscape:showpageshadow="false"
     inkscape:window-width="775"
     inkscape:window-height="583"
     inkscape:window-x="141"
     inkscape:window-y="29"
     inkscape:window-maximized="0"
     showguides="true"
     inkscape:guide-bbox="true"
     inkscape:snap-global="false">
    <sodipodi:guide
       orientation="0,1"
       position="114.53282,200.26098"
       id="guide3344" />
  </sodipodi:namedview>
  <metadata
     id="metadata3098">
    <rdf:RDF>
      <cc:Work
         rdf:about="">
        <dc:format>image/svg+xml</dc:format>
        <dc:type
           rdf:resource="http://purl.org/dc/dcmitype/StillImage" />
        <dc:title />
      </cc:Work>
    </rdf:RDF>
  </metadata>
  <g
     inkscape:label="Layer 1"
     inkscape:groupmode="layer"
     id="layer1"
     transform="translate(0,-52.362183)">
    <path
       sodipodi:type="inkscape:offset"
       inkscape:radius="-9.9550982"
       inkscape:original="M 506.96875 326.90625 C 501.49791 326.96906 495.07092 327.11723 487.03125 327.4375 C 454.70779 327.3619 442.40336 366.00266 449.25 403.65625 C 450.773 443.67203 470.33773 480.03132 470.75 520.5625 C 478.75187 637.93851 496.68613 755.61545 490.9375 873.375 C 497.77413 930.84072 431.1182 895.685 409.84375 872.9375 C 385.00518 845.71049 356.7652 820.48433 341.15625 786.5 C 318.94763 755.17973 264.14776 743.62021 240.3125 779.96875 C 216.68655 811.92839 244.92785 850.71888 260.53125 879.46875 C 305.04602 933.28717 350.3994 991.06393 414.375 1022.6875 C 464.01855 1033.6193 520.22278 1061.8589 568.9375 1032.3438 C 611.4984 999.12096 624.15686 941.43687 630.8125 890.5625 C 628.12524 810.9143 618.14641 731.68664 616.96875 651.90625 C 611.6251 567.65553 613.2434 481.80736 592.5 399.5 C 574.10979 366.67122 587.85062 331.00705 548.34375 327.0625 C 531.18804 327.37439 523.38127 326.71783 506.96875 326.90625 z "
       style="fill:#000000;enable-background:new"
       id="path2985"
       d="m 507.09375,336.875 c -5.38062,0.0618 -11.7054,0.18327 -19.65625,0.5 A 9.9560937,9.9560937 0 0 1 487,337.40625 c -12.1919,-0.0285 -19.25619,6.08665 -24.4375,17.96875 -5.18131,11.8821 -6.65956,29.29566 -3.53125,46.5 a 9.9560937,9.9560937 0 0 1 0.15625,1.40625 c 1.40198,36.83607 20.88201,73.18745 21.5,116.59375 0.003,0.20137 0.0292,0.39207 0.0312,0.59375 7.98229,116.59582 25.94598,234.45601 20.15625,353.3125 -0.002,0.0312 0.002,0.0626 0,0.0937 1.48405,15.3114 -1.67558,27.6826 -10.5625,34.6875 -9.22625,7.27238 -20.96878,6.93344 -31.71875,4.34375 -21.49993,-5.17938 -43.5987,-19.86287 -56.03125,-33.15625 a 9.9560937,9.9560937 0 0 1 -0.0625,-0.0937 c -24.06586,-26.38 -52.85976,-51.97584 -69.6875,-87.6875 -9.24988,-12.83461 -26.12786,-22.30125 -42.625,-24.21875 -16.61962,-1.93173 -31.82867,2.8435 -41.5625,17.6875 a 9.9560937,9.9560937 0 0 1 -0.3125,0.4375 c -9.54136,12.90693 -8.70584,26.09148 -3.21875,41.75 5.38509,15.36745 15.67436,31.50226 23.71875,46.21875 44.23507,53.50092 88.53767,109.22841 149.1875,139.50005 25.33841,5.7223 51.12073,15.0972 75.78125,19.5312 24.93342,4.483 47.91783,4.0894 69.46875,-8.75 C 601.62002,993.82683 614.27253,939.83094 620.84375,890 618.13168,811.25938 608.18394,732.26807 607,652.0625 c -5.32434,-84.34436 -3.92203,-169.05744 -23.96875,-249.25 -9.67948,-18.14898 -11.02342,-36.07736 -14.28125,-47.65625 -1.67567,-5.95562 -3.61106,-9.91598 -6.34375,-12.5625 -2.68222,-2.59764 -6.62372,-4.69794 -14.65625,-5.5625 -16.80295,0.27707 -24.84156,-0.33781 -40.65625,-0.15625 z" />
    <path
       sodipodi:type="inkscape:offset"
       inkscape:radius="15.713484"
       inkscape:original="M 481.625 153.15625 C 468.92415 153.05965 461.01659 165.37687 459.34375 176.75 C 441.46826 195.44751 459.10428 231.47769 457 238.71875 C 458.50575 254.26651 483.62502 266.82354 499.28125 265.8125 C 522.00216 264.98946 541.5422 248.81424 552.53125 229.96875 C 558.36852 220.24693 555.69509 207.74017 548.25 199.75 C 541.57578 191.72804 531.45653 184.79849 529.375 173.96875 C 529.3196 168.19808 523.77971 164.29403 518.3125 164.6875 C 505.52071 162.40796 495.02923 152.74145 481.625 153.15625 z "
       style="fill:#000000;enable-background:new"
       id="path3048"
       d="m 481.125,137.4375 0,0.0312 c -11.18595,0.13369 -20.87741,6.00243 -26.8125,13.0625 -4.94818,5.88609 -7.90201,12.54954 -9.53125,19.375 -10.69553,14.25655 -10.06623,31.72178 -8.0625,44.5625 1.09702,7.03016 2.69881,13.22114 3.71875,17.65625 0.50364,2.19004 0.84495,3.9359 0.96875,4.78125 0.002,0.0106 -0.001,0.0522 0,0.0625 a 15.715055,15.715055 0 0 0 -0.0312,3.25 c 1.5219,15.71455 12.59854,25.39932 23.5,31.8125 10.77309,6.33765 22.58725,10.1605 34.96875,9.46875 l 0,0.0312 c 0.10696,-0.004 0.20571,-0.0269 0.3125,-0.0312 0.0422,-0.003 0.0828,0.003 0.125,0 l 0,-0.0312 c 29.53729,-1.26206 52.63195,-21.12959 65.6875,-43.40625 l 0.0312,0 c 0.032,-0.0533 0.0621,-0.10292 0.0937,-0.15625 0.005,-0.008 -0.005,-0.023 0,-0.0312 9.67566,-16.31183 5.46992,-35.57985 -5.78125,-48.15625 l 0.0312,-0.0312 c -0.23799,-0.28604 -0.35969,-0.37785 -0.59375,-0.65625 C 551.30645,178.98834 545.33239,173.70488 544.8125,171 l -0.0625,0 c -1.56479,-12.78073 -12.44359,-21.15236 -24.03125,-21.90625 -3.32814,-0.66661 -7.87942,-2.70787 -14.09375,-5.5 -6.26566,-2.81519 -14.5782,-6.29005 -24.875,-6.125 l 0,-0.0312 c -0.10631,-8.1e-4 -0.20645,0.031 -0.3125,0.0312 -0.10933,0.003 -0.20272,-0.0346 -0.3125,-0.0312 z" />
  </g>
</svg>
