<?xml version="1.0" encoding="UTF-8" standalone="no"?>
<!-- Created with Inkscape (http://www.inkscape.org/) -->

<svg
   xmlns:dc="http://purl.org/dc/elements/1.1/"
   xmlns:cc="http://creativecommons.org/ns#"
   xmlns:rdf="http://www.w3.org/1999/02/22-rdf-syntax-ns#"
   xmlns:svg="http://www.w3.org/2000/svg"
   xmlns="http://www.w3.org/2000/svg"
   xmlns:sodipodi="http://sodipodi.sourceforge.net/DTD/sodipodi-0.dtd"
   xmlns:inkscape="http://www.inkscape.org/namespaces/inkscape"
   width="1000"
   height="1000"
   id="svg3093"
   version="1.1"
   inkscape:version="0.48.2 r9819"
   sodipodi:docname="k.svg">
  <defs
     id="defs3095" />
  <sodipodi:namedview
     id="base"
     pagecolor="#ffffff"
     bordercolor="#666666"
     borderopacity="1.0"
     inkscape:pageopacity="0.0"
     inkscape:pageshadow="2"
     inkscape:zoom="0.42774167"
     inkscape:cx="443.06936"
     inkscape:cy="462.73885"
     inkscape:document-units="px"
     inkscape:current-layer="layer1"
     showgrid="true"
     showborder="true"
     inkscape:showpageshadow="false"
     inkscape:window-width="775"
     inkscape:window-height="583"
     inkscape:window-x="141"
     inkscape:window-y="29"
     inkscape:window-maximized="0"
     showguides="true"
     inkscape:guide-bbox="true"
     inkscape:snap-global="false">
    <sodipodi:guide
       orientation="0,1"
       position="114.53282,200.26098"
       id="guide3344" />
  </sodipodi:namedview>
  <metadata
     id="metadata3098">
    <rdf:RDF>
      <cc:Work
         rdf:about="">
        <dc:format>image/svg+xml</dc:format>
        <dc:type
           rdf:resource="http://purl.org/dc/dcmitype/StillImage" />
        <dc:title />
      </cc:Work>
    </rdf:RDF>
  </metadata>
  <g
     inkscape:label="Layer 1"
     inkscape:groupmode="layer"
     id="layer1"
     transform="translate(0,-52.362183)">
    <path
       style="fill:#000000;enable-background:new"
       d="m 292.79497,156.22027 c -42.20328,-2.64861 -28.99894,43.46418 -30.26066,70.49709 0.2228,114.6834 0.36933,229.59051 10.60309,343.9024 9.20447,33.4046 -19.67957,66.23406 -5.36622,99.46403 12.3854,50.19731 17.88159,58.78006 26.715,93.86035 8.77196,32.73601 9.59785,74.39291 26.38146,104.45331 8.63506,27.14527 27.15672,64.50701 61.69778,56.90178 31.01932,-4.4692 72.45767,-28.26215 55.59644,-57.72951 -14.92643,-26.08601 -16.68286,-66.0383 -25.29115,-94.25255 -16.17467,-53.01357 30.116,-28.02856 52.43973,-22.22919 65.50602,14.46579 110.00011,80.81788 170.20172,108.04659 28.34981,6.22906 97.9239,-0.26129 94.31155,-50.60685 -11.25041,-29.97941 -44.74009,-43.47327 -67.5176,-63.91251 -56.93741,-40.67485 -118.2384,-76.32146 -184.56063,-99.11961 6.6124,-12.48621 42.63543,-25.19732 61.05637,-36.97268 69.93295,-37.25812 106.19241,-42.41178 142.74881,-102.25318 33.25497,-29.54108 16.75173,-64.46956 -11.47681,-73.45577 -52.71125,-12.24919 -87.93608,36.10677 -117.45994,48.00461 -82.13647,32.22696 -114.1215,58.59223 -177.57994,74.94378 0.61786,-42.82787 -5.63502,-85.74382 -5.31413,-128.72204 -2.40373,-71.57701 -0.56514,-143.50426 -6.78012,-214.84365 -3.41855,-28.86459 -31.46511,-41.6766 -53.92501,-53.60595 -5.21041,-1.74123 -10.72889,-2.5478 -16.21974,-2.37045 z"
       id="path3060"
       inkscape:connector-curvature="0"
       sodipodi:nodetypes="cccccccsscccccccccccccc" />
  </g>
</svg>
