<?xml version="1.0" encoding="UTF-8" standalone="no"?>
<!-- Created with Inkscape (http://www.inkscape.org/) -->

<svg
   xmlns:dc="http://purl.org/dc/elements/1.1/"
   xmlns:cc="http://creativecommons.org/ns#"
   xmlns:rdf="http://www.w3.org/1999/02/22-rdf-syntax-ns#"
   xmlns:svg="http://www.w3.org/2000/svg"
   xmlns="http://www.w3.org/2000/svg"
   xmlns:sodipodi="http://sodipodi.sourceforge.net/DTD/sodipodi-0.dtd"
   xmlns:inkscape="http://www.inkscape.org/namespaces/inkscape"
   width="1000"
   height="1000"
   id="svg3093"
   version="1.1"
   inkscape:version="0.48.2 r9819"
   sodipodi:docname="l.svg">
  <defs
     id="defs3095" />
  <sodipodi:namedview
     id="base"
     pagecolor="#ffffff"
     bordercolor="#666666"
     borderopacity="1.0"
     inkscape:pageopacity="0.0"
     inkscape:pageshadow="2"
     inkscape:zoom="0.63550192"
     inkscape:cx="521.01675"
     inkscape:cy="763.0639"
     inkscape:document-units="px"
     inkscape:current-layer="layer1"
     showgrid="true"
     showborder="true"
     inkscape:showpageshadow="false"
     inkscape:window-width="775"
     inkscape:window-height="583"
     inkscape:window-x="141"
     inkscape:window-y="29"
     inkscape:window-maximized="0"
     showguides="true"
     inkscape:guide-bbox="true"
     inkscape:snap-global="false">
    <sodipodi:guide
       orientation="0,1"
       position="114.53282,200.26098"
       id="guide3344" />
  </sodipodi:namedview>
  <metadata
     id="metadata3098">
    <rdf:RDF>
      <cc:Work
         rdf:about="">
        <dc:format>image/svg+xml</dc:format>
        <dc:type
           rdf:resource="http://purl.org/dc/dcmitype/StillImage" />
        <dc:title />
      </cc:Work>
    </rdf:RDF>
  </metadata>
  <g
     inkscape:label="Layer 1"
     inkscape:groupmode="layer"
     id="layer1"
     transform="translate(0,-52.362183)">
    <path
       sodipodi:type="inkscape:offset"
       inkscape:radius="18.170275"
       inkscape:original="M 5136.9062 -2118.0938 C 5120.3888 -2119.2424 5100.6119 -2108.7464 5096.7188 -2088.8438 C 5097.3626 -2055.2422 5124.2015 -2027.8692 5124.1875 -1993.1562 C 5146.7696 -1832.7785 5154.0202 -1670.6673 5175.1562 -1510.0938 C 5185.1421 -1448.6752 5186.554 -1384.678 5209.2812 -1326.1562 C 5233.2994 -1282.1259 5266.5684 -1234.4374 5318.3125 -1222.4688 C 5361.6923 -1210.7711 5412.2056 -1224.8141 5443.1562 -1257.4688 C 5473.5847 -1294.4286 5413.1046 -1316.6499 5383.375 -1304.4688 C 5351.2768 -1298.7145 5310.2036 -1302.439 5301.7188 -1340.6562 C 5276.7328 -1414.4994 5271.9721 -1493.1776 5262.25 -1570.0625 C 5254.5936 -1659.3052 5239.6551 -1748.1161 5238.6875 -1837.8125 C 5234.5736 -1870.7169 5230.1713 -1903.5992 5228.5938 -1936.9062 C 5220.9105 -1978.3676 5219.6679 -2020.8108 5211.5625 -2062.1562 C 5204.9395 -2089.5748 5170.7084 -2102.4336 5151.625 -2112.9688 C 5147.5526 -2116.0241 5142.4121 -2117.7109 5136.9062 -2118.0938 z "
       style="fill:#000000;enable-background:new"
       id="path5077"
       d="m 5138.1562,-2136.2188 c -25.1607,-1.7496 -53.3936,13.7758 -59.2812,43.875 a 18.172092,18.172092 0 0 0 -0.3125,3.8438 c 0.4127,21.5414 8.7497,39.1102 15.5,54.4062 6.7503,15.2961 11.9739,28.2659 11.9687,40.9376 a 18.172092,18.172092 0 0 0 0.1563,2.5312 c 22.4213,159.2354 29.6964,321.297 50.9687,482.9062 a 18.172092,18.172092 0 0 0 0.063,0.5313 c 9.7085,59.713 10.8714,125.1416 35.125,187.5937 a 18.172092,18.172092 0 0 0 1,2.125 c 24.6666,45.2192 60.2374,98.2997 120.25,112.5 l 0,0.031 c 0.2077,0.056 0.417,0.1012 0.625,0.1563 50.1751,13.2762 106.3217,-2.413 142.125,-40.1876 a 18.172092,18.172092 0 0 0 0.8437,-0.9374 c 10.0523,-12.21 14.7349,-27.3765 11.2187,-40.8126 -3.5161,-13.436 -13.2684,-22.5303 -23.5312,-28.4374 -19.6694,-11.3216 -43.7914,-14.8996 -65.5312,-7.0938 -13.8529,2.38 -29.2811,2.4022 -40.0313,-1.0938 -10.9568,-3.5631 -16.9188,-8.0756 -19.8437,-21.25 a 18.172092,18.172092 0 0 0 -0.5313,-1.875 c -23.9546,-70.7951 -28.8332,-148.1919 -38.6563,-225.875 -7.7574,-89.9753 -22.4927,-178.0811 -23.4374,-265.6562 a 18.172092,18.172092 0 0 0 -0.125,-2.0625 c -4.127,-33.0091 -8.4401,-65.443 -9.9688,-97.7187 a 18.172092,18.172092 0 0 0 -0.2812,-2.4376 c -7.3425,-39.622 -8.573,-82.1324 -17.0626,-125.4374 a 18.172092,18.172092 0 0 0 -0.1874,-0.7813 c -4.8369,-20.0241 -19.1594,-33.2897 -32.7813,-42.5 -13.6219,-9.2103 -27.7755,-15.3798 -36.0313,-19.9375 l 0,0.031 c -6.8848,-4.5364 -14.6182,-6.8442 -22.25,-7.375 z"
       transform="matrix(0.89165905,0,0,0.89165905,-4219.4047,1967.1393)" />
  </g>
</svg>
