<?xml version="1.0" encoding="UTF-8" standalone="no"?>
<!-- Created with Inkscape (http://www.inkscape.org/) -->

<svg
   xmlns:dc="http://purl.org/dc/elements/1.1/"
   xmlns:cc="http://creativecommons.org/ns#"
   xmlns:rdf="http://www.w3.org/1999/02/22-rdf-syntax-ns#"
   xmlns:svg="http://www.w3.org/2000/svg"
   xmlns="http://www.w3.org/2000/svg"
   xmlns:sodipodi="http://sodipodi.sourceforge.net/DTD/sodipodi-0.dtd"
   xmlns:inkscape="http://www.inkscape.org/namespaces/inkscape"
   width="1000"
   height="1000"
   id="svg3093"
   version="1.1"
   inkscape:version="0.48.2 r9819"
   sodipodi:docname="l.svg">
  <defs
     id="defs3095" />
  <sodipodi:namedview
     id="base"
     pagecolor="#ffffff"
     bordercolor="#666666"
     borderopacity="1.0"
     inkscape:pageopacity="0.0"
     inkscape:pageshadow="2"
     inkscape:zoom="0.12187708"
     inkscape:cx="362.5"
     inkscape:cy="772.59132"
     inkscape:document-units="px"
     inkscape:current-layer="layer1"
     showgrid="true"
     showborder="true"
     inkscape:showpageshadow="false"
     inkscape:window-width="775"
     inkscape:window-height="583"
     inkscape:window-x="141"
     inkscape:window-y="29"
     inkscape:window-maximized="0"
     showguides="true"
     inkscape:guide-bbox="true"
     inkscape:snap-global="false">
    <sodipodi:guide
       orientation="0,1"
       position="114.53282,200.26098"
       id="guide3344" />
  </sodipodi:namedview>
  <metadata
     id="metadata3098">
    <rdf:RDF>
      <cc:Work
         rdf:about="">
        <dc:format>image/svg+xml</dc:format>
        <dc:type
           rdf:resource="http://purl.org/dc/dcmitype/StillImage" />
        <dc:title></dc:title>
      </cc:Work>
    </rdf:RDF>
  </metadata>
  <g
     inkscape:label="Layer 1"
     inkscape:groupmode="layer"
     id="layer1"
     transform="translate(0,-52.362183)">
    <path
       sodipodi:type="inkscape:offset"
       inkscape:radius="5.0934377"
       inkscape:original="M 5818.4062 -1803.6875 C 5812.4203 -1803.3617 5807.1023 -1802.305 5803.4375 -1800.3438 C 5797.1246 -1796.9649 5793.2677 -1792.0698 5794.875 -1789.4688 C 5798.9532 -1782.8705 5804.1378 -1704.3856 5807.375 -1600.2188 C 5812.6797 -1429.5117 5816.2738 -1392.1402 5830 -1364.5625 C 5837.075 -1350.3475 5845.1812 -1338.7188 5848 -1338.7188 C 5850.8187 -1338.7188 5853.125 -1334.6108 5853.125 -1329.5938 C 5853.125 -1310.1322 5901.4234 -1325.7831 5914.6562 -1349.5312 C 5924.5111 -1367.2181 5924.7869 -1371.8565 5917.0625 -1389.5312 C 5910.7931 -1403.8753 5918.6337 -1603.7987 5926 -1617.4062 C 5929.0267 -1622.9973 5933.1494 -1637.8323 5935.1562 -1650.375 C 5937.1632 -1662.9177 5941.1633 -1673.1875 5944.0312 -1673.1875 C 5951.8245 -1673.1875 5988.5008 -1614.3744 6006.625 -1572.8438 C 6028.0179 -1523.8199 6042.8801 -1440.2262 6040.7188 -1381.0312 C 6038.9675 -1333.0642 6039.101 -1332.5893 6061.875 -1305.3438 C 6088.3925 -1273.62 6104.8908 -1270.5269 6128.9375 -1292.8125 C 6141.2535 -1304.2271 6145.0312 -1313.5173 6145.0312 -1332.4375 C 6145.0312 -1346.0334 6152.9572 -1381.072 6162.6562 -1410.2812 C 6172.3552 -1439.4898 6182.0552 -1471.5909 6184.2188 -1481.625 C 6190.8413 -1512.3363 6239.8621 -1638.4559 6253.5 -1659.875 C 6260.8524 -1671.4221 6263.8171 -1672.4859 6270.25 -1665.9375 C 6290.7927 -1645.0269 6327.0808 -1490.673 6336.4375 -1384.3125 C 6342.5328 -1315.0244 6345.0207 -1307.5464 6370.2812 -1283.0312 C 6397.2386 -1256.8706 6405.415 -1254.9487 6424.3438 -1270.3125 C 6438.3673 -1281.6949 6440.0282 -1291.2807 6434.5312 -1329.5938 C 6432.6115 -1342.9726 6429.3075 -1367.5889 6427.1875 -1384.3125 C 6425.0682 -1401.0362 6422.6055 -1418.8266 6421.7188 -1423.8438 C 6420.8321 -1428.8607 6418.0862 -1445.2924 6415.625 -1460.3438 C 6408.1901 -1505.8145 6407.3633 -1509.9541 6393.7188 -1569.8125 C 6380.6974 -1626.9368 6355.169 -1689.0009 6334.875 -1712.875 C 6303.3531 -1749.9587 6238.3306 -1781.451 6212.7812 -1772 C 6204.1524 -1768.808 6192.9686 -1752.907 6181.6562 -1727.7188 C 6148.9393 -1654.8724 6120.3715 -1575.2608 6124.5312 -1568.5312 C 6126.8653 -1564.7541 6125.8826 -1563.5556 6122.2812 -1565.7812 C 6118.7012 -1567.9935 6113.9627 -1562.4037 6111.4688 -1553.0312 C 6108.5204 -1541.9516 6106.0135 -1539.4099 6104 -1545.4688 C 6080.4482 -1616.3411 6035.6295 -1690.8477 5997.5312 -1722.4688 C 5959.2536 -1754.2388 5902.5239 -1782.6562 5877.3438 -1782.6562 C 5871.4204 -1782.6563 5865.1454 -1786.3745 5863.4062 -1790.9062 C 5860.2952 -1799.0139 5836.3642 -1804.665 5818.4062 -1803.6875 z "
       style="fill:#000000;enable-background:new"
       id="path5079"
       d="m 5825.5312,-1808.8438 c -2.5137,-0.078 -4.9978,-0.068 -7.4062,0.063 -6.4192,0.3493 -12.2927,1.3682 -17.0938,3.9374 -3.6781,1.9688 -6.6904,4.3283 -8.8437,7.0626 -1.0766,1.3671 -1.9811,2.8602 -2.4687,4.6874 -0.4877,1.8273 -0.4438,4.2796 0.8124,6.3126 -0.5504,-0.8907 0.4023,1.1779 0.9063,3.9687 0.504,2.7908 1.0462,6.7357 1.5937,11.625 1.0951,9.7787 2.2103,23.4062 3.3126,40.0937 2.2045,33.3751 4.3202,78.9926 5.9374,131.0313 5.3063,170.7554 8.7702,208.8778 23.1563,237.7813 3.6364,7.3061 7.5085,13.9082 10.9687,18.875 1.7302,2.4833 3.3604,4.5538 4.9376,6.1874 0.7885,0.8169 1.5567,1.5421 2.5,2.1876 0.7681,0.5256 1.78,1.0105 3.2187,1.2187 -0.069,-0.037 -0.047,-0.025 0.125,0.2813 0.3905,0.6954 0.8438,2.2094 0.8437,3.9374 0,3.4861 1.2434,6.8913 3.5313,9.25 2.2879,2.3588 5.2942,3.6029 8.375,4.1876 6.1616,1.1692 13.1802,0.048 20.5625,-2.3438 14.7647,-4.7842 30.9264,-14.8024 38.5938,-28.5625 5.0097,-8.9912 8.0223,-15.2465 8.4374,-22.1563 0.4152,-6.9097 -1.8759,-13.3362 -5.8124,-22.3437 0.082,0.1874 -0.3644,-1.3131 -0.625,-3.375 -0.2607,-2.0619 -0.4748,-4.8619 -0.6563,-8.2187 -0.363,-6.7137 -0.5468,-15.6924 -0.5625,-26.125 -0.031,-20.8653 0.5785,-47.5668 1.625,-74.25 1.0465,-26.6833 2.5231,-53.3518 4.1875,-74.125 0.8322,-10.3867 1.7069,-19.324 2.5937,-25.9688 0.4435,-3.3224 0.8921,-6.0714 1.3126,-8.0938 0.4204,-2.0223 0.991,-3.4643 0.875,-3.25 3.9005,-7.2053 7.639,-21.5951 9.7187,-34.5937 0.9544,-5.9642 2.42,-11.4042 3.8437,-15.0625 0.3583,-0.9206 0.6096,-1.2822 0.9376,-1.9375 1.4522,1.4082 3.3512,3.515 5.5624,6.3437 4.6322,5.9256 10.4527,14.4667 16.5938,24.3126 12.2822,19.6916 25.9329,44.6749 34.8438,65.0937 20.8898,47.8711 35.7801,131.4243 33.6562,189.5937 -0.8758,23.9889 -1.4362,36.4598 1.5625,47.1876 2.9987,10.7277 9.3881,18.3385 20.7813,31.9687 13.5398,16.1982 24.9257,25.9105 37.4374,28.25 12.5118,2.3395 24.4646,-3.6326 37,-15.25 12.9458,-11.9982 17.7188,-23.7768 17.7188,-43.375 0,-5.8082 1.9076,-17.9993 5.0625,-31.9375 3.1549,-13.9382 7.5242,-29.8922 12.3125,-44.3125 9.7307,-29.3039 19.3345,-60.9627 21.6875,-71.875 3.0682,-14.2286 17.0308,-53.8623 31.7813,-91.8125 7.3752,-18.9751 14.981,-37.673 21.5624,-52.9062 6.5815,-15.2333 12.3144,-27.2331 15.25,-31.8438 3.388,-5.3209 5.8426,-7.4573 6,-7.625 0.4301,0.2271 1.4627,0.9691 2.8438,2.375 3.4657,3.5277 10.1417,17.0977 16.5,35.9375 6.3583,18.8398 13.0904,43.3012 19.4688,70.4375 12.7566,54.2727 24.1344,119.3031 28.7812,172.125 3.0515,34.6884 5.1236,54.0898 9.9688,68.5938 4.8451,14.5039 12.6189,23.5265 25.375,35.9062 13.6186,13.2161 22.663,20.9195 32.4374,23.2188 4.8873,1.1496 9.8471,0.6055 14.4688,-1.2813 4.6217,-1.8868 9.0256,-4.9195 13.9375,-8.9063 7.4786,-6.0701 12.5416,-12.9078 14.2187,-22.6562 1.6772,-9.7484 0.5485,-22.0255 -2.2187,-41.3125 -1.9116,-13.3226 -5.1971,-37.9378 -7.3125,-54.625 -2.1245,-16.765 -4.5355,-34.3237 -5.5,-39.7813 -0.8686,-4.9145 -3.6346,-21.3988 -6.0938,-36.4374 -7.4366,-45.4815 -8.3228,-49.9168 -21.9687,-109.7813 -13.1643,-57.7513 -38.1874,-119.6629 -59.9375,-145.25 -16.4194,-19.3165 -40.9706,-36.6745 -64.9375,-48.2813 -23.9669,-11.6067 -46.9927,-18.1644 -62.8125,-12.3124 -6.224,2.3023 -11.3714,7.8324 -16.9375,15.75 -5.5661,7.9175 -11.3134,18.4178 -17.0625,31.2187 -16.4156,36.5504 -31.7637,74.7442 -42.5312,104.75 -5.3838,15.0029 -9.6162,27.9484 -12.2813,37.7187 -1.3325,4.8852 -2.283,8.9777 -2.7813,12.2813 -0.2266,1.5028 -0.3324,2.8075 -0.3437,4.0937 -0.4536,0.079 -0.9655,0.01 -1.375,0.1563 -2.1795,0.7939 -3.7419,2.1869 -5.0937,3.7813 -2.7038,3.1886 -4.6742,7.4697 -6.0626,12.6874 -0.057,0.2144 -0.1285,0.2922 -0.1874,0.5 -24.3177,-69.5788 -67.1966,-140.688 -105.5626,-172.5312 -19.516,-16.1981 -43.5082,-31.4074 -65.9687,-42.6562 -22.4605,-11.2489 -42.9626,-18.7188 -57.4687,-18.7188 -3.792,-10e-5 -8.5828,-3.3931 -9.1876,-4.9688 -1.4892,-3.8812 -4.5891,-6.2294 -8.0937,-8.1874 -3.5046,-1.9581 -7.6831,-3.4893 -12.2813,-4.7188 -6.8971,-1.8443 -14.7087,-2.9832 -22.25,-3.2188 z"
       transform="matrix(1.2678509,0,0,1.2908598,-7245.4655,2529.7455)" />
  </g>
</svg>
