<?xml version="1.0" encoding="UTF-8" standalone="no"?>
<!-- Created with Inkscape (http://www.inkscape.org/) -->

<svg
   xmlns:dc="http://purl.org/dc/elements/1.1/"
   xmlns:cc="http://creativecommons.org/ns#"
   xmlns:rdf="http://www.w3.org/1999/02/22-rdf-syntax-ns#"
   xmlns:svg="http://www.w3.org/2000/svg"
   xmlns="http://www.w3.org/2000/svg"
   xmlns:sodipodi="http://sodipodi.sourceforge.net/DTD/sodipodi-0.dtd"
   xmlns:inkscape="http://www.inkscape.org/namespaces/inkscape"
   width="1000"
   height="1000"
   id="svg3093"
   version="1.1"
   inkscape:version="0.48.2 r9819"
   sodipodi:docname="m.svg">
  <defs
     id="defs3095" />
  <sodipodi:namedview
     id="base"
     pagecolor="#ffffff"
     bordercolor="#666666"
     borderopacity="1.0"
     inkscape:pageopacity="0.0"
     inkscape:pageshadow="2"
     inkscape:zoom="0.12187708"
     inkscape:cx="362.5"
     inkscape:cy="772.59132"
     inkscape:document-units="px"
     inkscape:current-layer="layer1"
     showgrid="true"
     showborder="true"
     inkscape:showpageshadow="false"
     inkscape:window-width="775"
     inkscape:window-height="583"
     inkscape:window-x="141"
     inkscape:window-y="29"
     inkscape:window-maximized="0"
     showguides="true"
     inkscape:guide-bbox="true"
     inkscape:snap-global="false">
    <sodipodi:guide
       orientation="0,1"
       position="114.53282,200.26098"
       id="guide3344" />
  </sodipodi:namedview>
  <metadata
     id="metadata3098">
    <rdf:RDF>
      <cc:Work
         rdf:about="">
        <dc:format>image/svg+xml</dc:format>
        <dc:type
           rdf:resource="http://purl.org/dc/dcmitype/StillImage" />
        <dc:title></dc:title>
      </cc:Work>
    </rdf:RDF>
  </metadata>
  <g
     inkscape:label="Layer 1"
     inkscape:groupmode="layer"
     id="layer1"
     transform="translate(0,-52.362183)">
    <path
       style="fill:#000000;enable-background:new"
       d="m 684.54844,901.56222 c -27.1034,-37.1945 -52.011,-81.3402 -47.0132,-129.0382 -8.0817,-78.5853 4.3453,-160.3705 -25.79265,-234.29636 -21.0876,-85.573 -149.3368,-135.0196 -205.956,-129.1675 -28.7826,0.2613 -32.2222,31.332 -37.0461,52.8881 -18.6642,92.1844 2.0541,185.92686 17.9985,276.84486 1.5422,27.7417 37.4208,67.5259 21.9664,94.9066 -11.5152,27.8484 -29.0767,58.1089 -69.5707,37.7476 -52.7568,-37.1684 -64.323,-101.7578 -65.107,-159.4133 -4.3811,-36.0956 -11.7485,-71.8272 -11.9152,-108.347 -6.0653,-83.79166 -24.0404,-166.09396 -37.8756,-248.73005 -9.4288,-40.0375 31.259,-39.3557 55.0009,-24.9133 32.4326,-1.4506 2.0159,10.1383 80.0127,-38.4264 43.4906,-12.4053 122.5408,-4.0069 172.7814,12.5156 111.52785,44.8136 116.35025,74.0667 164.45115,163.59929 41.4371,80.8469 34.7311,158.18856 35.5918,229.84186 1.7359,107.1268 38.5518,107.0808 27.672,162.3647 -9.3509,24.7017 -33.7891,66.1517 -64.8049,54.5565 -4.6544,-3.1494 -8.2469,-7.759 -10.3935,-12.933 z"
       id="path5015"
       inkscape:connector-curvature="0"
       sodipodi:nodetypes="ccccccccccccccccccc" />
  </g>
</svg>
