<?xml version="1.0" encoding="UTF-8" standalone="no"?>
<!-- Created with Inkscape (http://www.inkscape.org/) -->

<svg
   xmlns:dc="http://purl.org/dc/elements/1.1/"
   xmlns:cc="http://creativecommons.org/ns#"
   xmlns:rdf="http://www.w3.org/1999/02/22-rdf-syntax-ns#"
   xmlns:svg="http://www.w3.org/2000/svg"
   xmlns="http://www.w3.org/2000/svg"
   xmlns:sodipodi="http://sodipodi.sourceforge.net/DTD/sodipodi-0.dtd"
   xmlns:inkscape="http://www.inkscape.org/namespaces/inkscape"
   width="1000"
   height="1000"
   id="svg3093"
   version="1.1"
   inkscape:version="0.48.2 r9819"
   sodipodi:docname="n.svg">
  <defs
     id="defs3095" />
  <sodipodi:namedview
     id="base"
     pagecolor="#ffffff"
     bordercolor="#666666"
     borderopacity="1.0"
     inkscape:pageopacity="0.0"
     inkscape:pageshadow="2"
     inkscape:zoom="0.12187708"
     inkscape:cx="362.5"
     inkscape:cy="772.59132"
     inkscape:document-units="px"
     inkscape:current-layer="layer1"
     showgrid="true"
     showborder="true"
     inkscape:showpageshadow="false"
     inkscape:window-width="775"
     inkscape:window-height="583"
     inkscape:window-x="141"
     inkscape:window-y="29"
     inkscape:window-maximized="0"
     showguides="true"
     inkscape:guide-bbox="true"
     inkscape:snap-global="false">
    <sodipodi:guide
       orientation="0,1"
       position="114.53282,200.26098"
       id="guide3344" />
  </sodipodi:namedview>
  <metadata
     id="metadata3098">
    <rdf:RDF>
      <cc:Work
         rdf:about="">
        <dc:format>image/svg+xml</dc:format>
        <dc:type
           rdf:resource="http://purl.org/dc/dcmitype/StillImage" />
        <dc:title></dc:title>
      </cc:Work>
    </rdf:RDF>
  </metadata>
  <g
     inkscape:label="Layer 1"
     inkscape:groupmode="layer"
     id="layer1"
     transform="translate(0,-52.362183)">
    <path
       style="fill:#000000;enable-background:new"
       d="m 424.14876,866.42124 c -44.6477,-7.6795 -82.9418,-31.799 -111.0178,-69.92161 -32.4606,-44.0779 -39.6177,-59.8113 -54.8369,-120.5599 -10.7403,-42.8692 -11.5152,-58.0317 -4.787,-93.7065 9.4097,-49.895 42.031,-129.903 61.6256,-151.1485 7.5494,-8.1843 13.7259,-17.4173 13.7259,-20.5182 0,-11.722 58.4066,-71.33 96.9019,-98.8964 29.8895,-21.4034 51.2842,-30.498 84.2235,-35.8031 24.2858,-3.9111 46.1779,-7.5059 48.6486,-7.9888 8.8129,-1.722 44.1374,10.3458 44.1374,15.0781 0,2.6509 10.4273,16.0858 23.1729,29.8534 97.7985,105.6504 145.97532,244.9208 118.00472,341.1349 -14.92392,51.3373 -49.80862,101.9058 -95.01712,137.7349 -30.1243,23.87421 -85.8055,59.26281 -85.8055,54.53371 0,-0.6632 -9.7311,2.736 -21.6246,7.554 -32.5474,13.1853 -82.7753,18.6009 -117.3516,12.654 z m 95.7522,-147.53731 c 60.5358,-29.5182 129.7445,-102.3333 137.7318,-144.9076 7.6654,-40.8583 -1.1452,-84.9391 -23.6384,-118.2686 -16.2531,-24.0831 -24.9901,-30.8185 -37.6267,-29.0064 -9.0521,1.2975 -22.5373,-3.1414 -29.9668,-9.8644 -33.3181,-30.1533 -135.7193,34.5208 -185.6232,117.2355 -12.4924,20.7069 -24.3253,45.0347 -26.2939,54.0615 -15.1876,69.6339 -7.6847,121.7195 19.6713,136.5592 42.4072,23.0057 90.5917,21.0845 145.7459,-5.8092 z"
       id="path5017"
       inkscape:connector-curvature="0" />
  </g>
</svg>
