<?xml version="1.0" encoding="UTF-8" standalone="no"?>
<!-- Created with Inkscape (http://www.inkscape.org/) -->

<svg
   xmlns:dc="http://purl.org/dc/elements/1.1/"
   xmlns:cc="http://creativecommons.org/ns#"
   xmlns:rdf="http://www.w3.org/1999/02/22-rdf-syntax-ns#"
   xmlns:svg="http://www.w3.org/2000/svg"
   xmlns="http://www.w3.org/2000/svg"
   xmlns:sodipodi="http://sodipodi.sourceforge.net/DTD/sodipodi-0.dtd"
   xmlns:inkscape="http://www.inkscape.org/namespaces/inkscape"
   width="1000"
   height="1000"
   id="svg3093"
   version="1.1"
   inkscape:version="0.48.2 r9819"
   sodipodi:docname="p.svg">
  <defs
     id="defs3095" />
  <sodipodi:namedview
     id="base"
     pagecolor="#ffffff"
     bordercolor="#666666"
     borderopacity="1.0"
     inkscape:pageopacity="0.0"
     inkscape:pageshadow="2"
     inkscape:zoom="0.4"
     inkscape:cx="307.69837"
     inkscape:cy="405.97703"
     inkscape:document-units="px"
     inkscape:current-layer="layer1"
     showgrid="true"
     showborder="true"
     inkscape:showpageshadow="false"
     inkscape:window-width="775"
     inkscape:window-height="583"
     inkscape:window-x="141"
     inkscape:window-y="29"
     inkscape:window-maximized="0"
     showguides="true"
     inkscape:guide-bbox="true"
     inkscape:snap-global="false">
    <sodipodi:guide
       orientation="0,1"
       position="114.53282,200.26098"
       id="guide3344" />
  </sodipodi:namedview>
  <metadata
     id="metadata3098">
    <rdf:RDF>
      <cc:Work
         rdf:about="">
        <dc:format>image/svg+xml</dc:format>
        <dc:type
           rdf:resource="http://purl.org/dc/dcmitype/StillImage" />
        <dc:title />
      </cc:Work>
    </rdf:RDF>
  </metadata>
  <g
     inkscape:label="Layer 1"
     inkscape:groupmode="layer"
     id="layer1"
     transform="translate(0,-52.362183)">
    <path
       style="fill:#000000;enable-background:new"
       d="m 400.12251,268.91845 c -13.28704,0.83045 -26.82585,1.23566 -40.37416,5.27818 -0.15728,0.0469 -0.31538,0.0706 -0.47268,0.11811 -25.92898,5.6647 -47.48047,23.76075 -56.87832,48.0551 -8.68694,-6.54501 -19.06004,-8.72662 -28.321,-6.14475 -11.9011,3.31791 -21.19638,14.67415 -22.17625,30.76313 l -0.0393,0 c -6.38797,55.23339 1.60699,110.28455 4.76612,164.17512 0.18651,17.02259 3.57686,34.28612 4.37222,50.53663 0.79537,16.25052 -0.8376,31.11015 -9.84735,44.35249 -0.29636,0.42521 -0.53552,0.89024 -0.70901,1.37863 -11.75086,34.25858 5.66353,66.49897 15.75577,94.84973 10.78826,79.10749 8.34182,160.10445 18.55242,240.5906 0.015,0.11811 0.0243,0.23643 0.0393,0.35451 2.00376,28.6924 8.83303,56.63357 20.32495,82.83607 0.0698,0.2212 0.16278,0.4123 0.23633,0.6302 2.30583,6.8316 6.39822,12.0352 11.50171,15.0861 5.26628,3.1484 11.27878,4.0679 17.1344,3.7814 79.98551,1.6557 65.54202,-2.1931 79.59232,-26.3515 21.08047,-36.24617 -17.64669,-82.01018 -24.68592,-123.34564 -7.34137,-43.1097 -13.55944,-66.54152 -18.28438,-129.91057 22.7058,1.44122 167.56999,55.68442 244.26831,39.584 C 722.17678,783.01196 743.90126,698.03857 759.72741,621.62589 779.6438,525.46446 753.03657,407.01933 684.36364,336.82167 625.11286,276.25536 529.27178,272.40843 440.12241,266.41843 z m 6.97192,108.67542 c 3.12607,0.0916 6.52312,0.64001 10.24125,1.77252 0.30893,0.0916 0.62551,0.15765 0.94535,0.19695 97.19757,4.46884 157.61528,24.19178 195.93727,84.04074 34.60605,54.04563 35.93776,92.44873 -5.10991,192.459 -26.54693,51.21349 -141.55319,48.53913 -246.6815,-16.88403 -0.0679,-72.08365 1.15189,-144.34493 9.76858,-215.65709 0.0309,-0.26131 0.0441,-0.52471 0.0393,-0.78779 -0.13506,-11.93482 3.30743,-23.738 9.41408,-32.10238 6.10664,-8.36439 14.39332,-13.36178 25.44556,-13.0379 z"
       id="path3077"
       inkscape:connector-curvature="0"
       sodipodi:nodetypes="scccscccscccccccccaacsaacscccacccsssc" />
  </g>
</svg>
