<?xml version="1.0" encoding="UTF-8" standalone="no"?>
<!-- Created with Inkscape (http://www.inkscape.org/) -->

<svg
   xmlns:dc="http://purl.org/dc/elements/1.1/"
   xmlns:cc="http://creativecommons.org/ns#"
   xmlns:rdf="http://www.w3.org/1999/02/22-rdf-syntax-ns#"
   xmlns:svg="http://www.w3.org/2000/svg"
   xmlns="http://www.w3.org/2000/svg"
   xmlns:sodipodi="http://sodipodi.sourceforge.net/DTD/sodipodi-0.dtd"
   xmlns:inkscape="http://www.inkscape.org/namespaces/inkscape"
   width="1000"
   height="1000"
   id="svg3093"
   version="1.1"
   inkscape:version="0.48.2 r9819"
   sodipodi:docname="r.svg">
  <defs
     id="defs3095" />
  <sodipodi:namedview
     id="base"
     pagecolor="#ffffff"
     bordercolor="#666666"
     borderopacity="1.0"
     inkscape:pageopacity="0.0"
     inkscape:pageshadow="2"
     inkscape:zoom="0.12187708"
     inkscape:cx="362.5"
     inkscape:cy="772.59132"
     inkscape:document-units="px"
     inkscape:current-layer="layer1"
     showgrid="true"
     showborder="true"
     inkscape:showpageshadow="false"
     inkscape:window-width="775"
     inkscape:window-height="583"
     inkscape:window-x="141"
     inkscape:window-y="29"
     inkscape:window-maximized="0"
     showguides="true"
     inkscape:guide-bbox="true"
     inkscape:snap-global="false">
    <sodipodi:guide
       orientation="0,1"
       position="114.53282,200.26098"
       id="guide3344" />
  </sodipodi:namedview>
  <metadata
     id="metadata3098">
    <rdf:RDF>
      <cc:Work
         rdf:about="">
        <dc:format>image/svg+xml</dc:format>
        <dc:type
           rdf:resource="http://purl.org/dc/dcmitype/StillImage" />
        <dc:title />
      </cc:Work>
    </rdf:RDF>
  </metadata>
  <g
     inkscape:label="Layer 1"
     inkscape:groupmode="layer"
     id="layer1"
     transform="translate(0,-52.362183)">
    <path
       sodipodi:type="inkscape:offset"
       inkscape:radius="9.5820904"
       inkscape:original="M 302.1875 383.5 C 279.37713 383.5 259.2876 451.22014 276.78125 469.15625 C 284.80445 477.38173 300.77784 558.40785 306.8125 621.5 C 308.74994 641.75917 311.42287 667.2789 312.75 678.1875 C 314.07722 689.09634 317.94077 727.34437 321.3125 763.1875 C 324.68423 799.0304 328.08442 834.43161 328.875 841.875 C 329.66549 849.31785 339.94512 863.99176 351.71875 874.46875 C 375.00507 895.18972 392.65113 896.43044 412.1875 878.75 C 421.917 869.94527 423.27729 851.25335 415.125 838.0625 C 411.98661 832.98446 408.37184 806.16947 402 740.5 C 396.98816 688.85616 397.01001 695.82431 401.6875 643.84375 C 403.80694 620.2895 410.70017 589.36705 417 575.125 C 439.64716 523.92707 500.46759 484.6617 560.71875 482.34375 C 591.29296 481.16741 636.73891 489.63078 663.71875 501.5 C 698.50055 516.80063 710.06538 518.09067 716.71875 507.4375 C 725.66459 493.11196 725.04574 489.29678 711.25 473.625 C 704.65717 466.13561 695.55783 454.49016 691.0625 447.75 C 686.56639 441.00975 665.82745 426.99598 644.96875 416.59375 C 608.74117 398.52784 604.26495 397.66827 544.71875 397.90625 C 478.61029 398.16867 449.08252 406.89027 416.59375 435.6875 C 409.1384 442.29575 395.70021 454.2825 386.71875 462.34375 L 370.375 477 L 373.1875 461.4375 C 374.72383 452.86627 373.77884 445.84375 371.09375 445.84375 C 368.40944 445.84375 366.21875 442.58026 366.21875 438.59375 C 366.21875 434.60636 361.25384 427.74761 355.1875 423.375 C 349.12054 419.00247 345.30773 413.56383 346.71875 411.28125 C 349.98962 405.9889 313.94124 383.5 302.1875 383.5 z "
       style="fill:#000000;enable-background:new"
       id="path3096"
       d="m 302.1875,373.90625 c -10.44386,0 -18.08406,6.93044 -23.8125,14.8125 -5.72844,7.88206 -10.09567,17.733 -13.1875,28.15625 -3.09183,10.42325 -4.84678,21.37066 -4.59375,31.5625 0.25303,10.19184 2.19463,20.10835 9.3125,27.40625 -1.18755,-1.21749 0.24788,0.43814 1.28125,3.09375 1.03337,2.65561 2.28753,6.5108 3.59375,11.1875 2.61244,9.3534 5.53234,22.04864 8.375,36.46875 5.68533,28.84022 11.14695,64.67708 14.125,95.8125 1.94435,20.33146 4.61153,45.78156 5.96875,56.9375 1.27217,10.45638 5.16391,48.95358 8.53125,84.75 3.37289,35.85521 6.73967,71.03418 7.5625,78.78125 0.78611,7.40158 4.39888,13.09037 9,19.65625 4.60112,6.56588 10.48814,13.29905 17,19.09375 12.47017,11.09639 24.48392,18.02843 37.34375,18.9375 12.85983,0.90907 25.02241,-4.84058 35.9375,-14.71875 14.40275,-13.03379 15.1874,-35.77253 4.65625,-52.8125 0.76568,1.23889 -0.44921,-1.19038 -1.25,-5.0625 -0.80079,-3.87212 -1.72032,-9.59943 -2.75,-17.25 -2.05936,-15.30113 -4.56879,-38.37009 -7.75,-71.15625 -5.01959,-51.72365 -4.99708,-42.81566 -0.3125,-94.875 2.02033,-22.45278 9.26107,-53.77318 14.53125,-65.6875 20.81287,-47.0512 78.9989,-84.92608 135.34375,-87.09375 28.4453,-1.09443 73.895,7.42681 98.78125,18.375 17.65834,7.76796 29.52732,12.28615 39.8125,13.4375 5.14259,0.57567 10.17283,0.20586 14.71875,-1.8125 4.54592,-2.01836 8.06746,-5.61142 10.4375,-9.40625 4.72792,-7.57112 8.48108,-14.61804 7.125,-23 -1.35608,-8.38196 -6.42552,-14.14673 -13.53125,-22.21875 -6.22703,-7.07384 -15.39589,-18.83074 -19.40625,-24.84375 -4.32107,-6.47784 -10.74381,-10.92573 -19.5,-16.84375 -8.75619,-5.91802 -19.44902,-12.16047 -30.28125,-17.5625 -36.40104,-18.15241 -44.92217,-19.95711 -104.5625,-19.71875 -66.93988,0.26572 -100.51073,10.14691 -134.4375,40.21875 -6.72665,5.96235 -18.10295,16.11159 -26.90625,24 -0.0412,-1.127 0.0209,-2.28883 -0.125,-3.375 -0.28918,-2.15224 -0.70012,-4.25293 -2.09375,-6.75 -0.90289,-1.61779 -2.88345,-3.62775 -5.4375,-4.90625 -0.2947,-5.26543 -2.47179,-8.59688 -4.9375,-12 -2.64379,-3.64889 -6.0136,-7.05539 -9.96875,-9.90625 -2.06624,-1.48917 -3.62472,-3.14316 -4.4375,-4.1875 0.0906,-1.11859 0.13565,-2.25354 -0.0312,-3.125 -0.41056,-2.14376 -1.18689,-3.53992 -1.9375,-4.75 -1.50122,-2.42015 -3.17637,-4.11249 -5.09375,-5.875 -3.83477,-3.52503 -8.73374,-7.01163 -14.125,-10.375 -5.39126,-3.36337 -11.19177,-6.5377 -16.71875,-8.96875 -5.52698,-2.43105 -10.25593,-4.40625 -16.25,-4.40625 z m 53.71875,39.4375 c -0.11174,0.87751 -0.35997,1.88284 -1.03125,2.96875 0.57998,-0.93842 0.775,-1.95885 1.03125,-2.96875 z m 15.1875,22.90625 c 0.75599,0 1.38714,0.16677 1.96875,0.375 -0.65346,-0.13812 -1.26736,-0.375 -1.96875,-0.375 z"
       transform="matrix(1.1401896,0,0,1.1401896,-44.734145,-126.26266)" />
  </g>
</svg>
