<?xml version="1.0" encoding="UTF-8" standalone="no"?>
<!-- Created with Inkscape (http://www.inkscape.org/) -->

<svg
   xmlns:dc="http://purl.org/dc/elements/1.1/"
   xmlns:cc="http://creativecommons.org/ns#"
   xmlns:rdf="http://www.w3.org/1999/02/22-rdf-syntax-ns#"
   xmlns:svg="http://www.w3.org/2000/svg"
   xmlns="http://www.w3.org/2000/svg"
   xmlns:sodipodi="http://sodipodi.sourceforge.net/DTD/sodipodi-0.dtd"
   xmlns:inkscape="http://www.inkscape.org/namespaces/inkscape"
   width="1000"
   height="1000"
   id="svg3093"
   version="1.1"
   inkscape:version="0.48.2 r9819"
   sodipodi:docname="s.svg">
  <defs
     id="defs3095">
    <filter
       inkscape:collect="always"
       id="filter4175"
       color-interpolation-filters="sRGB">
      <feBlend
         inkscape:collect="always"
         mode="lighten"
         in2="BackgroundImage"
         id="feBlend4177" />
    </filter>
  </defs>
  <sodipodi:namedview
     id="base"
     pagecolor="#ffffff"
     bordercolor="#666666"
     borderopacity="1.0"
     inkscape:pageopacity="0.0"
     inkscape:pageshadow="2"
     inkscape:zoom="0.4081205"
     inkscape:cx="165.89812"
     inkscape:cy="462.68266"
     inkscape:document-units="px"
     inkscape:current-layer="layer1"
     showgrid="true"
     showborder="true"
     inkscape:showpageshadow="false"
     inkscape:window-width="775"
     inkscape:window-height="583"
     inkscape:window-x="141"
     inkscape:window-y="29"
     inkscape:window-maximized="0"
     showguides="true"
     inkscape:guide-bbox="true"
     inkscape:snap-global="false">
    <sodipodi:guide
       orientation="0,1"
       position="114.53282,200.26098"
       id="guide3344" />
  </sodipodi:namedview>
  <metadata
     id="metadata3098">
    <rdf:RDF>
      <cc:Work
         rdf:about="">
        <dc:format>image/svg+xml</dc:format>
        <dc:type
           rdf:resource="http://purl.org/dc/dcmitype/StillImage" />
        <dc:title />
      </cc:Work>
    </rdf:RDF>
  </metadata>
  <g
     inkscape:label="Layer 1"
     inkscape:groupmode="layer"
     id="layer1"
     transform="translate(0,-52.362183)">
    <path
       style="fill:#000000;display:inline;filter:url(#filter4175);enable-background:new"
       d="m 570.78125,26.53125 c -91.87606,11.831268 -181.72069,40.09619 -265.27212,79.87051 -53.43006,30.77695 -115.28012,54.67376 -150.61835,108.22626 -60.324463,77.59348 -34.76496,188.67714 39.00698,254.13962 43.92498,44.09781 92.22473,63.98832 148.14938,85.22469 93.13971,25.49619 189.35888,43.43287 275.70306,88.81129 35.69088,5.7615 71.30807,47.12293 21.11644,64.08803 -60.31441,41.62254 -136.65295,40.93623 -207.0132,39.74166 -36.64457,-1.39647 -111.75788,-1.78573 -56.46462,-47.33912 27.4975,-35.57772 -3.63201,-80.03586 -55.08963,-86.79887 -47.24644,-6.58573 -56.19533,14.13002 -83.38833,45.45956 -36.08353,47.70764 -58.88697,121.58336 -19.05692,173.68006 33.09499,44.90152 137.80693,68.82594 192.80489,64.922 101.94159,-3.49205 156.4391,-5.38381 256.34376,-28.08509 49.73718,-15.70035 98.75394,-38.99175 138.57644,-72.91848 60.91658,-66.4779 42.85634,-180.88263 -25.87342,-235.23566 -82.6987,-69.53632 -190.18095,-95.53813 -290.20803,-129.96688 -69.70764,-20.24937 -135.44952,-34.2975 -191.82859,-84.67085 -19.53511,-46.36142 28.71264,-65.83249 62.3906,-80.60311 68.65584,-29.3765 142.69273,-48.16974 216.62711,-55.77289 28.54994,34.90934 77.21901,66.35869 121.70932,39.43747 21.3629,-19.8742 55.54511,-43.33456 44.40482,-77.54886 C 742.29391,108.63421 695.63511,52.363645 634.73882,39.300139 613.76471,33.67615 592.68898,26.871481 570.78125,26.53125 z"
       id="path3141"
       inkscape:connector-curvature="0"
       transform="matrix(0.75562581,0.03448329,-0.03448329,0.75562581,159.24843,176.48011)"
       sodipodi:nodetypes="cccccccccccccccccccccccc" />
  </g>
</svg>
