<?xml version="1.0" encoding="UTF-8" standalone="no"?>
<!-- Created with Inkscape (http://www.inkscape.org/) -->

<svg
   xmlns:dc="http://purl.org/dc/elements/1.1/"
   xmlns:cc="http://creativecommons.org/ns#"
   xmlns:rdf="http://www.w3.org/1999/02/22-rdf-syntax-ns#"
   xmlns:svg="http://www.w3.org/2000/svg"
   xmlns="http://www.w3.org/2000/svg"
   xmlns:sodipodi="http://sodipodi.sourceforge.net/DTD/sodipodi-0.dtd"
   xmlns:inkscape="http://www.inkscape.org/namespaces/inkscape"
   width="1000"
   height="1000"
   id="svg3093"
   version="1.1"
   inkscape:version="0.48.2 r9819"
   sodipodi:docname="t.svg">
  <defs
     id="defs3095" />
  <sodipodi:namedview
     id="base"
     pagecolor="#ffffff"
     bordercolor="#666666"
     borderopacity="1.0"
     inkscape:pageopacity="0.0"
     inkscape:pageshadow="2"
     inkscape:zoom="0.53676471"
     inkscape:cx="590"
     inkscape:cy="570"
     inkscape:document-units="px"
     inkscape:current-layer="layer1"
     showgrid="true"
     showborder="true"
     inkscape:showpageshadow="false"
     inkscape:window-width="775"
     inkscape:window-height="583"
     inkscape:window-x="141"
     inkscape:window-y="29"
     inkscape:window-maximized="0"
     showguides="true"
     inkscape:guide-bbox="true"
     inkscape:snap-global="false">
    <sodipodi:guide
       orientation="0,1"
       position="114.53282,200.26098"
       id="guide3344" />
  </sodipodi:namedview>
  <metadata
     id="metadata3098">
    <rdf:RDF>
      <cc:Work
         rdf:about="">
        <dc:format>image/svg+xml</dc:format>
        <dc:type
           rdf:resource="http://purl.org/dc/dcmitype/StillImage" />
        <dc:title />
      </cc:Work>
    </rdf:RDF>
  </metadata>
  <g
     inkscape:label="Layer 1"
     inkscape:groupmode="layer"
     id="layer1"
     transform="translate(0,-52.362183)">
    <path
       sodipodi:type="inkscape:offset"
       inkscape:radius="17.636263"
       inkscape:original="M 354.875 181.78125 C 352.58039 181.81386 350.26187 181.98746 347.9375 182.34375 C 337.13711 185.89953 335.62714 190.57997 333.3125 227.78125 C 331.89355 250.58609 329.27602 274.68657 327.46875 281.34375 C 323.10779 297.4072 313.04358 376.20118 309 426.03125 C 305.96134 463.45248 304.77965 466.40193 290.40625 472.9375 C 281.97123 476.77252 268.42547 480.26958 260.28125 480.6875 C 224.90679 484.32739 229.94984 542.53934 246.0625 564.3125 C 252.78674 567.84568 249.20172 574.626 261.75 577.1875 C 264.53688 582.26885 293.77447 583.12668 302.4375 578.375 C 306.78274 575.99103 311.31397 599.32248 314.125 638.65625 C 315.00283 650.9325 330.68661 712.11324 337.65625 730.4375 C 342.29293 742.58553 357.11751 787.14663 372.0625 806.9375 C 371.62332 815.39871 404.37602 847.77893 424.3125 861.6875 C 433.58829 868.15818 451.69625 875.96465 464.5625 879.03125 C 488.98124 884.8507 545.5049 886.23383 564.84375 881.5 C 632.20221 865.01478 718.47092 804.88659 717.875 774.84375 C 717.75548 768.80112 717.6622 758.37693 717.6875 751.65625 C 717.71502 744.9363 712.13096 735.32662 705.28125 730.3125 C 693.46316 721.6613 691.02781 722.27546 657.15625 742.4375 C 591.16347 781.71829 553.53303 796.64545 506.1875 797.53125 C 463.8859 798.32266 419.44939 749.99723 395.71875 668.0625 C 391.11902 649.90129 380.73792 571.56745 381.65625 553.875 C 382.1095 545.14266 421.57161 529.35373 465.71875 520.25 C 470.29529 519.30666 492.76937 514.6102 515.65625 509.8125 C 538.54236 505.01447 585.91481 496.14536 620.9375 490.09375 C 674.76435 480.79378 685.65493 477.17609 691.28125 466.65625 C 699.83464 448.95226 681.24815 422.76428 663.34375 412.84375 C 627.13186 406.52861 597.50658 407.19328 542.4375 414.15625 C 472.89206 422.94983 463.74571 424.42777 457.6875 427.75 C 454.64778 429.41787 437.61746 433.02488 419.84375 435.78125 C 391.19382 440.22462 387.56942 439.81842 387.96875 432.125 C 389.33095 405.88092 414.22004 280.36635 421.625 262.40625 C 426.48256 250.62169 428.02227 241.21451 425.09375 241.0625 C 419.67819 215.73677 389.29408 181.2921 354.875 181.78125 z "
       style="fill:#000000;enable-background:new"
       id="path3152"
       d="m 354.625,164.15625 c -3.01508,0.0428 -6.16254,0.25758 -9.375,0.75 a 17.638027,17.638027 0 0 0 -2.8125,0.6875 c -3.67576,1.21016 -8.39407,3.03784 -12.78125,6.96875 -4.38718,3.93091 -7.36238,9.38204 -9,14.46875 -3.27523,10.17343 -3.76827,20.86413 -4.9375,39.65625 -0.69165,11.11589 -1.69589,22.6428 -2.71875,32.03125 -1.02286,9.38845 -2.50466,17.78694 -2.5625,18 -3.19201,11.75767 -6.21553,33.88964 -9.8125,62.0625 -3.59697,28.17286 -7.16217,60.4687 -9.21875,85.8125 -1.50743,18.56405 -3.14385,28.20424 -3.84375,29.96875 -0.0219,0.0551 0.0147,-0.01 0,0.0312 -0.16849,0.11499 -1.40138,0.88652 -4.46875,2.28125 -5.63627,2.56256 -19.60369,5.97634 -23.71875,6.1875 a 17.638027,17.638027 0 0 0 -0.90625,0.0937 c -13.64726,1.40425 -25.52879,9.28699 -32.21875,19.21875 -6.68996,9.93176 -9.2862,21.1537 -10,32.1875 -1.42759,22.0676 3.62144,44.0295 15.625,60.25 a 17.638027,17.638027 0 0 0 3.96875,3.84375 c -0.0104,0.1145 -0.1824,0.001 0.875,1.71875 2.32993,3.78397 8.36681,8.99846 15.46875,12.0625 1.56053,1.08952 3.08261,1.886 4.34375,2.46875 2.84712,1.31559 5.29816,1.95931 7.75,2.5 4.90367,1.08139 9.88338,1.53509 15.09375,1.6875 4.32399,0.12648 8.42589,0.2802 12.59375,0.0625 1.63968,9.32358 3.29919,23.07297 4.5625,40.75 0.41161,5.7562 1.67227,11.43584 3.4375,19.46875 1.76523,8.03291 4.07089,17.56249 6.5625,27.28125 4.98322,19.43753 10.41554,38.91303 14.65625,50.0625 1.98945,5.21232 7.08885,20.06151 13.46875,35.75 5.71579,14.05543 12.29598,28.74568 20.5,40.84375 0.67011,2.42663 1.68004,4.23453 2.5625,5.9375 1.58081,3.05064 3.37335,5.68608 5.40625,8.40625 4.0658,5.44035 9.13625,11.11918 14.8125,16.9375 11.3525,11.63664 24.76272,23.52666 36.28125,31.5625 12.65019,8.82462 30.44771,16.26486 46.25,20.03125 14.888,3.54809 35.3369,5.15557 55.71875,5.65625 20.38185,0.50068 38.93461,0.18598 52.84375,-3.21875 36.79976,-9.00632 76.34101,-28.90629 107.90625,-50.90625 15.78262,-10.99998 29.5056,-22.4723 39.90625,-34.09375 10.40065,-11.62145 18.97487,-23.06216 18.65625,-39.125 -0.11518,-5.82307 -0.21193,-16.29241 -0.1875,-22.78125 0.0678,-16.55867 -7.79541,-26.96551 -19.625,-35.625 -3.26773,-2.39208 -6.82491,-5.10616 -12.34375,-7.03125 -5.51884,-1.92509 -12.53061,-2.01118 -18.15625,-0.59375 -11.25129,2.83487 -20.03472,8.67671 -37.0625,18.8125 -65.14816,38.77805 -98.46595,51.80525 -142.28125,52.625 -14.32295,0.26796 -31.43789,-8.03254 -48.5625,-27.6875 -17.04082,-19.55878 -33.17176,-49.74332 -44.46875,-88.5 -0.006,-0.0235 -0.0252,-0.13228 -0.0312,-0.15625 -1.60603,-6.40764 -5.65336,-31.34877 -8.65625,-55 -2.58489,-20.35897 -4.1529,-39.80027 -4.5,-48.21875 3.08877,-1.82664 7.91131,-4.25806 14.21875,-6.78125 14.13726,-5.65537 34.3211,-11.67677 55.4375,-16.03125 4.73098,-0.97517 27.10604,-5.66957 50,-10.46875 22.3744,-4.69075 69.85314,-13.58008 104.65625,-19.59375 27.09485,-4.68133 43.5231,-7.81325 55.8125,-11.90625 12.2894,-4.093 22.44528,-11.90225 27.09375,-20.59375 a 17.638027,17.638027 0 0 0 0.3125,-0.625 c 7.93525,-16.42456 2.83868,-33.43334 -4.6875,-46.375 -7.52618,-12.94166 -18.11875,-23.66762 -30.5625,-30.5625 a 17.638027,17.638027 0 0 0 -5.53125,-1.9375 c -38.02198,-6.63081 -70.44479,-5.85669 -126.15625,1.1875 -69.59851,8.80029 -80.31347,9.76467 -91,15.625 2.9785,-1.63428 1.05568,-0.49142 -0.78125,0 -1.83693,0.49142 -4.5871,1.12842 -7.8125,1.8125 -6.45079,1.36815 -14.89019,2.91963 -23.46875,4.25 -4.24554,0.65845 -6.82406,0.9104 -9.96875,1.28125 2.43532,-16.8914 7.33585,-45.20147 12.65625,-72.03125 3.63044,-18.30765 7.44582,-36.37186 10.78125,-50.8125 3.33543,-14.44064 6.89346,-26.6399 7.3125,-27.65625 2.80869,-6.81394 4.77119,-12.89655 5.75,-18.90625 0.48941,-3.00485 0.9742,-5.82588 0.15625,-10.46875 -0.32061,-1.81986 -1.13211,-4.22859 -2.6875,-6.875 -4.51506,-16.02185 -14.56582,-31.25337 -28.28125,-44.03125 -14.99406,-13.96911 -35.08539,-25.01671 -58.25,-24.6875 z" />
  </g>
</svg>
