<?xml version="1.0" encoding="UTF-8" standalone="no"?>
<!-- Created with Inkscape (http://www.inkscape.org/) -->

<svg
   xmlns:dc="http://purl.org/dc/elements/1.1/"
   xmlns:cc="http://creativecommons.org/ns#"
   xmlns:rdf="http://www.w3.org/1999/02/22-rdf-syntax-ns#"
   xmlns:svg="http://www.w3.org/2000/svg"
   xmlns="http://www.w3.org/2000/svg"
   xmlns:sodipodi="http://sodipodi.sourceforge.net/DTD/sodipodi-0.dtd"
   xmlns:inkscape="http://www.inkscape.org/namespaces/inkscape"
   width="1000"
   height="1000"
   id="svg3093"
   version="1.1"
   inkscape:version="0.48.2 r9819"
   sodipodi:docname="u.svg">
  <defs
     id="defs3095" />
  <sodipodi:namedview
     id="base"
     pagecolor="#ffffff"
     bordercolor="#666666"
     borderopacity="1.0"
     inkscape:pageopacity="0.0"
     inkscape:pageshadow="2"
     inkscape:zoom="0.38682725"
     inkscape:cx="562.04169"
     inkscape:cy="373.32696"
     inkscape:document-units="px"
     inkscape:current-layer="layer1"
     showgrid="true"
     showborder="true"
     inkscape:showpageshadow="false"
     inkscape:window-width="775"
     inkscape:window-height="583"
     inkscape:window-x="141"
     inkscape:window-y="29"
     inkscape:window-maximized="0"
     showguides="true"
     inkscape:guide-bbox="true"
     inkscape:snap-global="false">
    <sodipodi:guide
       orientation="0,1"
       position="114.53282,200.26098"
       id="guide3344" />
  </sodipodi:namedview>
  <metadata
     id="metadata3098">
    <rdf:RDF>
      <cc:Work
         rdf:about="">
        <dc:format>image/svg+xml</dc:format>
        <dc:type
           rdf:resource="http://purl.org/dc/dcmitype/StillImage" />
        <dc:title />
      </cc:Work>
    </rdf:RDF>
  </metadata>
  <g
     inkscape:label="Layer 1"
     inkscape:groupmode="layer"
     id="layer1"
     transform="translate(0,-52.362183)">
    <path
       style="fill:#000000;enable-background:new"
       d="m 379.47055,892.96231 c -42.63666,-21.70017 -69.35307,-36.3302 -91.44653,-78.63691 -21.65436,-37.16337 -49.56401,-97.23557 -53.18266,-140.80811 -14.5644,-82.97861 -13.39462,-167.5847 -6.88869,-251.27837 2.36063,-28.04528 0.71553,-56.48478 2.98052,-84.33263 14.0241,-28.58037 50.24939,-18.87942 70.429,-2.95159 19.26171,14.3456 49.9272,24.10961 53.27557,51.13832 6.51164,27.9936 -17.83919,48.28817 -16.27212,76.10823 -6.95952,77.89436 -7.85965,157.03194 3.67679,234.52506 8.07376,36.57515 25.60558,60.90742 60.56204,78.67314 32.51128,6.60062 58.21158,-7.77409 79.84993,-27.65262 47.75708,-50.24813 76.92765,-115.64602 94.43125,-182.03339 15.75407,-61.77426 10.51634,-125.99322 17.35908,-188.77683 -1.43818,-35.02713 36.92028,-40.74808 59.68878,-21.7119 85.49183,18.28109 46.2114,24.99527 53.79495,85.08226 5.23998,108.88154 23.196,231.37053 47.88658,337.81367 4.28654,28.63147 29.96318,49.57764 25.61897,80.1168 6.04789,37.88391 -40.6381,50.53032 -65.77736,29.34546 -19.26098,-13.43849 -40.53956,-25.01126 -48.94686,-52.22371 -11.56219,-26.34297 -11.03269,-61.80089 -29.22735,-82.52762 -25.05736,19.26895 -34.90375,53.42804 -58.17938,75.44309 -32.21185,35.48681 -68.29032,76.28414 -118.97483,81.66908 -28.23836,5.92954 -55.92627,-4.17402 -80.65768,-16.98143 z"
       id="path5029"
       inkscape:connector-curvature="0"
       sodipodi:nodetypes="ccccccccccccccccccccccc" />
  </g>
</svg>
