<?xml version="1.0" encoding="UTF-8" standalone="no"?>
<!-- Created with Inkscape (http://www.inkscape.org/) -->

<svg
   xmlns:dc="http://purl.org/dc/elements/1.1/"
   xmlns:cc="http://creativecommons.org/ns#"
   xmlns:rdf="http://www.w3.org/1999/02/22-rdf-syntax-ns#"
   xmlns:svg="http://www.w3.org/2000/svg"
   xmlns="http://www.w3.org/2000/svg"
   xmlns:sodipodi="http://sodipodi.sourceforge.net/DTD/sodipodi-0.dtd"
   xmlns:inkscape="http://www.inkscape.org/namespaces/inkscape"
   width="1000"
   height="1000"
   id="svg3093"
   version="1.1"
   inkscape:version="0.48.2 r9819"
   sodipodi:docname="v.svg">
  <defs
     id="defs3095" />
  <sodipodi:namedview
     id="base"
     pagecolor="#ffffff"
     bordercolor="#666666"
     borderopacity="1.0"
     inkscape:pageopacity="0.0"
     inkscape:pageshadow="2"
     inkscape:zoom="0.46338681"
     inkscape:cx="566.14418"
     inkscape:cy="475.88931"
     inkscape:document-units="px"
     inkscape:current-layer="layer1"
     showgrid="true"
     showborder="true"
     inkscape:showpageshadow="false"
     inkscape:window-width="775"
     inkscape:window-height="583"
     inkscape:window-x="141"
     inkscape:window-y="29"
     inkscape:window-maximized="0"
     showguides="true"
     inkscape:guide-bbox="true"
     inkscape:snap-global="false">
    <sodipodi:guide
       orientation="0,1"
       position="114.53282,200.26098"
       id="guide3344" />
  </sodipodi:namedview>
  <metadata
     id="metadata3098">
    <rdf:RDF>
      <cc:Work
         rdf:about="">
        <dc:format>image/svg+xml</dc:format>
        <dc:type
           rdf:resource="http://purl.org/dc/dcmitype/StillImage" />
        <dc:title />
      </cc:Work>
    </rdf:RDF>
  </metadata>
  <g
     inkscape:label="Layer 1"
     inkscape:groupmode="layer"
     id="layer1"
     transform="translate(0,-52.362183)">
    <path
       style="fill:#000000;enable-background:new"
       d="m 523.4242,924.88008 c -20.03829,-7.56073 -52.50632,-2.2155 -51.59922,-29.86779 C 456.91372,869.3711 457.49101,838.05135 442.98931,812.53314 427.53479,769.98909 398.26684,734.39533 378.68017,693.7706 326.09237,595.60683 275.59933,496.19971 228.92648,395.09635 c -9.17053,-24.19243 -18.67605,-51.83634 -11.79008,-77.41554 22.76187,-35.20905 70.89037,-14.15081 93.60867,10.13985 12.41117,13.03383 22.06277,20.51808 29.85887,33.19568 19.75347,32.1221 32.13886,72.91249 40.92525,105.46749 27.95632,64.42647 45.95523,120.81753 87.01581,177.96881 14.23883,21.15531 24.33226,81.56966 57.85264,58.67448 8.78806,-29.15887 21.16461,-57.78876 34.4584,-85.58961 15.20917,-27.95702 23.18025,-60.02653 40.48155,-86.36507 16.81502,-31.94994 23.99433,-68.07388 41.06892,-99.97741 15.78115,-29.24414 27.3148,-58.1854 38.06444,-89.06717 6.34037,-32.11968 22.6653,-49.02199 36.05073,-78.69295 31.8098,-18.1702 47.93882,25.02942 57.71324,48.05842 8.64562,52.43987 -4.58301,106.80061 -21.47426,155.73451 -17.55751,45.09092 -34.8108,95.83825 -56.41878,138.94582 -7.54849,33.33948 -36.40808,81.74898 -47.97112,113.57133 -17.70654,54.74789 -49.59908,81.30108 -56.68315,139.32391 -5.91558,18.7395 10.29427,44.75165 -17.14655,57.36702 -14.20651,10.7837 -34.26972,16.46235 -51.11686,8.44416 z"
       id="path5031"
       inkscape:connector-curvature="0"
       sodipodi:nodetypes="cccccccaccccccccccccccc" />
  </g>
</svg>
