<?xml version="1.0" encoding="UTF-8" standalone="no"?>
<!-- Created with Inkscape (http://www.inkscape.org/) -->

<svg
   xmlns:dc="http://purl.org/dc/elements/1.1/"
   xmlns:cc="http://creativecommons.org/ns#"
   xmlns:rdf="http://www.w3.org/1999/02/22-rdf-syntax-ns#"
   xmlns:svg="http://www.w3.org/2000/svg"
   xmlns="http://www.w3.org/2000/svg"
   xmlns:sodipodi="http://sodipodi.sourceforge.net/DTD/sodipodi-0.dtd"
   xmlns:inkscape="http://www.inkscape.org/namespaces/inkscape"
   width="1000"
   height="1000"
   id="svg3093"
   version="1.1"
   inkscape:version="0.48.2 r9819"
   sodipodi:docname="v.svg">
  <defs
     id="defs3095" />
  <sodipodi:namedview
     id="base"
     pagecolor="#ffffff"
     bordercolor="#666666"
     borderopacity="1.0"
     inkscape:pageopacity="0.0"
     inkscape:pageshadow="2"
     inkscape:zoom="0.12187708"
     inkscape:cx="362.5"
     inkscape:cy="772.59132"
     inkscape:document-units="px"
     inkscape:current-layer="layer1"
     showgrid="true"
     showborder="true"
     inkscape:showpageshadow="false"
     inkscape:window-width="775"
     inkscape:window-height="583"
     inkscape:window-x="141"
     inkscape:window-y="29"
     inkscape:window-maximized="0"
     showguides="true"
     inkscape:guide-bbox="true"
     inkscape:snap-global="false">
    <sodipodi:guide
       orientation="0,1"
       position="114.53282,200.26098"
       id="guide3344" />
  </sodipodi:namedview>
  <metadata
     id="metadata3098">
    <rdf:RDF>
      <cc:Work
         rdf:about="">
        <dc:format>image/svg+xml</dc:format>
        <dc:type
           rdf:resource="http://purl.org/dc/dcmitype/StillImage" />
        <dc:title></dc:title>
      </cc:Work>
    </rdf:RDF>
  </metadata>
  <g
     inkscape:label="Layer 1"
     inkscape:groupmode="layer"
     id="layer1"
     transform="translate(0,-52.362183)">
    <path
       style="fill:#000000;enable-background:new"
       d="M 598.23956,895.42414 C 584.59782,877.13414 576.85453,860.13 559.25762,809.83111 527.06346,717.79343 511.32141,679.6214 505.24318,678.85515 c -4.01816,-0.53784 -5.53098,1.38283 -3.3539,4.19837 2.17796,2.81591 0.8656,8.18055 -2.91697,11.92144 -3.78257,3.74097 -12.9433,23.41743 -20.35911,43.72534 -7.41493,20.30831 -15.70463,39.80401 -18.41822,43.32438 -5.19429,6.74012 -7.76482,13.89571 -16.89019,47.02805 -8.96976,32.566 -17.09368,43.4908 -31.036,41.73458 -7.17109,-0.9047 -13.34851,0.83514 -13.73139,3.86336 -0.3527,3.03118 -7.63127,4.35386 -16.1109,2.94645 -32.03026,-5.31577 -42.99468,-15.96397 -47.96907,-46.59004 -2.70936,-16.68266 -10.73338,-54.76354 -17.83253,-84.6246 -14.50179,-61.00905 -19.33825,-81.58062 -20.41351,-86.83858 -0.40393,-1.98157 -3.49921,-13.43181 -6.87781,-25.44388 -3.37578,-12.01258 -11.10529,-43.00621 -17.17521,-68.87506 -13.83499,-58.98145 -35.88463,-120.73343 -50.25958,-140.76638 -6.05645,-8.4413 -9.31629,-16.6729 -7.23843,-18.29078 2.07517,-1.61846 1.41987,-17.00391 -1.46221,-34.18938 -2.87923,-17.18616 -2.88128,-33.08246 -0.002,-35.32572 2.87847,-2.24273 5.76108,-6.11867 6.40821,-8.61197 10.98501,-42.38161 58.21194,-28.4827 93.18387,27.42475 15.77037,25.21033 77.89973,248.13518 75.17896,269.74551 -0.69157,5.38721 1.39475,11.92377 4.60426,14.52286 6.90361,5.58818 23.26781,-27.40445 32.6166,-65.76371 3.6549,-14.98845 7.26114,-27.17403 8.01411,-27.07939 1.48201,0.17245 6.95344,-17.58214 13.09816,-42.52224 2.11196,-8.58005 9.85663,-19.82265 17.20827,-24.98469 12.19612,-8.562 15.96675,-7.90784 42.99956,7.45638 16.29964,9.26264 29.15847,20.70426 28.57852,25.4262 -0.54982,4.72526 4.65502,13.25191 11.63038,18.95471 6.97814,5.70275 12.19569,14.2871 11.59143,19.07494 -0.63078,4.78512 3.55269,9.29179 9.2335,10.00764 5.67995,0.7312 9.71289,6.22149 8.95491,12.23499 -0.76438,6.01286 7.13169,30.87718 17.52937,55.2513 10.3985,24.37496 18.55805,47.07815 18.13406,50.45176 -0.39302,3.37777 1.75371,8.17901 4.84062,10.67911 3.19354,2.5852 13.6887,-61.74675 24.34968,-149.25227 10.30293,-84.58733 21.85131,-169.20289 25.65747,-188.03501 12.37,-61.19234 31.70644,-64.26894 75.21225,-11.96704 28.59584,34.37895 28.89017,35.34691 20.54788,67.54408 -9.39187,36.24931 -27.63755,176.92088 -46.83854,361.14369 -11.66981,111.96235 -13.82542,122.37236 -28.69592,138.58507 -22.37734,24.39377 -66.46133,18.68983 -88.9944,-11.51523 z"
       id="path5033"
       inkscape:connector-curvature="0"
       inkscape:transform-center-y="443.06937" />
  </g>
</svg>
