<?xml version="1.0" encoding="UTF-8" standalone="no"?>
<!-- Created with Inkscape (http://www.inkscape.org/) -->

<svg
   xmlns:dc="http://purl.org/dc/elements/1.1/"
   xmlns:cc="http://creativecommons.org/ns#"
   xmlns:rdf="http://www.w3.org/1999/02/22-rdf-syntax-ns#"
   xmlns:svg="http://www.w3.org/2000/svg"
   xmlns="http://www.w3.org/2000/svg"
   xmlns:sodipodi="http://sodipodi.sourceforge.net/DTD/sodipodi-0.dtd"
   xmlns:inkscape="http://www.inkscape.org/namespaces/inkscape"
   width="1000"
   height="1000"
   id="svg3093"
   version="1.1"
   inkscape:version="0.48.2 r9819"
   sodipodi:docname="w.svg">
  <defs
     id="defs3095" />
  <sodipodi:namedview
     id="base"
     pagecolor="#ffffff"
     bordercolor="#666666"
     borderopacity="1.0"
     inkscape:pageopacity="0.0"
     inkscape:pageshadow="2"
     inkscape:zoom="0.12187708"
     inkscape:cx="362.5"
     inkscape:cy="772.59132"
     inkscape:document-units="px"
     inkscape:current-layer="layer1"
     showgrid="true"
     showborder="true"
     inkscape:showpageshadow="false"
     inkscape:window-width="775"
     inkscape:window-height="583"
     inkscape:window-x="141"
     inkscape:window-y="29"
     inkscape:window-maximized="0"
     showguides="true"
     inkscape:guide-bbox="true"
     inkscape:snap-global="false">
    <sodipodi:guide
       orientation="0,1"
       position="114.53282,200.26098"
       id="guide3344" />
  </sodipodi:namedview>
  <metadata
     id="metadata3098">
    <rdf:RDF>
      <cc:Work
         rdf:about="">
        <dc:format>image/svg+xml</dc:format>
        <dc:type
           rdf:resource="http://purl.org/dc/dcmitype/StillImage" />
        <dc:title></dc:title>
      </cc:Work>
    </rdf:RDF>
  </metadata>
  <g
     inkscape:label="Layer 1"
     inkscape:groupmode="layer"
     id="layer1"
     transform="translate(0,-52.362183)">
    <path
       style="fill:#000000;enable-background:new"
       d="m 317.22122,895.74924 c -56.968,-31.4069 -55.705,-38.5458 31.917,-180.4434 20.808,-33.6983 44.711,-68.6869 53.118,-77.7532 l 15.287,-16.4831 -52.224,-50.1928 c -28.722,-27.6051 -55.348,-50.1922 -59.17,-50.1922 -3.821,0 -6.948,-3.2436 -6.948,-7.208 0,-3.9645 -2.931,-7.2083 -6.514,-7.2083 -5.924,0 -29.594,-19.016 -78.501,-63.0716 -9.903,-8.9201 -20.454,-16.2185 -23.449,-16.2185 -20.043,0 -52.817,-101.1483 -36.117,-111.4688 4.321,-2.6724 5.994,-7.8779 3.714,-11.5686 -2.326,-3.76189 10.104,-6.71019 28.289,-6.71019 17.84,0 34.474,3.2964 36.964,7.32569 2.491,4.0295 6.737,6.0375 9.436,4.4635 2.7,-1.5744 14.639,9.3308 26.533,24.2338 11.894,14.9023 31.355,33.8966 43.248,42.2085 20.355,14.2252 50.596,41.4987 137.829,124.3066 l 36.912,35.0404 63.828,-84.1311 c 35.103,-46.2723 70.389,-91.3732 78.415,-100.2242 8.027,-8.8508 28.345,-33.8907 45.153,-55.64359 l 30.56,-39.5514 34.314,11.2715 c 20.811,6.8361 42.397,20.7697 54.852,35.408 18.124,21.30189 19.806,27.22539 14.315,50.43869 -3.421,14.4661 -12.447,29.8715 -20.059,34.233 -18.084,10.3648 -93.864,90.091 -137.717,144.8869 -19.036,23.7871 -37.494,45.194 -41.014,47.5712 -3.522,2.3773 -11.204,13.5759 -17.071,24.8871 -10.591,20.4151 -10.358,20.8555 32.253,60.5517 105.756,98.5207 159.568,151.9011 159.568,158.2875 0,15.4855 -15.883,47.0681 -29.694,59.046 -15.352,13.3142 -30.348,11.5034 -50.945,-6.1522 -6.687,-5.732 -15.254,-8.5108 -19.033,-6.1739 -3.781,2.3363 -12.452,-4.6443 -19.27,-15.5128 -6.814,-10.8684 -42.782,-49.2874 -79.922,-85.3752 -59.947,-58.2508 -68.613,-64.318 -77.214,-54.0615 -20.603,24.5699 -81.903,114.2989 -105.956,155.0953 -13.877,23.5331 -28.472,43.50119 -32.437,44.37349 -3.965,0.8722 -23.427,-7.35599 -43.25,-18.28429 z"
       id="path5035"
       inkscape:connector-curvature="0" />
  </g>
</svg>
