<?xml version="1.0" encoding="UTF-8" standalone="no"?>
<!-- Created with Inkscape (http://www.inkscape.org/) -->

<svg
   xmlns:dc="http://purl.org/dc/elements/1.1/"
   xmlns:cc="http://creativecommons.org/ns#"
   xmlns:rdf="http://www.w3.org/1999/02/22-rdf-syntax-ns#"
   xmlns:svg="http://www.w3.org/2000/svg"
   xmlns="http://www.w3.org/2000/svg"
   xmlns:sodipodi="http://sodipodi.sourceforge.net/DTD/sodipodi-0.dtd"
   xmlns:inkscape="http://www.inkscape.org/namespaces/inkscape"
   width="1000"
   height="1000"
   id="svg3093"
   version="1.1"
   inkscape:version="0.48.2 r9819"
   sodipodi:docname="y.svg">
  <defs
     id="defs3095" />
  <sodipodi:namedview
     id="base"
     pagecolor="#ffffff"
     bordercolor="#666666"
     borderopacity="1.0"
     inkscape:pageopacity="0.0"
     inkscape:pageshadow="2"
     inkscape:zoom="0.45860963"
     inkscape:cx="672.80903"
     inkscape:cy="406.14691"
     inkscape:document-units="px"
     inkscape:current-layer="layer1"
     showgrid="true"
     showborder="true"
     inkscape:showpageshadow="false"
     inkscape:window-width="775"
     inkscape:window-height="583"
     inkscape:window-x="141"
     inkscape:window-y="29"
     inkscape:window-maximized="0"
     showguides="true"
     inkscape:guide-bbox="true"
     inkscape:snap-global="false">
    <sodipodi:guide
       orientation="0,1"
       position="114.53282,200.26098"
       id="guide3344" />
  </sodipodi:namedview>
  <metadata
     id="metadata3098">
    <rdf:RDF>
      <cc:Work
         rdf:about="">
        <dc:format>image/svg+xml</dc:format>
        <dc:type
           rdf:resource="http://purl.org/dc/dcmitype/StillImage" />
        <dc:title />
      </cc:Work>
    </rdf:RDF>
  </metadata>
  <g
     inkscape:label="Layer 1"
     inkscape:groupmode="layer"
     id="layer1"
     transform="translate(0,-52.362183)">
    <path
       style="fill:#000000;enable-background:new"
       d="m 283.01632,227.45664 c -33.41853,-2.45162 -51.29395,31.93593 -38.65191,65.08312 7.03201,64.00388 -5.06315,111.14728 1.68734,175.19614 4.14388,77.82017 8.51503,162.67318 55.58498,228.3438 50.07571,58.13441 70.09087,112.75266 207.75225,108.7795 45.65408,-12.54406 94.33082,-57.97144 120.41592,-99.47488 9.34813,-6.6464 12.46473,39.16198 16.55372,54.35228 1.86085,33.85275 16.0473,67.20691 -0.4085,99.14669 -18.53429,44.51783 -47.80095,75.76958 -97.65181,77.14572 -57.74866,-10.99332 -119.19952,-44.85775 -160.86948,-85.00764 -26.51466,-19.93625 -68.84,-56.184 -103.31486,-47.92479 -44.24038,17.86575 -13.34574,84.28159 9.43348,107.03993 27.58388,32.21298 49.43622,51.06943 80.26496,79.54962 45.21844,30.94897 111.63195,53.75327 168.99849,54.84337 38.35516,2.3615 77.9315,5.8989 115.73589,-1.9996 43.46551,-10.2692 75.0486,-43.85533 92.16301,-83.80357 33.85811,-64.48529 23.99818,-140.15403 14.26581,-209.3933 -14.74498,-73.34878 -14.63785,-148.63336 -30.49215,-221.80815 -8.91078,-41.82288 -12.73261,-84.23943 -21.97328,-125.92966 3.82111,-30.75766 7.77269,-107.14316 -9.7774,-136.37302 -17.33052,-39.95215 -54.20162,-44.49751 -97.30933,-35.75106 -31.31216,8.73945 -44.37992,65.52952 -41.44302,94.00577 3.68558,50.00977 40.90559,151.17029 29.96288,208.33881 C 561.19556,626.0528 531.65463,667.40429 471.76559,663.95247 414.64376,660.66014 382.49423,577.2775 370.48486,525.36711 353.13787,451.97816 355.35642,375.853 352.17575,301.05311 356.24502,263.796 326.63693,227.17246 283.01632,227.45664 z"
       id="path2984"
       inkscape:connector-curvature="0"
       sodipodi:nodetypes="cccccccccccccccccccccccaccc" />
  </g>
</svg>
