<?xml version="1.0" encoding="UTF-8" standalone="no"?>
<!-- Created with Inkscape (http://www.inkscape.org/) -->

<svg
   xmlns:dc="http://purl.org/dc/elements/1.1/"
   xmlns:cc="http://creativecommons.org/ns#"
   xmlns:rdf="http://www.w3.org/1999/02/22-rdf-syntax-ns#"
   xmlns:svg="http://www.w3.org/2000/svg"
   xmlns="http://www.w3.org/2000/svg"
   xmlns:sodipodi="http://sodipodi.sourceforge.net/DTD/sodipodi-0.dtd"
   xmlns:inkscape="http://www.inkscape.org/namespaces/inkscape"
   width="1000"
   height="1000"
   id="svg3093"
   version="1.1"
   inkscape:version="0.48.2 r9819"
   sodipodi:docname="z.svg">
  <defs
     id="defs3095" />
  <sodipodi:namedview
     id="base"
     pagecolor="#ffffff"
     bordercolor="#666666"
     borderopacity="1.0"
     inkscape:pageopacity="0.0"
     inkscape:pageshadow="2"
     inkscape:zoom="0.70611323"
     inkscape:cx="603.85341"
     inkscape:cy="733.55967"
     inkscape:document-units="px"
     inkscape:current-layer="layer1"
     showgrid="true"
     showborder="true"
     inkscape:showpageshadow="false"
     inkscape:window-width="775"
     inkscape:window-height="583"
     inkscape:window-x="141"
     inkscape:window-y="29"
     inkscape:window-maximized="0"
     showguides="true"
     inkscape:guide-bbox="true"
     inkscape:snap-global="false">
    <sodipodi:guide
       orientation="0,1"
       position="114.53282,200.26098"
       id="guide3344" />
  </sodipodi:namedview>
  <metadata
     id="metadata3098">
    <rdf:RDF>
      <cc:Work
         rdf:about="">
        <dc:format>image/svg+xml</dc:format>
        <dc:type
           rdf:resource="http://purl.org/dc/dcmitype/StillImage" />
        <dc:title />
      </cc:Work>
    </rdf:RDF>
  </metadata>
  <g
     inkscape:label="Layer 1"
     inkscape:groupmode="layer"
     id="layer1"
     transform="translate(0,-52.362183)">
    <path
       style="fill:#000000;enable-background:new"
       d="m 330.73879,852.21809 c -35.066,-17.50894 -77.53631,-54.58821 -62.0502,-98.24425 18.54711,-37.48785 65.30771,-45.36088 88.50885,-78.87164 66.21776,-67.81289 130.37922,-138.5025 185.4498,-215.65165 -35.31848,-17.76635 -102.1876,-8.24654 -148.91273,-16.08314 -56.31712,-6.47826 -115.7788,-2.46184 -169.94138,-17.74697 -28.44528,-23.95647 -59.90533,-95.71391 -9.03524,-109.97446 55.76786,1.8556 109.01549,26.30284 166.6435,22.38953 74.32099,2.7314 149.02552,4.14363 223.24246,1.13586 31.41387,-5.92859 49.94741,-26.83908 78.81592,-7.22196 29.73086,3.83867 40.3516,37.72459 57.30869,57.06725 3.24667,74.92732 -50.77817,109.27896 -108.83956,156.52038 -60.76507,72.7081 -137.27661,133.62718 -197.90947,206.32286 15.81222,30.61478 79.377,8.13979 112.65669,15.61367 80.20921,-0.074 160.11884,-10.69094 240.19154,-11.37373 53.01864,3.71247 21.86008,57.44724 -15.21922,73.05807 -42.84873,18.03983 -87.07718,20.88505 -130.61356,28.32786 -105.96223,6.79162 -214.55632,17.72484 -310.29609,-5.26768 z"
       id="path5039"
       inkscape:connector-curvature="0"
       sodipodi:nodetypes="cccccccccccccccscc" />
  </g>
</svg>
