<?xml version="1.0" encoding="UTF-8" standalone="no"?>
<!-- Created with Inkscape (http://www.inkscape.org/) -->

<svg
   xmlns:dc="http://purl.org/dc/elements/1.1/"
   xmlns:cc="http://creativecommons.org/ns#"
   xmlns:rdf="http://www.w3.org/1999/02/22-rdf-syntax-ns#"
   xmlns:svg="http://www.w3.org/2000/svg"
   xmlns="http://www.w3.org/2000/svg"
   xmlns:sodipodi="http://sodipodi.sourceforge.net/DTD/sodipodi-0.dtd"
   xmlns:inkscape="http://www.inkscape.org/namespaces/inkscape"
   width="1000"
   height="1000"
   id="svg3093"
   version="1.1"
   inkscape:version="0.48.2 r9819"
   sodipodi:docname="1.svg">
  <defs
     id="defs3095" />
  <sodipodi:namedview
     id="base"
     pagecolor="#ffffff"
     bordercolor="#666666"
     borderopacity="1.0"
     inkscape:pageopacity="0.0"
     inkscape:pageshadow="2"
     inkscape:zoom="0.13641449"
     inkscape:cx="392.80848"
     inkscape:cy="230.81722"
     inkscape:document-units="px"
     inkscape:current-layer="layer1"
     showgrid="true"
     showborder="true"
     inkscape:showpageshadow="false"
     inkscape:window-width="973"
     inkscape:window-height="641"
     inkscape:window-x="141"
     inkscape:window-y="29"
     inkscape:window-maximized="0"
     showguides="true"
     inkscape:guide-bbox="true"
     inkscape:snap-global="false">
    <sodipodi:guide
       orientation="0,1"
       position="114.53282,200.26098"
       id="guide3344" />
  </sodipodi:namedview>
  <metadata
     id="metadata3098">
    <rdf:RDF>
      <cc:Work
         rdf:about="">
        <dc:format>image/svg+xml</dc:format>
        <dc:type
           rdf:resource="http://purl.org/dc/dcmitype/StillImage" />
        <dc:title></dc:title>
      </cc:Work>
    </rdf:RDF>
  </metadata>
  <g
     inkscape:label="Layer 1"
     inkscape:groupmode="layer"
     id="layer1"
     transform="translate(0,-52.362183)">
    <path
       style="fill:#000000;enable-background:new"
       d="m 513.32861,89.551699 c -3.98405,-0.107953 -7.99226,0.872922 -11.47626,2.808389 -36.87316,20.526882 -84.5333,27.868462 -130.74608,52.423252 -31.77164,12.69747 -79.99579,40.61686 -105.47298,48.45025 -12.43341,2.10483 -23.59946,7.36758 -31.51635,15.29011 -8.70429,8.71049 -13.14936,19.40594 -15.25545,29.12403 -4.21217,19.4362 -0.78368,37.07697 0.69343,46.42509 0.11607,0.7117 0.26653,1.41778 0.45073,2.11496 5.55514,21.39316 20.91694,36.32172 39.17875,43.51268 9.1309,3.59548 19.63983,5.28442 30.64957,2.427 9.17769,-2.38193 17.8756,-8.8076 23.74995,-17.23171 19.46576,-17.7241 71.16672,-37.99499 100.16825,-57.25681 17.05293,-5.36965 30.80945,-15.22569 43.09663,-20.90689 1.90112,-0.87902 3.39571,-1.35155 5.06203,-1.97627 -1.56484,86.11401 -7.7875,172.81514 -10.54012,260.38267 -0.007,0.20868 -0.0282,0.41539 -0.0346,0.62408 -3.68451,61.2318 -12.06599,123.55781 -13.10581,187.84998 -5.09513,35.84839 -0.23831,68.89523 -5.89415,90.31915 -54.19805,8.89179 -111.09416,8.16632 -168.12191,5.58211 -0.0809,-4.5e-4 -0.1618,-4.5e-4 -0.2427,0 -4.40602,-0.14854 -26.78087,-7.81768 -48.71341,-10.71348 -10.96626,-1.44791 -23.83496,-2.15995 -36.82109,5.65144 -12.98613,7.8114 -20.19918,24.29761 -20.49083,40.39226 -0.0438,2.11385 0.21383,4.23373 0.76277,6.27553 3.0867,11.40606 6.27406,29.47333 14.38866,46.84114 4.0573,8.68391 9.52929,17.60447 18.30653,24.82477 6.71054,5.52019 15.57827,9.49448 25.13681,10.95618 0.18931,0.0976 0.36462,0.25645 0.55474,0.34672 5.44758,2.58633 10.13733,2.71741 13.52187,2.53101 6.76908,-0.37277 10.23901,-1.94668 13.20983,-2.94707 2.126,-0.71591 2.98685,-0.9671 3.91787,-1.24817 1.0083,0.17357 2.02852,0.27792 3.05109,0.31204 106.83642,3.38672 201.85648,3.06533 307.23564,-16.58178 74.13926,-9.78506 161.28216,-34.08159 226.76538,-25.70599 13.60386,4.59746 28.658,3.25152 39.66415,-3.25911 12.11536,-7.16679 19.37223,-18.38418 23.09119,-30.06016 3.71897,-11.67598 4.19256,-24.4617 -0.38138,-36.99445 -4.04233,-11.07609 -13.31666,-21.69955 -25.72623,-27.14775 -17.26198,-14.30003 -37.80072,-19.92802 -56.51448,-21.08025 -64.40709,2.69505 -132.54979,6.31353 -193.42331,15.86811 -7.4957,1.15055 -12.76499,1.3069 -16.53829,0.86679 -1.36886,-43.44666 2.0098,-88.23988 3.36313,-134.07454 0.01,-0.1158 0.0243,-0.23093 0.0346,-0.34672 11.59798,-129.00234 12.83103,-257.63106 23.88863,-384.36781 0.0367,-0.4499 0.0599,-0.90089 0.0693,-1.35219 0.57166,-21.60504 10.80626,-50.28403 19.58937,-69.82832 2.22103,-4.94491 2.56076,-10.7079 0.93613,-15.87953 C 590.88946,114.61033 553.02636,90.613778 513.3285,89.551699 z"
       id="path6501"
       inkscape:connector-curvature="0"
       sodipodi:nodetypes="ccccssccssccscccccccssccssccssccccssscccccccccccc" />
  </g>
</svg>
