<?xml version="1.0" encoding="UTF-8" standalone="no"?>
<!-- Created with Inkscape (http://www.inkscape.org/) -->

<svg
   xmlns:dc="http://purl.org/dc/elements/1.1/"
   xmlns:cc="http://creativecommons.org/ns#"
   xmlns:rdf="http://www.w3.org/1999/02/22-rdf-syntax-ns#"
   xmlns:svg="http://www.w3.org/2000/svg"
   xmlns="http://www.w3.org/2000/svg"
   xmlns:sodipodi="http://sodipodi.sourceforge.net/DTD/sodipodi-0.dtd"
   xmlns:inkscape="http://www.inkscape.org/namespaces/inkscape"
   width="1000"
   height="1000"
   id="svg3093"
   version="1.1"
   inkscape:version="0.48.2 r9819"
   sodipodi:docname="0.svg">
  <defs
     id="defs3095">
    <filter
       inkscape:collect="always"
       id="filter4175-6"
       color-interpolation-filters="sRGB">
      <feBlend
         inkscape:collect="always"
         mode="lighten"
         in2="BackgroundImage"
         id="feBlend4177-8" />
    </filter>
  </defs>
  <sodipodi:namedview
     id="base"
     pagecolor="#ffffff"
     bordercolor="#666666"
     borderopacity="1.0"
     inkscape:pageopacity="0.0"
     inkscape:pageshadow="2"
     inkscape:zoom="0.55130618"
     inkscape:cx="907.40215"
     inkscape:cy="649.86358"
     inkscape:document-units="px"
     inkscape:current-layer="layer1"
     showgrid="true"
     showborder="true"
     inkscape:showpageshadow="false"
     inkscape:window-width="1253"
     inkscape:window-height="765"
     inkscape:window-x="349"
     inkscape:window-y="20"
     inkscape:window-maximized="0"
     showguides="true"
     inkscape:guide-bbox="true"
     inkscape:snap-global="false">
    <sodipodi:guide
       orientation="0,1"
       position="114.53282,200.26098"
       id="guide3344" />
  </sodipodi:namedview>
  <metadata
     id="metadata3098">
    <rdf:RDF>
      <cc:Work
         rdf:about="">
        <dc:format>image/svg+xml</dc:format>
        <dc:type
           rdf:resource="http://purl.org/dc/dcmitype/StillImage" />
        <dc:title></dc:title>
      </cc:Work>
    </rdf:RDF>
  </metadata>
  <g
     inkscape:label="Layer 1"
     inkscape:groupmode="layer"
     id="layer1"
     transform="translate(0,-52.362183)">
    <path
       sodipodi:type="inkscape:offset"
       inkscape:radius="9.0693703"
       inkscape:original="M 477.96875 79.59375 C 448.62506 79.391068 419.27539 81.003665 390.28125 84.625 C 318.34818 103.63949 244.87921 131.52933 191.34375 185.09375 C 184.90315 215.89908 195.982 272.43478 232.84375 278.5625 C 267.78677 265.86987 290.268 233.56772 319.03125 210.90625 C 369.36547 178.98494 430.18457 166.36372 489.375 168.25 C 537.99027 169.73645 594.98713 165.07777 633.34375 200.78125 C 657.19959 230.08264 624.65679 268.18176 611.53125 295.9375 C 570.69578 363.98898 511.20319 417.36518 462 478.84375 C 384.34723 557.3874 305.08295 634.49885 230.5 716.03125 C 211.5895 743.64954 172.54051 758.42275 184.375 798.5625 C 193.53594 820.87329 189.69245 842.46696 211.25 848.5625 C 229.03707 866.36743 261.53432 849.65917 283.53125 846.65625 C 356.71666 834.75186 431.05113 830.39831 504.59375 820.75 C 599.49019 811.42468 695.04708 810.59855 790.34375 808.3125 C 806.18961 812.11305 812.37397 803.6219 813.40625 788.625 C 822.40479 748.8189 768.60841 731.23129 736.96875 728.0625 C 603.73127 718.22993 470.50727 734.39768 337.28125 736.75 C 400.47201 675.39762 463.41087 613.70027 522.875 548.6875 C 558.99862 506.6043 600.79596 468.9963 632.65625 423.53125 C 672.27399 382.20876 699.13652 328.87434 712.53125 273.34375 C 726.73798 218.93234 699.88045 162.04851 656.15625 129.40625 C 631.16933 105.11773 599.61797 91.384858 565.625 85.46875 C 536.64922 81.809467 507.31244 79.796432 477.96875 79.59375 z "
       style="fill:#000000;enable-background:new"
       id="path3041"
       d="m 478.03125,70.53125 c -29.71771,-0.205265 -59.46254,1.420167 -88.875,5.09375 a 9.0702772,9.0702772 0 0 0 -1.1875,0.21875 C 315.39239,95.028286 240.29304,123.30201 184.9375,178.6875 a 9.0702772,9.0702772 0 0 0 -2.46875,4.5625 c -3.66093,17.5102 -2.37674,40.33326 4.8125,60.84375 7.18924,20.51049 21.32575,39.6266 44.0625,43.40625 a 9.0702772,9.0702772 0 0 0 4.59375,-0.40625 c 38.26573,-13.89957 61.26425,-47.3125 88.40625,-68.8125 48.36976,-30.5166 107.22802,-42.80186 164.75,-40.96875 49.17673,1.50362 102.75911,-2.23374 137.5625,29.65625 4.42559,5.62251 6.04958,11.04373 6.125,17.25 0.0776,6.38278 -1.7541,13.63017 -4.875,21.28125 -6.1354,15.04132 -17.02712,30.95299 -24.15625,45.78125 -0.004,0.008 0.004,0.0231 0,0.0312 -39.83064,66.36662 -98.76958,119.40779 -148.53125,181.5 C 377.7574,551.15356 298.52349,628.23388 223.8125,709.90625 a 9.0702772,9.0702772 0 0 0 -0.78125,1 c -8.23707,12.03002 -22.32435,22.45166 -33.9375,35.71875 -11.61315,13.26709 -20.17403,31.54532 -13.40625,54.5 A 9.0702772,9.0702772 0 0 0 176,802 c 4.02069,9.7921 5.23951,20.17385 8.53125,30.40625 3.11218,9.67424 9.92604,19.76001 22.15625,24.09375 11.68431,10.18185 27.21939,10.24199 40.71875,7.84375 14.20216,-2.5231 27.98579,-7.40999 37.34375,-8.6875 a 9.0702772,9.0702772 0 0 0 0.25,-0.0625 c 72.46875,-11.78782 146.5967,-16.13605 220.46875,-25.8125 0.10393,-0.0136 0.20857,-0.0176 0.3125,-0.0312 94.0815,-9.22647 189.14289,-10.09883 284.25,-12.375 9.04387,1.7292 17.86959,0.29292 23.6875,-5.3125 6.20905,-5.98227 8.15671,-14.19318 8.75,-22.8125 l -0.0312,0 c 2.24613,-11.46966 0.20065,-22.30999 -4.90625,-31.03125 -5.31358,-9.07422 -13.40483,-15.98597 -22.4375,-21.40625 -18.06534,-10.84056 -40.25057,-16.08184 -57.21875,-17.78125 a 9.0702772,9.0702772 0 0 0 -0.25,0 C 611.0268,709.68864 485.24429,723.40067 360.25,727 417.85439,670.93433 475.12745,614.32692 529.5625,554.8125 a 9.0702772,9.0702772 0 0 0 0.1875,-0.21875 C 565.29547,513.18409 607.28106,475.47503 639.90625,429 c 40.44845,-42.50519 67.74551,-96.84806 81.40625,-153.375 0.0124,-0.0514 0.0188,-0.10481 0.0312,-0.15625 C 736.55529,216.908 707.8977,156.69317 661.59375,122.125 635.2335,96.881596 602.20406,82.625502 567.1875,76.53125 a 9.0702772,9.0702772 0 0 0 -0.4375,-0.0625 c -29.32053,-3.70282 -59.00205,-5.732242 -88.71875,-5.9375 z" />
  </g>
</svg>
