<?xml version="1.0" encoding="UTF-8" standalone="no"?>
<!-- Created with Inkscape (http://www.inkscape.org/) -->

<svg
   xmlns:dc="http://purl.org/dc/elements/1.1/"
   xmlns:cc="http://creativecommons.org/ns#"
   xmlns:rdf="http://www.w3.org/1999/02/22-rdf-syntax-ns#"
   xmlns:svg="http://www.w3.org/2000/svg"
   xmlns="http://www.w3.org/2000/svg"
   xmlns:sodipodi="http://sodipodi.sourceforge.net/DTD/sodipodi-0.dtd"
   xmlns:inkscape="http://www.inkscape.org/namespaces/inkscape"
   width="1000"
   height="1000"
   id="svg3093"
   version="1.1"
   inkscape:version="0.48.2 r9819"
   sodipodi:docname="3.svg">
  <defs
     id="defs3095" />
  <sodipodi:namedview
     id="base"
     pagecolor="#ffffff"
     bordercolor="#666666"
     borderopacity="1.0"
     inkscape:pageopacity="0.0"
     inkscape:pageshadow="2"
     inkscape:zoom="0.55130618"
     inkscape:cx="907.40215"
     inkscape:cy="649.86358"
     inkscape:document-units="px"
     inkscape:current-layer="layer1"
     showgrid="true"
     showborder="true"
     inkscape:showpageshadow="false"
     inkscape:window-width="1253"
     inkscape:window-height="765"
     inkscape:window-x="136"
     inkscape:window-y="22"
     inkscape:window-maximized="0"
     showguides="true"
     inkscape:guide-bbox="true"
     inkscape:snap-global="false">
    <sodipodi:guide
       orientation="0,1"
       position="114.53282,200.26098"
       id="guide3344" />
  </sodipodi:namedview>
  <metadata
     id="metadata3098">
    <rdf:RDF>
      <cc:Work
         rdf:about="">
        <dc:format>image/svg+xml</dc:format>
        <dc:type
           rdf:resource="http://purl.org/dc/dcmitype/StillImage" />
        <dc:title></dc:title>
      </cc:Work>
    </rdf:RDF>
  </metadata>
  <g
     inkscape:label="Layer 1"
     inkscape:groupmode="layer"
     id="layer1"
     transform="translate(0,-52.362183)">
    <path
       style="fill:#000000;enable-background:new"
       d="m 412.17007,854.69722 c -80.45082,-8.30306 -157.38063,-35.07171 -233.26551,-61.59159 -35.28018,-19.75974 -45.6749,-66.83738 -50.13052,-104.25347 55.89616,-60.55231 126.25415,43.43734 182.01961,55.1953 119.42985,24.41094 246.73463,21.33761 362.27733,-19.3497 38.36521,-17.95459 64.28558,-34.25405 65.40528,-64.96159 1.36533,-37.44392 -36.25137,-72.16972 -73.77259,-84.81043 -46.19732,-21.88717 -82.85406,-35.58109 -133.60559,-41.35869 -53.01837,-11.30509 -107.51198,-12.71313 -160.7832,-21.44809 -51.24162,-23.05439 -56.39391,-61.53045 -57.06841,-90.76784 -16.68909,-30.60229 45.83548,-36.49372 68.93708,-35.73586 65.99378,-7.37156 132.74941,-19.98796 191.028,-53.46103 40.12825,-19.3426 89.76968,-44.99422 84.90752,-84.66637 -4.09797,-33.4368 -52.50859,-42.89527 -86.67693,-51.9656 -66.60488,-10.67708 -135.93285,-11.89808 -202.14843,1.92732 -38.49163,7.52227 -73.34493,23.93732 -105.09317,46.33202 -31.68237,21.58366 -66.38763,-9.86193 -77.56102,-36.09848 -10.30733,-24.20294 -18.49492,-80.37889 25.57141,-74.66133 92.41089,-36.450619 192.19715,-51.923962 291.34255,-46.942987 100.24119,0.07068 202.65222,50.327777 257.19822,135.645707 20.29197,39.87325 6.78473,90.52513 -16.64783,126.21637 -37.1115,48.08701 -91.64084,79.94342 -148.55985,99.12814 29.83657,8.80206 76.28073,27.56222 106.98468,33.61996 69.81511,28.05966 86.70743,44.00122 130.34977,107.51711 24.38209,31.38751 20.64725,120.05529 -9.77503,152.66777 -51.5068,59.6329 -73.47296,78.85917 -148.35747,100.94474 -86.23881,16.17354 -175.13892,25.56063 -262.5759,12.87862 z"
       id="path6345"
       inkscape:connector-curvature="0"
       sodipodi:nodetypes="cccccaccccccacccacccccccccc" />
  </g>
</svg>
