<?xml version="1.0" encoding="UTF-8" standalone="no"?>
<!-- Created with Inkscape (http://www.inkscape.org/) -->

<svg
   xmlns:dc="http://purl.org/dc/elements/1.1/"
   xmlns:cc="http://creativecommons.org/ns#"
   xmlns:rdf="http://www.w3.org/1999/02/22-rdf-syntax-ns#"
   xmlns:svg="http://www.w3.org/2000/svg"
   xmlns="http://www.w3.org/2000/svg"
   xmlns:sodipodi="http://sodipodi.sourceforge.net/DTD/sodipodi-0.dtd"
   xmlns:inkscape="http://www.inkscape.org/namespaces/inkscape"
   width="1000"
   height="1000"
   id="svg3093"
   version="1.1"
   inkscape:version="0.48.2 r9819"
   sodipodi:docname="4.svg">
  <defs
     id="defs3095" />
  <sodipodi:namedview
     id="base"
     pagecolor="#ffffff"
     bordercolor="#666666"
     borderopacity="1.0"
     inkscape:pageopacity="0.0"
     inkscape:pageshadow="2"
     inkscape:zoom="0.55130618"
     inkscape:cx="979.95711"
     inkscape:cy="504.75366"
     inkscape:document-units="px"
     inkscape:current-layer="layer1"
     showgrid="true"
     showborder="true"
     inkscape:showpageshadow="false"
     inkscape:window-width="1253"
     inkscape:window-height="765"
     inkscape:window-x="136"
     inkscape:window-y="22"
     inkscape:window-maximized="0"
     showguides="true"
     inkscape:guide-bbox="true"
     inkscape:snap-global="false">
    <sodipodi:guide
       orientation="0,1"
       position="114.53282,200.26098"
       id="guide3344" />
  </sodipodi:namedview>
  <metadata
     id="metadata3098">
    <rdf:RDF>
      <cc:Work
         rdf:about="">
        <dc:format>image/svg+xml</dc:format>
        <dc:type
           rdf:resource="http://purl.org/dc/dcmitype/StillImage" />
        <dc:title />
      </cc:Work>
    </rdf:RDF>
  </metadata>
  <g
     inkscape:label="Layer 1"
     inkscape:groupmode="layer"
     id="layer1"
     transform="translate(0,-52.362183)">
    <path
       style="fill:#000000;enable-background:new"
       d="m 448.04153,71.065814 c -11.11167,-0.485369 -22.81772,1.85769 -32.88521,8.420768 -2.3909,1.552094 -3.94982,4.165969 -4.10237,6.878502 -1.94333,35.311006 -33.6968,62.163856 -56.47388,95.805516 -43.31846,63.91791 -92.55182,120.44034 -139.18315,190.65482 -24.19784,29.01545 -37.53194,62.13489 -61.56877,85.62656 -0.86915,0.8415 -1.55908,1.84328 -2.01812,2.93031 -7.60184,18.3557 -5.43705,38.43585 1.48877,56.57029 6.92582,18.13443 18.64412,34.61052 31.95887,46.76148 1.66697,1.5286 3.9503,2.45857 6.28589,2.56016 58.13959,2.39288 116.35621,1.96984 184.68644,-0.79679 68.33026,-2.76664 82.33174,-1.25994 91.43016,7.9529 9.12702,71.12042 6.16534,143.6633 3.53996,216.1022 -0.002,0.0723 -0.0305,0.14366 -0.0331,0.21591 -1.7774,16.4395 -3.48196,35.70518 -0.13233,54.28774 3.36384,18.66144 12.48246,37.17236 32.05811,48.82812 0.11955,0.0745 0.2409,0.14649 0.36392,0.21591 18.11909,9.72214 40.54489,7.72303 57.89648,-1.35719 16.921,-8.85489 29.64856,-26.30279 25.93763,-46.73064 -3.19372,-96.19956 -6.51438,-192.39581 -9.69353,-288.58866 83.28464,-13.54293 157.87382,-12.27972 248.16473,-27.37978 0.0885,-0.0194 0.17677,-0.04 0.26467,-0.0617 15.36146,-2.95474 26.48783,-9.25813 32.42204,-18.3838 5.93419,-9.12567 5.86456,-19.8759 2.71285,-29.45727 -6.18737,-18.81001 5.62199,-46.48292 -75.67021,-46.21011 -109.93833,0.2728 -185.95894,14.49991 -192.70866,14.05846 -1.46404,-0.084 -2.94802,0.15011 -4.30088,0.67859 -4.44289,1.70468 -7.44057,2.0388 -8.86643,1.94326 -1.42587,-0.0956 -1.40903,-0.20234 -1.95194,-0.74029 -1.08582,-1.07589 -3.15185,-6.41741 -3.60613,-14.0963 -0.45428,-7.6789 0.10502,-17.17401 -1.46854,-69.04354 -1.57357,-51.86954 -14.14264,-120.74833 -9.813,-188.73067 0.0106,-0.23636 0.0106,-0.47308 0,-0.70944 -0.80677,-35.66566 -27.4892,-66.29905 -61.03949,-80.012719 -9.49717,-16.037304 -30.80875,-27.192919 -53.69485,-28.192607 z m 9.29652,176.836126 c 0.85614,4.41445 1.30839,9.59439 0.99251,13.20179 -0.0356,0.36903 -0.0467,0.74013 -0.0331,1.11043 2.93475,67.6637 14.91285,134.823 5.42573,199.63081 -55.05546,4.39377 -111.08586,3.1032 -167.37046,3.57805 27.8229,-44.09159 56.98388,-87.44294 88.03573,-129.55027 0.0537,-0.0729 0.11172,-0.14312 0.16542,-0.21592 24.08767,-28.62547 48.36914,-56.49745 71.19614,-85.10219 0.43168,-0.53529 0.79867,-1.11591 1.09176,-1.72734 0.18024,-0.38315 0.32009,-0.57051 0.49625,-0.92536 z"
       id="path2984"
       inkscape:connector-curvature="0"
       sodipodi:nodetypes="sccccccsccccccsccsccccsscccsssccccsccccccccccc" />
  </g>
</svg>
