<?xml version="1.0" encoding="UTF-8" standalone="no"?>
<!-- Created with Inkscape (http://www.inkscape.org/) -->

<svg
   xmlns:dc="http://purl.org/dc/elements/1.1/"
   xmlns:cc="http://creativecommons.org/ns#"
   xmlns:rdf="http://www.w3.org/1999/02/22-rdf-syntax-ns#"
   xmlns:svg="http://www.w3.org/2000/svg"
   xmlns="http://www.w3.org/2000/svg"
   xmlns:sodipodi="http://sodipodi.sourceforge.net/DTD/sodipodi-0.dtd"
   xmlns:inkscape="http://www.inkscape.org/namespaces/inkscape"
   width="1000"
   height="1000"
   id="svg3093"
   version="1.1"
   inkscape:version="0.48.2 r9819"
   sodipodi:docname="4.svg">
  <defs
     id="defs3095" />
  <sodipodi:namedview
     id="base"
     pagecolor="#ffffff"
     bordercolor="#666666"
     borderopacity="1.0"
     inkscape:pageopacity="0.0"
     inkscape:pageshadow="2"
     inkscape:zoom="0.55130618"
     inkscape:cx="979.95711"
     inkscape:cy="504.75366"
     inkscape:document-units="px"
     inkscape:current-layer="layer1"
     showgrid="true"
     showborder="true"
     inkscape:showpageshadow="false"
     inkscape:window-width="1253"
     inkscape:window-height="765"
     inkscape:window-x="136"
     inkscape:window-y="22"
     inkscape:window-maximized="0"
     showguides="true"
     inkscape:guide-bbox="true"
     inkscape:snap-global="false">
    <sodipodi:guide
       orientation="0,1"
       position="114.53282,200.26098"
       id="guide3344" />
  </sodipodi:namedview>
  <metadata
     id="metadata3098">
    <rdf:RDF>
      <cc:Work
         rdf:about="">
        <dc:format>image/svg+xml</dc:format>
        <dc:type
           rdf:resource="http://purl.org/dc/dcmitype/StillImage" />
        <dc:title></dc:title>
      </cc:Work>
    </rdf:RDF>
  </metadata>
  <g
     inkscape:label="Layer 1"
     inkscape:groupmode="layer"
     id="layer1"
     transform="translate(0,-52.362183)">
    <path
       sodipodi:type="inkscape:offset"
       inkscape:radius="11.01207"
       inkscape:original="M 503.03125 88.84375 C 493.68843 88.868613 484.33736 89.0376 475 89.34375 C 436.18013 89.133384 398.47226 98.610162 361.25 107.4375 C 327.11532 122.61005 289.0235 132.51378 251.65625 131.6875 C 215.17883 116.05496 213.58495 192.77564 213.53125 208.6875 C 222.32274 281.35703 203.0823 353.27026 196.40625 425.25 C 195.34734 459.80293 180.36273 492.33934 185.53125 527.3125 C 191.31343 555.31006 235.13817 568.54646 277.65625 534.84375 C 320.17433 501.14104 354.25301 487.19992 387.875 475.125 C 452.97674 462.73762 518.75686 465.7407 582.34375 487.0625 C 623.71882 503.19424 651.67517 525.95301 678.03125 562.84375 C 700.26129 601.10408 694.46574 639.06968 669.5625 669.3125 C 624.6645 727.68148 552.42592 770.89405 476.1875 779.78125 C 435.72568 779.89118 393.04548 780.34669 354.53125 766.9375 C 314.93049 753.15002 320.39181 712.00811 284.15625 717 C 268.86073 760.71994 282.14245 789.74962 308.625 814.5625 C 345.23731 842.52833 390.84249 857.7761 435.75 866.21875 C 467.03579 869.72855 499.05736 869.83264 529.75 862.0625 C 624.44392 834.04472 712.37793 772.98049 763.125 687.1875 C 784.51483 657.05307 784.37843 619.08701 780.28125 583.90625 C 758.27687 511.52165 702.06308 453.55027 637.03125 416.96875 C 604.60883 401.03241 570.15592 388.48757 533.9375 384.1875 C 494.76051 380.23556 454.03882 369.74039 415.03125 378.03125 C 369.19483 381.16592 327.84544 404.0106 283.1875 412.03125 C 285.75731 364.86875 292.98136 318.01711 298.78125 271.15625 C 297.78163 233.78089 312.9458 200.47586 353.28125 197.375 C 418.33515 173.70721 488.09409 169.86414 556.6875 170.1875 C 600.27223 176.37541 644.74417 179.54188 688.09375 188.53125 C 714.06992 204.40772 756.02423 204.64847 767.0625 171.1875 C 761.59124 139.23595 728.13415 115.92174 698.25 106.09375 C 633.86992 95.223092 568.43099 88.669706 503.03125 88.84375 z "
       style="fill:#000000;enable-background:new"
       id="path3124"
       d="m 503,77.84375 c -9.3103,0.02478 -18.63723,0.199292 -27.9375,0.5 -0.1456,0.0047 -0.29191,-0.0048 -0.4375,0 -40.48911,-0.147573 -78.91495,9.602435 -115.90625,18.375 a 11.013171,11.013171 0 0 0 -1.9375,0.65625 c -32.53511,14.46155 -68.62104,23.77886 -103.4375,23.28125 -11.41975,-3.75394 -23.56309,-0.76127 -30.78125,6.40625 -7.77705,7.72249 -11.54921,17.95766 -14.28125,28.53125 -5.46408,21.14718 -5.72211,44.79861 -5.75,53.0625 A 11.013171,11.013171 0 0 0 202.59375,210 c 8.45737,69.90772 -10.3628,140.97328 -17.15625,214.21875 a 11.013171,11.013171 0 0 0 -0.0312,0.6875 c -0.96796,31.58522 -16.54421,65.03574 -10.78125,104.03125 a 11.013171,11.013171 0 0 0 0.125,0.59375 c 3.93614,19.05896 20.90126,32.43016 41.40625,35.5625 20.50499,3.13234 45.09139,-3.1936 68.34375,-21.625 41.1055,-32.583 73.27704,-45.7667 106.3125,-57.65625 63.08029,-11.86542 126.45089,-8.90761 187.8125,11.625 39.31047,15.38021 64.78903,36.08383 90.0625,71.3125 19.9656,34.65651 14.85435,66.26329 -7.625,93.5625 a 11.013171,11.013171 0 0 0 -0.21875,0.28125 c -42.92693,55.80652 -112.68269,97.55893 -185.46875,106.1875 -40.27492,0.11016 -81.39455,0.22262 -117.21875,-12.25 -16.43979,-5.72371 -22.66871,-16.17896 -31.09375,-28 -4.21252,-5.91052 -8.89317,-12.25394 -16.21875,-17 -7.32558,-4.74606 -17.13975,-6.95946 -28.1875,-5.4375 A 11.013171,11.013171 0 0 0 273.75,713.375 c -8.22672,23.51485 -9.03419,44.41231 -3.59375,62.65625 5.44044,18.24394 16.8029,33.31905 30.9375,46.5625 a 11.013171,11.013171 0 0 0 0.84375,0.71875 c 38.58345,29.47146 85.83809,45.0814 131.78125,53.71875 a 11.013171,11.013171 0 0 0 0.8125,0.125 c 32.08911,3.59992 65.42443,3.81684 97.90625,-4.40625 a 11.013171,11.013171 0 0 0 0.4375,-0.125 c 96.79747,-28.64017 186.73068,-90.86603 239.21875,-179.0625 0.071,-0.10002 0.11694,-0.21235 0.1875,-0.3125 0.096,-0.16173 0.21673,-0.30684 0.3125,-0.46875 23.38175,-33.56871 22.7925,-74.37165 18.625,-110.15625 a 11.013171,11.013171 0 0 0 -0.40625,-1.90625 C 767.76604,504.90618 709.43876,445.06436 642.4375,407.375 a 11.013171,11.013171 0 0 0 -0.5625,-0.28125 C 608.73416,390.80429 573.1465,377.7493 535.25,373.25 a 11.013171,11.013171 0 0 0 -0.21875,-0.0312 c -37.69828,-3.80278 -79.24241,-14.74789 -121.28125,-6.125 -43.3565,3.09714 -81.07446,21.60102 -118.46875,31 3.07441,-41.63542 9.21752,-83.41837 14.4375,-125.59375 a 11.013171,11.013171 0 0 0 0.0625,-1.625 c -0.45768,-17.11259 2.93218,-32.65229 9.96875,-43.46875 7.03657,-10.81646 17.10634,-17.73494 34.375,-19.0625 a 11.013171,11.013171 0 0 0 2.90625,-0.625 C 419.83671,184.86898 487.9765,180.89859 555.875,181.1875 c 43.33657,6.11838 86.77433,9.36516 128.46875,17.875 14.86943,8.51511 33.00273,12.64458 50.375,10.1875 18.14755,-2.56674 35.99057,-13.94528 42.8125,-34.625 a 11.013171,11.013171 0 0 0 0.375,-5.28125 C 771.3249,130.90939 734.16425,106.30562 701.6875,95.625 A 11.013171,11.013171 0 0 0 700.09375,95.25 C 635.22215,84.296347 569.15492,77.667696 503,77.84375 z" />
  </g>
</svg>
