<?xml version="1.0" encoding="UTF-8" standalone="no"?>
<!-- Created with Inkscape (http://www.inkscape.org/) -->

<svg
   xmlns:dc="http://purl.org/dc/elements/1.1/"
   xmlns:cc="http://creativecommons.org/ns#"
   xmlns:rdf="http://www.w3.org/1999/02/22-rdf-syntax-ns#"
   xmlns:svg="http://www.w3.org/2000/svg"
   xmlns="http://www.w3.org/2000/svg"
   xmlns:sodipodi="http://sodipodi.sourceforge.net/DTD/sodipodi-0.dtd"
   xmlns:inkscape="http://www.inkscape.org/namespaces/inkscape"
   width="1000"
   height="1000"
   id="svg3093"
   version="1.1"
   inkscape:version="0.48.2 r9819"
   sodipodi:docname="5.svg">
  <defs
     id="defs3095" />
  <sodipodi:namedview
     id="base"
     pagecolor="#ffffff"
     bordercolor="#666666"
     borderopacity="1.0"
     inkscape:pageopacity="0.0"
     inkscape:pageshadow="2"
     inkscape:zoom="0.55130618"
     inkscape:cx="979.95711"
     inkscape:cy="504.75366"
     inkscape:document-units="px"
     inkscape:current-layer="layer1"
     showgrid="true"
     showborder="true"
     inkscape:showpageshadow="false"
     inkscape:window-width="1253"
     inkscape:window-height="765"
     inkscape:window-x="136"
     inkscape:window-y="22"
     inkscape:window-maximized="0"
     showguides="true"
     inkscape:guide-bbox="true"
     inkscape:snap-global="false">
    <sodipodi:guide
       orientation="0,1"
       position="114.53282,200.26098"
       id="guide3344" />
  </sodipodi:namedview>
  <metadata
     id="metadata3098">
    <rdf:RDF>
      <cc:Work
         rdf:about="">
        <dc:format>image/svg+xml</dc:format>
        <dc:type
           rdf:resource="http://purl.org/dc/dcmitype/StillImage" />
        <dc:title></dc:title>
      </cc:Work>
    </rdf:RDF>
  </metadata>
  <g
     inkscape:label="Layer 1"
     inkscape:groupmode="layer"
     id="layer1"
     transform="translate(0,-52.362183)">
    <path
       sodipodi:type="inkscape:offset"
       inkscape:radius="9.159379"
       inkscape:original="M 559.75 78.84375 C 555.69255 78.639718 551.63798 79.01949 547.5625 80.0625 C 505.57731 82.292964 469.19218 105.67658 430.84375 120.78125 C 349.96253 176.39641 290.69824 237.49809 240.96875 321.90625 C 198.42505 391.561 180.76636 490.12737 190.46875 570.03125 C 194.24871 629.67384 216.93507 686.67752 251.6875 734.90625 C 268.83837 765.72017 294.70314 789.87151 325.34375 807.03125 C 359.26502 831.69983 398.01682 847.59423 438.21875 858.9375 C 463.63863 864.47932 489.83814 865.2766 515.75 866.46875 C 600.36846 874.69424 686.778 851.02858 752.03125 801.25 C 793.98609 776.05817 808.70497 707.87219 803.375 659.8125 C 782.86549 509.58447 702.85951 476.09385 607.40625 441.8125 C 517.66588 416.14366 420.36349 437.34884 337.78125 476.59375 C 276.61439 510.86586 259.67288 548.84984 269.6875 505.3125 C 274.92209 465.87266 292.68363 417.88971 311.96875 383.25 C 342.42562 317.29511 392.35888 262.52061 450 219.0625 C 481.07244 198.46832 513.78903 172.31044 551.78125 169.21875 C 585.80064 178.23566 623.49741 168.37993 632.46875 130.5 C 615.47096 109.65846 588.15217 80.271971 559.75 78.84375 z M 560.375 504.9375 C 623.89557 508.09171 676.88352 542.86485 709.5 598.78125 C 736.29504 632.30898 737.55407 678.24954 709.1875 707.40625 C 685.30273 729.34295 671.12958 755.64708 638.8125 760.75 C 606.6174 776.52542 569.77355 781.34882 534.375 786 C 511.2738 787.43557 488.04759 787.24144 464.96875 785.5 C 434.19524 787.2829 409.41735 772.56811 384.75 761.5625 C 336.87073 739.35068 311.60521 709.01809 293.3125 661.09375 C 270.38413 629.51319 303.87758 584.29924 331.09375 575.5625 C 398.87349 531.12241 479.39106 506.69606 560.375 504.9375 z "
       style="fill:#000000;enable-background:new"
       id="path3153"
       d="m 560.21875,69.6875 c -4.50979,-0.226778 -9.1048,0.243262 -13.65625,1.28125 C 501.70001,73.51995 464.54666,97.658073 427.5,112.25 a 9.1602949,9.1602949 0 0 0 -1.84375,0.96875 c -81.6973,56.17631 -142.15234,118.49171 -192.5,203.90625 -0.0268,0.0455 -0.0669,0.0795 -0.0937,0.125 -43.8127,71.81832 -61.58399,171.40001 -51.75,253.375 0.0198,0.16514 0.0425,0.335 0.0625,0.5 3.98599,61.20961 27.19643,119.41579 62.5625,168.65625 18.00507,32.1473 44.97984,57.27356 76.625,75.0625 34.94857,25.27586 74.50946,41.43746 115.15625,52.90625 a 9.1602949,9.1602949 0 0 0 0.5625,0.125 c 26.36172,5.74715 52.92199,6.54303 78.59375,7.71875 0.15511,0.007 0.31371,0.0241 0.46875,0.0312 86.74961,8.31484 175.13052,-15.89152 242.25,-67.09375 23.19646,-14.32596 37.97773,-39.4159 46.5625,-66.65625 8.69183,-27.58008 11.13161,-57.64292 8.3125,-83.0625 a 9.1602949,9.1602949 0 0 0 -0.0312,-0.25 c -10.45833,-76.60519 -36.63829,-125.06359 -72.78125,-158 C 703.51329,467.62609 658.35347,450.37373 610.5,433.1875 A 9.1602949,9.1602949 0 0 0 609.9375,433 c -92.70575,-26.51704 -192.14759,-4.58057 -276.09375,35.3125 a 9.1602949,9.1602949 0 0 0 -0.53125,0.28125 c -26.48009,14.83693 -43.4671,29.20029 -54.625,38.4375 a 9.1602949,9.1602949 0 0 0 0.0937,-0.5 c 5.00653,-37.72152 22.48838,-85.22535 41.1875,-118.8125 a 9.1602949,9.1602949 0 0 0 0.3125,-0.625 C 349.92201,322.90617 398.69437,269.24206 455.34375,226.5 c 0.0532,-0.0402 0.10301,-0.0849 0.15625,-0.125 31.15188,-20.68023 62.38449,-44.74301 96.125,-47.875 17.97999,4.36876 36.9058,4.16376 53.375,-2.59375 17.13321,-7.02996 31.26735,-21.71509 36.375,-43.28125 a 9.1602949,9.1602949 0 0 0 -1.8125,-7.90625 C 622.19195,103.42016 594.62068,71.417423 560.21875,69.6875 z M 560.125,514.125 c 60.34244,3.0703 110.23322,35.7323 141.46875,89.28125 a 9.1602949,9.1602949 0 0 0 0.75,1.09375 c 24.31462,30.42407 25.19888,70.85251 0.34375,96.46875 -0.0207,0.0213 -0.0417,0.0412 -0.0625,0.0625 -12.42473,11.48055 -21.9761,23.48008 -31.75,32.6875 -9.87841,9.30588 -19.53263,15.76328 -33.5,17.96875 a 9.1602949,9.1602949 0 0 0 -2.59375,0.84375 c -30.27032,14.83229 -65.93992,19.67585 -101.21875,24.3125 -22.58885,1.392 -45.31926,1.23558 -67.90625,-0.46875 a 9.1602949,9.1602949 0 0 0 -1.21875,-0.0312 c -27.53814,1.59545 -50.53733,-11.79232 -75.84375,-23.09375 -0.0309,-0.0143 -0.0629,-0.0169 -0.0937,-0.0312 -0.0128,-0.006 -0.0185,-0.0255 -0.0312,-0.0312 -46.01881,-21.38111 -68.86087,-48.91733 -86.59375,-95.375 a 9.1602949,9.1602949 0 0 0 -1.15625,-2.09375 c -8.99749,-12.39276 -7.11185,-27.19817 0.71875,-41.5625 7.8306,-14.36433 22.19775,-26.57788 32.46875,-29.875 a 9.1602949,9.1602949 0 0 0 2.21875,-1.0625 c 66.16293,-43.38002 144.87243,-67.29365 224,-69.09375 z" />
  </g>
</svg>
