<?xml version="1.0" encoding="UTF-8" standalone="no"?>
<!-- Created with Inkscape (http://www.inkscape.org/) -->

<svg
   xmlns:dc="http://purl.org/dc/elements/1.1/"
   xmlns:cc="http://creativecommons.org/ns#"
   xmlns:rdf="http://www.w3.org/1999/02/22-rdf-syntax-ns#"
   xmlns:svg="http://www.w3.org/2000/svg"
   xmlns="http://www.w3.org/2000/svg"
   xmlns:sodipodi="http://sodipodi.sourceforge.net/DTD/sodipodi-0.dtd"
   xmlns:inkscape="http://www.inkscape.org/namespaces/inkscape"
   width="1000"
   height="1000"
   id="svg3093"
   version="1.1"
   inkscape:version="0.48.2 r9819"
   sodipodi:docname="6.svg">
  <defs
     id="defs3095" />
  <sodipodi:namedview
     id="base"
     pagecolor="#ffffff"
     bordercolor="#666666"
     borderopacity="1.0"
     inkscape:pageopacity="0.0"
     inkscape:pageshadow="2"
     inkscape:zoom="0.55130618"
     inkscape:cx="1125.067"
     inkscape:cy="649.86358"
     inkscape:document-units="px"
     inkscape:current-layer="layer1"
     showgrid="true"
     showborder="true"
     inkscape:showpageshadow="false"
     inkscape:window-width="1253"
     inkscape:window-height="765"
     inkscape:window-x="136"
     inkscape:window-y="22"
     inkscape:window-maximized="0"
     showguides="true"
     inkscape:guide-bbox="true"
     inkscape:snap-global="false">
    <sodipodi:guide
       orientation="0,1"
       position="114.53282,200.26098"
       id="guide3344" />
  </sodipodi:namedview>
  <metadata
     id="metadata3098">
    <rdf:RDF>
      <cc:Work
         rdf:about="">
        <dc:format>image/svg+xml</dc:format>
        <dc:type
           rdf:resource="http://purl.org/dc/dcmitype/StillImage" />
        <dc:title></dc:title>
      </cc:Work>
    </rdf:RDF>
  </metadata>
  <g
     inkscape:label="Layer 1"
     inkscape:groupmode="layer"
     id="layer1"
     transform="translate(0,-52.362183)">
    <path
       style="fill:#000000;enable-background:new"
       d="m 368.8772,777.90309 c 41.24427,-96.72853 87.15491,-191.40876 129.39218,-287.70795 34.60368,-62.63708 67.85947,-126.11785 105.08267,-187.28965 16.87382,-33.42499 36.76739,-65.22758 56.46864,-96.90495 -90.30344,-5.0834 -181.00154,-0.36889 -271.45003,-3.29793 -48.40613,-2.27888 -96.98015,0.97687 -145.28676,-1.19259 -27.46326,-12.80048 -18.17962,-47.90023 -27.83061,-72.92653 -0.93325,-11.253 -1.88129,-42.660059 12.26187,-43.916412 66.11554,3.254072 131.84227,11.629848 197.82491,15.944182 90.96276,1.29776 182.40685,2.83927 272.98432,-6.615406 32.80271,1.542683 69.166,-33.570872 114.19675,-6.007048 45.03075,27.563824 46.85118,70.833634 22.96537,91.303044 -70.27082,71.73185 -123.14229,157.94683 -177.57033,241.72902 -37.91908,61.30219 -69.27093,117.81316 -92.16826,176.46772 -14.16812,32.51103 -29.34024,64.63615 -41.78603,97.84861 -28.68751,46.86092 -47.34036,99.41135 -67.41335,150.44635 -2.25726,40.76235 -47.91083,27.34304 -69.65322,13.68407 -21.74239,-13.65896 -38.78997,-48.50151 -18.01812,-81.56453 z"
       id="path6397"
       inkscape:connector-curvature="0"
       sodipodi:nodetypes="cccccccccccccccccc" />
  </g>
</svg>
