<?xml version="1.0" encoding="UTF-8" standalone="no"?>
<!-- Created with Inkscape (http://www.inkscape.org/) -->

<svg
   xmlns:dc="http://purl.org/dc/elements/1.1/"
   xmlns:cc="http://creativecommons.org/ns#"
   xmlns:rdf="http://www.w3.org/1999/02/22-rdf-syntax-ns#"
   xmlns:svg="http://www.w3.org/2000/svg"
   xmlns="http://www.w3.org/2000/svg"
   xmlns:sodipodi="http://sodipodi.sourceforge.net/DTD/sodipodi-0.dtd"
   xmlns:inkscape="http://www.inkscape.org/namespaces/inkscape"
   width="1000"
   height="1000"
   id="svg3093"
   version="1.1"
   inkscape:version="0.48.2 r9819"
   sodipodi:docname="8.svg">
  <defs
     id="defs3095" />
  <sodipodi:namedview
     id="base"
     pagecolor="#ffffff"
     bordercolor="#666666"
     borderopacity="1.0"
     inkscape:pageopacity="0.0"
     inkscape:pageshadow="2"
     inkscape:zoom="0.75448276"
     inkscape:cx="548.01645"
     inkscape:cy="471.46709"
     inkscape:document-units="px"
     inkscape:current-layer="layer1"
     showgrid="true"
     showborder="true"
     inkscape:showpageshadow="false"
     inkscape:window-width="1253"
     inkscape:window-height="765"
     inkscape:window-x="78"
     inkscape:window-y="102"
     inkscape:window-maximized="0"
     showguides="true"
     inkscape:guide-bbox="true"
     inkscape:snap-global="false">
    <sodipodi:guide
       orientation="0,1"
       position="114.53282,200.26098"
       id="guide3344" />
  </sodipodi:namedview>
  <metadata
     id="metadata3098">
    <rdf:RDF>
      <cc:Work
         rdf:about="">
        <dc:format>image/svg+xml</dc:format>
        <dc:type
           rdf:resource="http://purl.org/dc/dcmitype/StillImage" />
        <dc:title></dc:title>
      </cc:Work>
    </rdf:RDF>
  </metadata>
  <g
     inkscape:label="Layer 1"
     inkscape:groupmode="layer"
     id="layer1"
     transform="translate(0,-52.362183)">
    <path
       style="fill:#000000;enable-background:new"
       d="m 555.62863,727.23284 c 47.81192,-75.47178 77.86331,-152.7812 74.30631,-202.48148 5.00455,-40.21787 -49.94858,0.92573 -71.15318,0.55414 -57.48034,19.1335 -117.71398,31.71334 -178.54912,27.13737 -51.58758,-1.26217 -92.56569,-4.97312 -151.20121,-35.26066 -37.02889,-31.61672 -60.93693,-51.98902 -66.83339,-117.3979 -8.79208,-45.83392 -0.31957,-106.82446 28.38174,-146.47918 58.02086,-80.31865 114.32782,-122.26653 242.50439,-153.22514 70.31636,-12.343148 171.12474,2.82565 211.78847,22.80618 34.96315,17.88965 57.84431,35.53119 90.81139,56.12496 39.5104,29.45039 73.09626,58.43656 55.70471,102.44276 -15.24565,27.25378 -10.69728,60.17276 -16.07195,90.35196 -9.87164,79.78172 -25.61315,158.92547 -48.94068,235.90657 -30.38443,87.57671 -38.79394,98.88312 -81.02996,174.90018 -75.9484,114.98794 -115.83825,135.98346 -145.06166,126.19624 -80.84224,-15.29075 -0.12487,-91.85163 55.34414,-181.576 z m 66.96068,-379.2383 c 33.05257,-30.18482 34.80861,-77.98543 8.40576,-112.83049 -24.25731,-27.5717 -66.90385,-25.22347 -100.94391,-29.95025 -66.56183,-0.95766 -131.70165,22.2343 -189.49718,53.70822 -44.26069,26.30012 -74.2376,73.75957 -70.46018,126.61175 27.5477,58.32845 87.33263,54.1583 184.07979,37.47704 96.74717,-16.68126 130.66397,-37.34011 168.41572,-75.01627 z"
       id="path6423"
       inkscape:connector-curvature="0"
       sodipodi:nodetypes="ccccccccccccccccccccccc" />
  </g>
</svg>
